$MeshFormat
4.1 0 8
$EndMeshFormat
$PhysicalNames
1
2 1 "materialID"
$EndPhysicalNames
$Entities
14 19 6 0
100 0 0 0 0 
101 0.4 0 0 0 
102 0.6 0 0 0 
103 1 0 0 0 
201 0.4 0.5 0 0 
202 0.6 0.5 0 0 
300 0 1 0 0 
301 0.4 1 0 0 
302 0.6 1 0 0 
303 1 1 0 0 
900 1 0.495 0 0 
901 1 0.505 0 0 
902 0 0.495 0 0 
903 0 0.505 0 0 
1000 0 0 0 0.4 0 0 0 2 100 -101 
1001 0.4 0 0 0.6 0 0 0 2 101 -102 
1002 0.6 0 0 1 0 0 0 2 102 -103 
1101 0.4 0.5 0 0.6 0.5 0 0 2 201 -202 
1200 0 1 0 0.4 1 0 0 2 300 -301 
1201 0.4 1 0 0.6 1 0 0 2 301 -302 
1202 0.6 1 0 1 1 0 0 2 302 -303 
1800 0.6 0.495 0 1 0.5 0 0 2 202 -900 
1801 0.6 0.5 0 1 0.505 0 0 2 202 -901 
1810 0 0.495 0 0.4 0.5 0 0 2 902 -201 
1811 0 0.5 0 0.4 0.505 0 0 2 903 -201 
1900 0 0 0 0 0.495 0 0 2 100 -902 
1901 0.4 0 0 0.4 0.5 0 0 2 101 -201 
1902 0.6 0 0 0.6 0.5 0 0 2 102 -202 
1903 1 0 0 1 0.495 0 0 2 103 -900 
2000 0 0.505 0 0 1 0 0 2 903 -300 
2001 0.4 0.5 0 0.4 1 0 0 2 201 -301 
2002 0.6 0.5 0 0.6 1 0 0 2 202 -302 
2003 1 0.505 0 1 1 0 0 2 901 -303 
3000 0 0 0 0.4 0.5 0 1 1 4 1000 1901 -1810 -1900 
3001 0.4 0 0 0.6 0.5 0 1 1 4 1001 1902 -1101 -1901 
3002 0.6 0 0 1 0.5 0 1 1 4 1002 1903 -1800 -1902 
3100 0 0.5 0 0.4 1 0 1 1 4 1811 2001 -1200 -2000 
3101 0.4 0.5 0 0.6 1 0 1 1 4 1101 2002 -1201 -2001 
3102 0.6 0.5 0 1 1 0 1 1 4 1801 2003 -1202 -2002 
$EndEntities
$Nodes
39 457 1 457
0 100 0 1
1
0 0 0
0 101 0 1
2
0.4 0 0
0 102 0 1
3
0.6 0 0
0 103 0 1
4
1 0 0
0 201 0 1
5
0.4 0.5 0
0 202 0 1
6
0.6 0.5 0
0 300 0 1
7
0 1 0
0 301 0 1
8
0.4 1 0
0 302 0 1
9
0.6 1 0
0 303 0 1
10
1 1 0
0 900 0 1
11
1 0.495 0
0 901 0 1
12
1 0.505 0
0 902 0 1
13
0 0.495 0
0 903 0 1
14
0 0.505 0
1 1000 0 7
15
16
17
18
19
20
21
0.04999999999991424 0 0
0.09999999999976666 0 0
0.1499999999996177 0 0
0.1999999999994742 0 0
0.2499999999996016 0 0
0.2999999999997344 0 0
0.3499999999998726 0 0
1 1001 0 3
22
23
24
0.4499999999998861 0 0
0.4999999999997613 0 0
0.5499999999998753 0 0
1 1002 0 7
25
26
27
28
29
30
31
0.6499999999998645 0 0
0.6999999999997288 0 0
0.7499999999995931 0 0
0.7999999999994574 0 0
0.8499999999995822 0 0
0.8999999999997068 0 0
0.9499999999998534 0 0
1 1101 0 3
32
33
34
0.4499999999998861 0.5 0
0.4999999999997613 0.5 0
0.5499999999998753 0.5 0
1 1200 0 7
35
36
37
38
39
40
41
0.04999999999991424 1 0
0.09999999999976666 1 0
0.1499999999996177 1 0
0.1999999999994742 1 0
0.2499999999996016 1 0
0.2999999999997344 1 0
0.3499999999998726 1 0
1 1201 0 3
42
43
44
0.4499999999998861 1 0
0.4999999999997613 1 0
0.5499999999998753 1 0
1 1202 0 7
45
46
47
48
49
50
51
0.6499999999998645 1 0
0.6999999999997288 1 0
0.7499999999995931 1 0
0.7999999999994574 1 0
0.8499999999995822 1 0
0.8999999999997068 1 0
0.9499999999998534 1 0
1 1800 0 7
52
53
54
55
56
57
58
0.6499999999998645 0.4993750000000017 0
0.6999999999997291 0.4987500000000034 0
0.7499999999995937 0.4981250000000051 0
0.799999999999458 0.4975000000000068 0
0.8499999999995826 0.4968750000000052 0
0.8999999999997073 0.4962500000000036 0
0.9499999999998535 0.4956250000000018 0
1 1801 0 7
59
60
61
62
63
64
65
0.6499999999998644 0.5006249999999983 0
0.6999999999997295 0.5012499999999966 0
0.7499999999995933 0.501874999999995 0
0.7999999999994581 0.5024999999999932 0
0.8499999999995831 0.5031249999999948 0
0.899999999999707 0.5037499999999964 0
0.9499999999998539 0.5043749999999981 0
1 1810 0 7
66
67
68
69
70
71
72
0.04999999999991404 0.4956249999999989 0
0.09999999999976632 0.4962499999999971 0
0.1499999999996172 0.4968749999999952 0
0.1999999999994734 0.4974999999999934 0
0.2499999999996009 0.498124999999995 0
0.2999999999997339 0.4987499999999967 0
0.3499999999998723 0.4993749999999984 0
1 1811 0 7
73
74
75
76
77
78
79
0.04999999999991384 0.5043750000000011 0
0.09999999999976664 0.5037500000000029 0
0.1499999999996167 0.5031250000000048 0
0.1999999999994734 0.5025000000000066 0
0.2499999999996012 0.501875000000005 0
0.2999999999997333 0.5012500000000033 0
0.3499999999998728 0.5006250000000015 0
1 1900 0 9
80
81
82
83
84
85
86
87
88
0 0.04949999999990409 0
0 0.09899999999977498 0
0 0.1484999999996359 0
0 0.1979999999994806 0
0 0.2474999999993416 0
0 0.2969999999994797 0
0 0.346499999999606 0
0 0.3959999999997409 0
0 0.4454999999998672 0
1 1901 0 9
89
90
91
92
93
94
95
96
97
0.4 0.04999999999990707 0
0.4 0.09999999999977846 0
0.4 0.1499999999996325 0
0.4 0.1999999999994866 0
0.4 0.2499999999993461 0
0.4 0.2999999999994725 0
0.4 0.3499999999996044 0
0.4 0.3999999999997362 0
0.4 0.4499999999998681 0
1 1902 0 9
98
99
100
101
102
103
104
105
106
0.6 0.04999999999990707 0
0.6 0.09999999999977846 0
0.6 0.1499999999996325 0
0.6 0.1999999999994866 0
0.6 0.2499999999993461 0
0.6 0.2999999999994725 0
0.6 0.3499999999996044 0
0.6 0.3999999999997362 0
0.6 0.4499999999998681 0
1 1903 0 9
107
108
109
110
111
112
113
114
115
1 0.04949999999990409 0
1 0.09899999999977498 0
1 0.1484999999996359 0
1 0.1979999999994806 0
1 0.2474999999993416 0
1 0.2969999999994797 0
1 0.346499999999606 0
1 0.3959999999997409 0
1 0.4454999999998672 0
1 2000 0 9
116
117
118
119
120
121
122
123
124
0 0.5544999999998655 0
0 0.6039999999997311 0
0 0.6534999999995966 0
0 0.702999999999419 0
0 0.7524999999993063 0
0 0.801999999999471 0
0 0.8514999999995925 0
0 0.9009999999997356 0
0 0.9504999999998612 0
1 2001 0 9
125
126
127
128
129
130
131
132
133
0.4 0.55 0
0.4 0.6 0
0.4 0.65 0
0.4 0.7 0
0.4 0.75 0
0.4 0.8 0
0.4 0.8500000000000001 0
0.4 0.9 0
0.4 0.95 0
1 2002 0 9
134
135
136
137
138
139
140
141
142
0.6 0.55 0
0.6 0.6 0
0.6 0.65 0
0.6 0.7 0
0.6 0.75 0
0.6 0.8 0
0.6 0.8500000000000001 0
0.6 0.9 0
0.6 0.95 0
1 2003 0 9
143
144
145
146
147
148
149
150
151
1 0.5544999999998655 0
1 0.6039999999997311 0
1 0.6534999999995966 0
1 0.702999999999419 0
1 0.7524999999993063 0
1 0.801999999999471 0
1 0.8514999999995925 0
1 0.9009999999997356 0
1 0.9504999999998612 0
2 3000 0 63
152
153
154
155
156
157
158
159
160
161
162
163
164
165
166
167
168
169
170
171
172
173
174
175
176
177
178
179
180
181
182
183
184
185
186
187
188
189
190
191
192
193
194
195
196
197
198
199
200
201
202
203
204
205
206
207
208
209
210
211
212
213
214
0.04999999999991586 0.04956203474264279 0
0.04999999999993046 0.09912408185278733 0
0.04999999999994394 0.1486861556032522 0
0.04999999999995254 0.1982482744190492 0
0.04999999999995548 0.2478104639284394 0
0.04999999999995271 0.2973727616235208 0
0.04999999999994428 0.3469352248706205 0
0.04999999999993088 0.3964979467246912 0
0.04999999999991617 0.4460610925736842 0
0.09999999999981855 0.0496242125622486 0
0.09999999999986213 0.09924844804007218 0
0.09999999999989297 0.1488727328382635 0
0.09999999999991088 0.1984971009085941 0
0.09999999999991678 0.2481215990791892 0
0.09999999999991108 0.2977462946784654 0
0.09999999999989341 0.3473712871472703 0
0.09999999999986273 0.3969967266245623 0
0.09999999999981903 0.4466228444546116 0
0.1499999999997297 0.04968652327432033 0
0.149999999999807 0.09937307656252006 0
0.1499999999998552 0.1490596943928577 0
0.1499999999998814 0.198746420988581 0
0.1499999999998898 0.2484333168652758 0
0.1499999999998816 0.2981204677310846 0
0.1499999999998554 0.347807996685383 0
0.1499999999998073 0.3974960804612522 0
0.14999999999973 0.4471849687942073 0
0.1999999999996761 0.0497489601977481 0
0.1999999999997812 0.09949795298727408 0
0.1999999999998398 0.1492470158336839 0
0.1999999999998701 0.1989961966332353 0
0.1999999999998796 0.248745560692515 0
0.1999999999998701 0.2984951999041516 0
0.1999999999998396 0.348245244760671 0
0.1999999999997809 0.397995879088518 0
0.1999999999996757 0.4477473550024265 0
0.2499999999997205 0.0498115212307352 0
0.2499999999998022 0.09962307271047226 0
0.2499999999998528 0.1494346892270194 0
0.24999999999988 0.199246415300513 0
0.2499999999998886 0.2490583117600592 0
0.24999999999988 0.298870464545564 0
0.2499999999998523 0.3486829966533114 0
0.2499999999998014 0.3984960838830199 0
0.2499999999997195 0.448309973540468 0
0.2999999999998023 0.04987420924438618 0
0.2999999999998545 0.09974844177387285 0
0.2999999999998893 0.1496227244059011 0
0.2999999999999088 0.1994970915764234 0
0.2999999999999151 0.2493715906521236 0
0.2999999999999087 0.2992462894236332 0
0.2999999999998887 0.3491212873323477 0
0.2999999999998535 0.3989967331687064 0
0.2999999999998013 0.4488728539364171 0
0.3499999999998997 0.04993703176924576 0
0.3499999999999239 0.09987407621817018 0
0.3499999999999411 0.1498111479741912 0
0.349999999999951 0.1997482658940767 0
0.3499999999999542 0.2496854561227 0
0.3499999999999508 0.2996227566851793 0
0.3499999999999406 0.3495602252274039 0
0.3499999999999232 0.3994979540324731 0
0.349999999999899 0.4494361044165369 0
2 3001 0 27
215
216
217
218
219
220
221
222
223
224
225
226
227
228
229
230
231
232
233
234
235
236
237
238
239
240
241
0.4499999999999378 0.04999999999989394 0
0.4499999999999686 0.09999999999977716 0
0.4499999999999842 0.1499999999996578 0
0.4499999999999912 0.1999999999995538 0
0.4499999999999932 0.2499999999994938 0
0.4499999999999912 0.2999999999995425 0
0.4499999999999842 0.3499999999996367 0
0.4499999999999688 0.3999999999997508 0
0.4499999999999379 0.4499999999998737 0
0.4999999999998966 0.04999999999989158 0
0.4999999999999525 0.09999999999977842 0
0.499999999999977 0.1499999999996678 0
0.4999999999999874 0.1999999999995771 0
0.4999999999999903 0.2499999999995328 0
0.4999999999999874 0.2999999999995667 0
0.4999999999999771 0.3499999999996492 0
0.4999999999999526 0.3999999999997568 0
0.4999999999998968 0.4499999999998761 0
0.5499999999999349 0.04999999999989394 0
0.549999999999968 0.09999999999977716 0
0.5499999999999841 0.1499999999996578 0
0.5499999999999911 0.1999999999995538 0
0.5499999999999932 0.2499999999994938 0
0.5499999999999912 0.2999999999995425 0
0.5499999999999841 0.3499999999996367 0
0.549999999999968 0.3999999999997509 0
0.549999999999935 0.4499999999998738 0
2 3002 0 63
242
243
244
245
246
247
248
249
250
251
252
253
254
255
256
257
258
259
260
261
262
263
264
265
266
267
268
269
270
271
272
273
274
275
276
277
278
279
280
281
282
283
284
285
286
287
288
289
290
291
292
293
294
295
296
297
298
299
300
301
302
303
304
0.6499999999998947 0.04993703177018596 0
0.6499999999999199 0.09987407621984605 0
0.6499999999999377 0.1498111479763521 0
0.649999999999948 0.1997482658964558 0
0.6499999999999513 0.2496854561250421 0
0.6499999999999478 0.299622756687264 0
0.6499999999999374 0.3495602252290624 0
0.6499999999999195 0.3994979540335996 0
0.6499999999998944 0.4494361044170906 0
0.699999999999795 0.04987420924553981 0
0.6999999999998475 0.09974844177592936 0
0.699999999999883 0.1496227244085535 0
0.6999999999999034 0.1994970915793448 0
0.6999999999999096 0.2493715906550009 0
0.6999999999999029 0.299246289426196 0
0.6999999999998827 0.3491212873343891 0
0.6999999999998471 0.3989967331700955 0
0.6999999999997949 0.4488728539371028 0
0.7499999999997096 0.04981152123148904 0
0.7499999999997919 0.09962307271181615 0
0.7499999999998438 0.149434689228753 0
0.7499999999998722 0.1992464153024231 0
0.7499999999998809 0.2490583117619413 0
0.749999999999872 0.2988704645472418 0
0.7499999999998436 0.3486829966546497 0
0.7499999999997917 0.3984960838839329 0
0.7499999999997096 0.4483099735409218 0
0.7999999999996591 0.04974896019775454 0
0.799999999999767 0.09949795298728523 0
0.7999999999998282 0.1492470158336981 0
0.7999999999998604 0.1989961966332508 0
0.7999999999998705 0.2487455606925306 0
0.7999999999998604 0.2984951999041661 0
0.7999999999998282 0.3482452447606837 0
0.7999999999997671 0.3979958790885292 0
0.7999999999996594 0.4477473550024373 0
0.8499999999997035 0.04968652327358056 0
0.8499999999997889 0.09937307656120037 0
0.8499999999998421 0.1490596943911542 0
0.849999999999871 0.1987464209867029 0
0.8499999999998802 0.2484333168634237 0
0.849999999999871 0.2981204677294327 0
0.8499999999998423 0.3478079966840657 0
0.8499999999997896 0.3974960804603564 0
0.8499999999997045 0.4471849687937695 0
0.8999999999997854 0.04962421256111112 0
0.8999999999998429 0.09924844803804299 0
0.8999999999998806 0.1488727328356436 0
0.8999999999999017 0.1984971009057046 0
0.8999999999999085 0.2481215990763382 0
0.8999999999999021 0.2977462946759208 0
0.899999999999881 0.3473712871452385 0
0.8999999999998435 0.3969967266231769 0
0.8999999999997862 0.4466228444539297 0
0.9499999999998887 0.04956203474171663 0
0.9499999999999168 0.09912408185113486 0
0.9499999999999359 0.1486861556011183 0
0.949999999999947 0.1982482744166947 0
0.9499999999999507 0.2478104639261152 0
0.9499999999999472 0.2973727616214447 0
0.9499999999999362 0.3469352248689609 0
0.9499999999999174 0.3964979467235576 0
0.9499999999998893 0.4460610925731239 0
2 3100 0 63
305
306
307
308
309
310
311
312
313
314
315
316
317
318
319
320
321
322
323
324
325
326
327
328
329
330
331
332
333
334
335
336
337
338
339
340
341
342
343
344
345
346
347
348
349
350
351
352
353
354
355
356
357
358
359
360
361
362
363
364
365
366
367
0.04999999999991611 0.5539389074252462 0
0.04999999999993085 0.6035020532737956 0
0.04999999999994427 0.6530647751279809 0
0.0499999999999527 0.7026272383756101 0
0.04999999999995548 0.7521895360714781 0
0.04999999999995253 0.8017517255817763 0
0.04999999999994394 0.851313844398226 0
0.04999999999993046 0.90087591814885 0
0.04999999999991585 0.950437965258512 0
0.09999999999981905 0.5533771555437383 0
0.09999999999986273 0.6030032733732129 0
0.0999999999998934 0.6526287128508986 0
0.09999999999991109 0.7022537053208132 0
0.09999999999991675 0.7518784009215667 0
0.09999999999991087 0.8015028990936018 0
0.09999999999989298 0.8511272671648775 0
0.09999999999986214 0.9007515519631437 0
0.09999999999981853 0.9503757874399381 0
0.1499999999997298 0.5528150312038433 0
0.1499999999998072 0.6025039195361587 0
0.1499999999998554 0.6521920033125729 0
0.1499999999998815 0.7018795322682871 0
0.1499999999998898 0.7515666831359337 0
0.1499999999998814 0.801253579014365 0
0.1499999999998552 0.8509403056111923 0
0.1499999999998069 0.9006269234415571 0
0.1499999999997296 0.9503134767284279 0
0.1999999999996756 0.552252644995618 0
0.1999999999997808 0.6020041209088941 0
0.1999999999998396 0.6517547552373102 0
0.19999999999987 0.7015048000952817 0
0.1999999999998796 0.7512544393087922 0
0.1999999999998702 0.801003803369831 0
0.1999999999998398 0.8507529841704904 0
0.1999999999997811 0.9005020470169101 0
0.1999999999996761 0.9502510398050659 0
0.2499999999997195 0.5516900264578315 0
0.2499999999998013 0.6015039161147208 0
0.2499999999998523 0.6513170033449122 0
0.2499999999998798 0.701129535453912 0
0.2499999999998886 0.7509416882410401 0
0.2499999999998801 0.8007535847021164 0
0.2499999999998528 0.850565310776579 0
0.2499999999998022 0.9003769272931437 0
0.2499999999997206 0.9501884787716998 0
0.2999999999998011 0.5511271460623315 0
0.2999999999998534 0.6010032668296064 0
0.2999999999998886 0.6508787126662794 0
0.2999999999999085 0.7007537105758682 0
0.2999999999999151 0.7506284093485336 0
0.2999999999999089 0.8005029084253485 0
0.2999999999998894 0.8503772755965953 0
0.2999999999998544 0.9002515582286681 0
0.2999999999998023 0.9501257907573365 0
0.3499999999998991 0.550563895582766 0
0.3499999999999232 0.6005020459665441 0
0.3499999999999406 0.6504397747717104 0
0.3499999999999507 0.7003772433143238 0
0.3499999999999542 0.7503145438773575 0
0.349999999999951 0.8002517341065877 0
0.3499999999999411 0.8501888520269024 0
0.3499999999999239 0.9001259237830113 0
0.3499999999998998 0.9500629682315798 0
2 3101 0 27
368
369
370
371
372
373
374
375
376
377
378
379
380
381
382
383
384
385
386
387
388
389
390
391
392
393
394
0.4499999999999378 0.5499999999999999 0
0.4499999999999686 0.6 0
0.4499999999999843 0.6500000000000001 0
0.4499999999999912 0.7 0
0.4499999999999932 0.75 0
0.4499999999999912 0.8 0
0.4499999999999842 0.8500000000000001 0
0.4499999999999687 0.9 0
0.4499999999999379 0.95 0
0.4999999999998968 0.5500000000000002 0
0.4999999999999526 0.6000000000000002 0
0.4999999999999771 0.6500000000000001 0
0.4999999999999874 0.7000000000000001 0
0.4999999999999903 0.75 0
0.4999999999999874 0.8000000000000002 0
0.4999999999999769 0.85 0
0.4999999999999525 0.8999999999999999 0
0.4999999999998966 0.9499999999999998 0
0.549999999999935 0.55 0
0.549999999999968 0.6000000000000001 0
0.5499999999999841 0.6500000000000001 0
0.5499999999999913 0.7000000000000001 0
0.5499999999999932 0.75 0
0.5499999999999912 0.8 0
0.5499999999999841 0.8500000000000001 0
0.5499999999999678 0.8999999999999998 0
0.549999999999935 0.9499999999999998 0
2 3102 0 63
395
396
397
398
399
400
401
402
403
404
405
406
407
408
409
410
411
412
413
414
415
416
417
418
419
420
421
422
423
424
425
426
427
428
429
430
431
432
433
434
435
436
437
438
439
440
441
442
443
444
445
446
447
448
449
450
451
452
453
454
455
456
457
0.6499999999998947 0.5505638955819387 0
0.6499999999999198 0.6005020459650642 0
0.6499999999999374 0.6504397747697952 0
0.649999999999948 0.7003772433122087 0
0.6499999999999515 0.7503145438752693 0
0.6499999999999481 0.8002517341047235 0
0.649999999999938 0.8501888520254146 0
0.6499999999999202 0.9001259237819972 0
0.6499999999998949 0.9500629682310795 0
0.699999999999795 0.5511271460613091 0
0.6999999999998472 0.6010032668277833 0
0.6999999999998828 0.6508787126639243 0
0.6999999999999031 0.7007537105732696 0
0.6999999999999096 0.7506284093459695 0
0.6999999999999034 0.8005029084230605 0
0.6999999999998832 0.8503772755947695 0
0.6999999999998476 0.9002515582274236 0
0.6999999999997952 0.9501257907567227 0
0.7499999999997097 0.551690026457157 0
0.7499999999997917 0.6015039161135238 0
0.7499999999998438 0.6513170033433687 0
0.7499999999998721 0.7011295354522107 0
0.749999999999881 0.7509416882393627 0
0.7499999999998722 0.8007535847006201 0
0.7499999999998438 0.850565310775385 0
0.7499999999997919 0.9003769272923297 0
0.7499999999997097 0.9501884787712984 0
0.7999999999996597 0.5522526449956043 0
0.7999999999997672 0.6020041209088789 0
0.7999999999998284 0.6517547552372931 0
0.7999999999998605 0.7015048000952639 0
0.7999999999998705 0.7512544393087751 0
0.7999999999998607 0.8010038033698156 0
0.7999999999998283 0.8507529841704773 0
0.7999999999997669 0.900502047016901 0
0.7999999999996591 0.9502510398050612 0
0.8499999999997048 0.5528150312044966 0
0.8499999999997895 0.6025039195373294 0
0.8499999999998424 0.6521920033140847 0
0.8499999999998713 0.7018795322699535 0
0.8499999999998806 0.7515666831375759 0
0.8499999999998712 0.8012535790158286 0
0.8499999999998424 0.8509403056123589 0
0.849999999999789 0.9006269234423517 0
0.8499999999997039 0.9503134767288193 0
0.8999999999997865 0.5533771555447528 0
0.8999999999998438 0.6030032733750219 0
0.8999999999998815 0.6526287128532302 0
0.8999999999999024 0.7022537053233803 0
0.899999999999909 0.7518784009240947 0
0.8999999999999018 0.801502899095854 0
0.8999999999998808 0.8511272671666725 0
0.899999999999843 0.9007515519643661 0
0.8999999999997856 0.9503757874405404 0
0.9499999999998897 0.5539389074260782 0
0.9499999999999177 0.6035020532752743 0
0.9499999999999367 0.6530647751298837 0
0.9499999999999473 0.7026272383777029 0
0.9499999999999509 0.7521895360735379 0
0.9499999999999472 0.8017517255836109 0
0.9499999999999362 0.8513138443996878 0
0.9499999999999171 0.9008759181498454 0
0.949999999999889 0.9504379652590024 0
$EndNodes
$Elements
6 400 1 400
2 3000 3 80
1 1 15 152 80 
2 80 152 153 81 
3 81 153 154 82 
4 82 154 155 83 
5 83 155 156 84 
6 84 156 157 85 
7 85 157 158 86 
8 86 158 159 87 
9 87 159 160 88 
10 88 160 66 13 
11 15 16 161 152 
12 152 161 162 153 
13 153 162 163 154 
14 154 163 164 155 
15 155 164 165 156 
16 156 165 166 157 
17 157 166 167 158 
18 158 167 168 159 
19 159 168 169 160 
20 160 169 67 66 
21 16 17 170 161 
22 161 170 171 162 
23 162 171 172 163 
24 163 172 173 164 
25 164 173 174 165 
26 165 174 175 166 
27 166 175 176 167 
28 167 176 177 168 
29 168 177 178 169 
30 169 178 68 67 
31 17 18 179 170 
32 170 179 180 171 
33 171 180 181 172 
34 172 181 182 173 
35 173 182 183 174 
36 174 183 184 175 
37 175 184 185 176 
38 176 185 186 177 
39 177 186 187 178 
40 178 187 69 68 
41 18 19 188 179 
42 179 188 189 180 
43 180 189 190 181 
44 181 190 191 182 
45 182 191 192 183 
46 183 192 193 184 
47 184 193 194 185 
48 185 194 195 186 
49 186 195 196 187 
50 187 196 70 69 
51 19 20 197 188 
52 188 197 198 189 
53 189 198 199 190 
54 190 199 200 191 
55 191 200 201 192 
56 192 201 202 193 
57 193 202 203 194 
58 194 203 204 195 
59 195 204 205 196 
60 196 205 71 70 
61 20 21 206 197 
62 197 206 207 198 
63 198 207 208 199 
64 199 208 209 200 
65 200 209 210 201 
66 201 210 211 202 
67 202 211 212 203 
68 203 212 213 204 
69 204 213 214 205 
70 205 214 72 71 
71 21 2 89 206 
72 206 89 90 207 
73 207 90 91 208 
74 208 91 92 209 
75 209 92 93 210 
76 210 93 94 211 
77 211 94 95 212 
78 212 95 96 213 
79 213 96 97 214 
80 214 97 5 72 
2 3001 3 40
81 2 22 215 89 
82 89 215 216 90 
83 90 216 217 91 
84 91 217 218 92 
85 92 218 219 93 
86 93 219 220 94 
87 94 220 221 95 
88 95 221 222 96 
89 96 222 223 97 
90 97 223 32 5 
91 22 23 224 215 
92 215 224 225 216 
93 216 225 226 217 
94 217 226 227 218 
95 218 227 228 219 
96 219 228 229 220 
97 220 229 230 221 
98 221 230 231 222 
99 222 231 232 223 
100 223 232 33 32 
101 23 24 233 224 
102 224 233 234 225 
103 225 234 235 226 
104 226 235 236 227 
105 227 236 237 228 
106 228 237 238 229 
107 229 238 239 230 
108 230 239 240 231 
109 231 240 241 232 
110 232 241 34 33 
111 24 3 98 233 
112 233 98 99 234 
113 234 99 100 235 
114 235 100 101 236 
115 236 101 102 237 
116 237 102 103 238 
117 238 103 104 239 
118 239 104 105 240 
119 240 105 106 241 
120 241 106 6 34 
2 3002 3 80
121 3 25 242 98 
122 98 242 243 99 
123 99 243 244 100 
124 100 244 245 101 
125 101 245 246 102 
126 102 246 247 103 
127 103 247 248 104 
128 104 248 249 105 
129 105 249 250 106 
130 106 250 52 6 
131 25 26 251 242 
132 242 251 252 243 
133 243 252 253 244 
134 244 253 254 245 
135 245 254 255 246 
136 246 255 256 247 
137 247 256 257 248 
138 248 257 258 249 
139 249 258 259 250 
140 250 259 53 52 
141 26 27 260 251 
142 251 260 261 252 
143 252 261 262 253 
144 253 262 263 254 
145 254 263 264 255 
146 255 264 265 256 
147 256 265 266 257 
148 257 266 267 258 
149 258 267 268 259 
150 259 268 54 53 
151 27 28 269 260 
152 260 269 270 261 
153 261 270 271 262 
154 262 271 272 263 
155 263 272 273 264 
156 264 273 274 265 
157 265 274 275 266 
158 266 275 276 267 
159 267 276 277 268 
160 268 277 55 54 
161 28 29 278 269 
162 269 278 279 270 
163 270 279 280 271 
164 271 280 281 272 
165 272 281 282 273 
166 273 282 283 274 
167 274 283 284 275 
168 275 284 285 276 
169 276 285 286 277 
170 277 286 56 55 
171 29 30 287 278 
172 278 287 288 279 
173 279 288 289 280 
174 280 289 290 281 
175 281 290 291 282 
176 282 291 292 283 
177 283 292 293 284 
178 284 293 294 285 
179 285 294 295 286 
180 286 295 57 56 
181 30 31 296 287 
182 287 296 297 288 
183 288 297 298 289 
184 289 298 299 290 
185 290 299 300 291 
186 291 300 301 292 
187 292 301 302 293 
188 293 302 303 294 
189 294 303 304 295 
190 295 304 58 57 
191 31 4 107 296 
192 296 107 108 297 
193 297 108 109 298 
194 298 109 110 299 
195 299 110 111 300 
196 300 111 112 301 
197 301 112 113 302 
198 302 113 114 303 
199 303 114 115 304 
200 304 115 11 58 
2 3100 3 80
201 14 73 305 116 
202 116 305 306 117 
203 117 306 307 118 
204 118 307 308 119 
205 119 308 309 120 
206 120 309 310 121 
207 121 310 311 122 
208 122 311 312 123 
209 123 312 313 124 
210 124 313 35 7 
211 73 74 314 305 
212 305 314 315 306 
213 306 315 316 307 
214 307 316 317 308 
215 308 317 318 309 
216 309 318 319 310 
217 310 319 320 311 
218 311 320 321 312 
219 312 321 322 313 
220 313 322 36 35 
221 74 75 323 314 
222 314 323 324 315 
223 315 324 325 316 
224 316 325 326 317 
225 317 326 327 318 
226 318 327 328 319 
227 319 328 329 320 
228 320 329 330 321 
229 321 330 331 322 
230 322 331 37 36 
231 75 76 332 323 
232 323 332 333 324 
233 324 333 334 325 
234 325 334 335 326 
235 326 335 336 327 
236 327 336 337 328 
237 328 337 338 329 
238 329 338 339 330 
239 330 339 340 331 
240 331 340 38 37 
241 76 77 341 332 
242 332 341 342 333 
243 333 342 343 334 
244 334 343 344 335 
245 335 344 345 336 
246 336 345 346 337 
247 337 346 347 338 
248 338 347 348 339 
249 339 348 349 340 
250 340 349 39 38 
251 77 78 350 341 
252 341 350 351 342 
253 342 351 352 343 
254 343 352 353 344 
255 344 353 354 345 
256 345 354 355 346 
257 346 355 356 347 
258 347 356 357 348 
259 348 357 358 349 
260 349 358 40 39 
261 78 79 359 350 
262 350 359 360 351 
263 351 360 361 352 
264 352 361 362 353 
265 353 362 363 354 
266 354 363 364 355 
267 355 364 365 356 
268 356 365 366 357 
269 357 366 367 358 
270 358 367 41 40 
271 79 5 125 359 
272 359 125 126 360 
273 360 126 127 361 
274 361 127 128 362 
275 362 128 129 363 
276 363 129 130 364 
277 364 130 131 365 
278 365 131 132 366 
279 366 132 133 367 
280 367 133 8 41 
2 3101 3 40
281 5 32 368 125 
282 125 368 369 126 
283 126 369 370 127 
284 127 370 371 128 
285 128 371 372 129 
286 129 372 373 130 
287 130 373 374 131 
288 131 374 375 132 
289 132 375 376 133 
290 133 376 42 8 
291 32 33 377 368 
292 368 377 378 369 
293 369 378 379 370 
294 370 379 380 371 
295 371 380 381 372 
296 372 381 382 373 
297 373 382 383 374 
298 374 383 384 375 
299 375 384 385 376 
300 376 385 43 42 
301 33 34 386 377 
302 377 386 387 378 
303 378 387 388 379 
304 379 388 389 380 
305 380 389 390 381 
306 381 390 391 382 
307 382 391 392 383 
308 383 392 393 384 
309 384 393 394 385 
310 385 394 44 43 
311 34 6 134 386 
312 386 134 135 387 
313 387 135 136 388 
314 388 136 137 389 
315 389 137 138 390 
316 390 138 139 391 
317 391 139 140 392 
318 392 140 141 393 
319 393 141 142 394 
320 394 142 9 44 
2 3102 3 80
321 6 59 395 134 
322 134 395 396 135 
323 135 396 397 136 
324 136 397 398 137 
325 137 398 399 138 
326 138 399 400 139 
327 139 400 401 140 
328 140 401 402 141 
329 141 402 403 142 
330 142 403 45 9 
331 59 60 404 395 
332 395 404 405 396 
333 396 405 406 397 
334 397 406 407 398 
335 398 407 408 399 
336 399 408 409 400 
337 400 409 410 401 
338 401 410 411 402 
339 402 411 412 403 
340 403 412 46 45 
341 60 61 413 404 
342 404 413 414 405 
343 405 414 415 406 
344 406 415 416 407 
345 407 416 417 408 
346 408 417 418 409 
347 409 418 419 410 
348 410 419 420 411 
349 411 420 421 412 
350 412 421 47 46 
351 61 62 422 413 
352 413 422 423 414 
353 414 423 424 415 
354 415 424 425 416 
355 416 425 426 417 
356 417 426 427 418 
357 418 427 428 419 
358 419 428 429 420 
359 420 429 430 421 
360 421 430 48 47 
361 62 63 431 422 
362 422 431 432 423 
363 423 432 433 424 
364 424 433 434 425 
365 425 434 435 426 
366 426 435 436 427 
367 427 436 437 428 
368 428 437 438 429 
369 429 438 439 430 
370 430 439 49 48 
371 63 64 440 431 
372 431 440 441 432 
373 432 441 442 433 
374 433 442 443 434 
375 434 443 444 435 
376 435 444 445 436 
377 436 445 446 437 
378 437 446 447 438 
379 438 447 448 439 
380 439 448 50 49 
381 64 65 449 440 
382 440 449 450 441 
383 441 450 451 442 
384 442 451 452 443 
385 443 452 453 444 
386 444 453 454 445 
387 445 454 455 446 
388 446 455 456 447 
389 447 456 457 448 
390 448 457 51 50 
391 65 12 143 449 
392 449 143 144 450 
393 450 144 145 451 
394 451 145 146 452 
395 452 146 147 453 
396 453 147 148 454 
397 454 148 149 455 
398 455 149 150 456 
399 456 150 151 457 
400 457 151 10 51 
$EndElements
