$MeshFormat
4.1 0 8
$EndMeshFormat
$PhysicalNames
1
2 1 "materialID"
$EndPhysicalNames
$Entities
18 26 9 0
100 0 0 0 0 
101 0.4 0 0 0 
102 0.6 0 0 0 
103 1 0 0 0 
200 0 0.4 0 0 
201 0.4 0.4 0 0 
202 0.6 0.4 0 0 
301 0.4 0.6 0 0 
302 0.6 0.6 0 0 
303 1 0.6 0 0 
400 0 1 0 0 
401 0.4 1 0 0 
402 0.6 1 0 0 
403 1 1 0 0 
900 1 0.395 0 0 
901 1 0.405 0 0 
902 0 0.595 0 0 
903 0 0.605 0 0 
1000 0 0 0 0.4 0 0 0 2 100 -101 
1001 0.4 0 0 0.6 0 0 0 2 101 -102 
1002 0.6 0 0 1 0 0 0 2 102 -103 
1100 0 0.4 0 0.4 0.4 0 0 2 200 -201 
1101 0.4 0.4 0 0.6 0.4 0 0 2 201 -202 
1201 0.4 0.6 0 0.6 0.6 0 0 2 301 -302 
1202 0.6 0.6 0 1 0.6 0 0 2 302 -303 
1300 0 1 0 0.4 1 0 0 2 400 -401 
1301 0.4 1 0 0.6 1 0 0 2 401 -402 
1302 0.6 1 0 1 1 0 0 2 402 -403 
1800 0.6 0.395 0 1 0.4 0 0 2 202 -900 
1801 0.6 0.4 0 1 0.405 0 0 2 202 -901 
1810 0 0.595 0 0.4 0.6 0 0 2 902 -301 
1811 0 0.6 0 0.4 0.605 0 0 2 903 -301 
1900 0 0 0 0 0.4 0 0 2 100 -200 
1901 0.4 0 0 0.4 0.4 0 0 2 101 -201 
1902 0.6 0 0 0.6 0.4 0 0 2 102 -202 
1903 1 0 0 1 0.395 0 0 2 103 -900 
2000 0 0.4 0 0 0.595 0 0 2 200 -902 
2001 0.4 0.4 0 0.4 0.6 0 0 2 201 -301 
2002 0.6 0.4 0 0.6 0.6 0 0 2 202 -302 
2003 1 0.405 0 1 0.6 0 0 2 901 -303 
2100 0 0.605 0 0 1 0 0 2 903 -400 
2101 0.4 0.6 0 0.4 1 0 0 2 301 -401 
2102 0.6 0.6 0 0.6 1 0 0 2 302 -402 
2103 1 0.6 0 1 1 0 0 2 303 -403 
3000 0 0 0 0.4 0.4 0 1 1 4 1000 1901 -1100 -1900 
3001 0.4 0 0 0.6 0.4 0 1 1 4 1001 1902 -1101 -1901 
3002 0.6 0 0 1 0.4 0 1 1 4 1002 1903 -1800 -1902 
3100 0 0.4 0 0.4 0.6 0 1 1 4 1100 2001 -1810 -2000 
3101 0.4 0.4 0 0.6 0.6 0 1 1 4 1101 2002 -1201 -2001 
3102 0.6 0.4 0 1 0.6 0 1 1 4 1801 2003 -1202 -2002 
3200 0 0.6 0 0.4 1 0 1 1 4 1811 2101 -1300 -2100 
3201 0.4 0.6 0 0.6 1 0 1 1 4 1201 2102 -1301 -2101 
3202 0.6 0.6 0 1 1 0 1 1 4 1202 2103 -1302 -2102 
$EndEntities
$Nodes
53 457 1 457
0 100 0 1
1
0 0 0
0 101 0 1
2
0.4 0 0
0 102 0 1
3
0.6 0 0
0 103 0 1
4
1 0 0
0 200 0 1
5
0 0.4 0
0 201 0 1
6
0.4 0.4 0
0 202 0 1
7
0.6 0.4 0
0 301 0 1
8
0.4 0.6 0
0 302 0 1
9
0.6 0.6 0
0 303 0 1
10
1 0.6 0
0 400 0 1
11
0 1 0
0 401 0 1
12
0.4 1 0
0 402 0 1
13
0.6 1 0
0 403 0 1
14
1 1 0
0 900 0 1
15
1 0.395 0
0 901 0 1
16
1 0.405 0
0 902 0 1
17
0 0.595 0
0 903 0 1
18
0 0.605 0
1 1000 0 7
19
20
21
22
23
24
25
0.04999999999991424 0 0
0.09999999999976666 0 0
0.1499999999996177 0 0
0.1999999999994742 0 0
0.2499999999996016 0 0
0.2999999999997344 0 0
0.3499999999998726 0 0
1 1001 0 3
26
27
28
0.4499999999998861 0 0
0.4999999999997613 0 0
0.5499999999998753 0 0
1 1002 0 7
29
30
31
32
33
34
35
0.6499999999998645 0 0
0.6999999999997288 0 0
0.7499999999995931 0 0
0.7999999999994574 0 0
0.8499999999995822 0 0
0.8999999999997068 0 0
0.9499999999998534 0 0
1 1100 0 7
36
37
38
39
40
41
42
0.04999999999991424 0.4 0
0.09999999999976666 0.4 0
0.1499999999996177 0.4 0
0.1999999999994742 0.4 0
0.2499999999996016 0.4 0
0.2999999999997344 0.4 0
0.3499999999998726 0.4 0
1 1101 0 3
43
44
45
0.4499999999998861 0.4 0
0.4999999999997613 0.4 0
0.5499999999998753 0.4 0
1 1201 0 3
46
47
48
0.4499999999998861 0.6 0
0.4999999999997613 0.6 0
0.5499999999998753 0.6 0
1 1202 0 7
49
50
51
52
53
54
55
0.6499999999998645 0.6 0
0.6999999999997288 0.6 0
0.7499999999995931 0.6 0
0.7999999999994574 0.6 0
0.8499999999995822 0.6 0
0.8999999999997068 0.6 0
0.9499999999998534 0.6 0
1 1300 0 7
56
57
58
59
60
61
62
0.04999999999991424 1 0
0.09999999999976666 1 0
0.1499999999996177 1 0
0.1999999999994742 1 0
0.2499999999996016 1 0
0.2999999999997344 1 0
0.3499999999998726 1 0
1 1301 0 3
63
64
65
0.4499999999998861 1 0
0.4999999999997613 1 0
0.5499999999998753 1 0
1 1302 0 7
66
67
68
69
70
71
72
0.6499999999998645 1 0
0.6999999999997288 1 0
0.7499999999995931 1 0
0.7999999999994574 1 0
0.8499999999995822 1 0
0.8999999999997068 1 0
0.9499999999998534 1 0
1 1800 0 7
73
74
75
76
77
78
79
0.6499999999998645 0.3993750000000017 0
0.6999999999997291 0.3987500000000034 0
0.7499999999995937 0.3981250000000051 0
0.799999999999458 0.3975000000000068 0
0.8499999999995826 0.3968750000000053 0
0.8999999999997073 0.3962500000000037 0
0.9499999999998535 0.3956250000000018 0
1 1801 0 7
80
81
82
83
84
85
86
0.6499999999998645 0.4006249999999983 0
0.6999999999997291 0.4012499999999966 0
0.7499999999995937 0.4018749999999949 0
0.799999999999458 0.4024999999999933 0
0.8499999999995826 0.4031249999999948 0
0.8999999999997073 0.4037499999999964 0
0.9499999999998535 0.4043749999999982 0
1 1810 0 7
87
88
89
90
91
92
93
0.04999999999991394 0.5956249999999988 0
0.09999999999976682 0.5962499999999971 0
0.149999999999617 0.5968749999999952 0
0.1999999999994736 0.5974999999999934 0
0.2499999999996015 0.598124999999995 0
0.2999999999997337 0.5987499999999967 0
0.3499999999998726 0.5993749999999984 0
1 1811 0 7
94
95
96
97
98
99
100
0.04999999999991394 0.6043750000000011 0
0.09999999999976682 0.6037500000000029 0
0.149999999999617 0.6031250000000048 0
0.1999999999994736 0.6025000000000066 0
0.2499999999996015 0.6018750000000049 0
0.2999999999997337 0.6012500000000033 0
0.3499999999998726 0.6006250000000015 0
1 1900 0 7
101
102
103
104
105
106
107
0 0.04999999999991424 0
0 0.09999999999976666 0
0 0.1499999999996177 0
0 0.1999999999994742 0
0 0.2499999999996016 0
0 0.2999999999997344 0
0 0.3499999999998726 0
1 1901 0 7
108
109
110
111
112
113
114
0.4 0.04999999999991424 0
0.4 0.09999999999976666 0
0.4 0.1499999999996177 0
0.4 0.1999999999994742 0
0.4 0.2499999999996016 0
0.4 0.2999999999997344 0
0.4 0.3499999999998726 0
1 1902 0 7
115
116
117
118
119
120
121
0.6 0.04999999999991424 0
0.6 0.09999999999976666 0
0.6 0.1499999999996177 0
0.6 0.1999999999994742 0
0.6 0.2499999999996016 0
0.6 0.2999999999997344 0
0.6 0.3499999999998726 0
1 1903 0 7
122
123
124
125
126
127
128
1 0.04937499999991948 0
1 0.09874999999978032 0
1 0.1481249999996398 0
1 0.1974999999995047 0
1 0.246874999999619 0
1 0.2962499999997604 0
1 0.3456249999998802 0
1 2000 0 3
129
130
131
0 0.4487499999998809 0
0 0.49749999999974 0
0 0.5462499999998917 0
1 2001 0 3
132
133
134
0.4 0.4499999999998861 0
0.4 0.4999999999997613 0
0.4 0.5499999999998753 0
1 2002 0 3
135
136
137
0.6 0.4499999999998861 0
0.6 0.4999999999997613 0
0.6 0.5499999999998753 0
1 2003 0 3
138
139
140
1 0.4537499999998862 0
1 0.5024999999997506 0
1 0.5512499999998645 0
1 2100 0 7
141
142
143
144
145
146
147
0 0.6543749999998969 0
0 0.7037499999997938 0
0 0.7531249999997343 0
0 0.8024999999995446 0
0 0.8518749999996368 0
0 0.9012499999997723 0
0 0.9506249999999079 0
1 2101 0 7
148
149
150
151
152
153
154
0.4 0.6499999999998645 0
0.4 0.6999999999997288 0
0.4 0.7499999999995931 0
0.4 0.7999999999994574 0
0.4 0.8499999999995822 0
0.4 0.8999999999997068 0
0.4 0.9499999999998534 0
1 2102 0 7
155
156
157
158
159
160
161
0.6 0.6499999999998645 0
0.6 0.6999999999997288 0
0.6 0.7499999999995931 0
0.6 0.7999999999994574 0
0.6 0.8499999999995822 0
0.6 0.8999999999997068 0
0.6 0.9499999999998534 0
1 2103 0 7
162
163
164
165
166
167
168
1 0.6499999999998645 0
1 0.6999999999997288 0
1 0.7499999999995931 0
1 0.7999999999994574 0
1 0.8499999999995822 0
1 0.8999999999997068 0
1 0.9499999999998534 0
2 3000 0 49
169
170
171
172
173
174
175
176
177
178
179
180
181
182
183
184
185
186
187
188
189
190
191
192
193
194
195
196
197
198
199
200
201
202
203
204
205
206
207
208
209
210
211
212
213
214
215
216
217
0.04999999999991318 0.04999999999991318 0
0.04999999999992477 0.09999999999981368 0
0.04999999999993436 0.1499999999997234 0
0.04999999999993783 0.1999999999996693 0
0.04999999999993437 0.2499999999997139 0
0.04999999999992478 0.2999999999997971 0
0.04999999999991318 0.3499999999998969 0
0.09999999999981371 0.04999999999992477 0
0.09999999999985155 0.09999999999985155 0
0.09999999999987483 0.1499999999997929 0
0.0999999999998826 0.1999999999997657 0
0.09999999999987486 0.2499999999997876 0
0.09999999999985154 0.2999999999998431 0
0.0999999999998137 0.3499999999999178 0
0.1499999999997234 0.04999999999993436 0
0.1499999999997929 0.09999999999987486 0
0.1499999999998309 0.1499999999998309 0
0.1499999999998429 0.1999999999998129 0
0.1499999999998309 0.2499999999998278 0
0.1499999999997929 0.2999999999998702 0
0.1499999999997234 0.3499999999999308 0
0.1999999999996693 0.04999999999993784 0
0.1999999999997657 0.0999999999998826 0
0.1999999999998129 0.1499999999998429 0
0.1999999999998273 0.1999999999998273 0
0.1999999999998129 0.2499999999998404 0
0.1999999999997656 0.2999999999998789 0
0.1999999999996693 0.3499999999999351 0
0.2499999999997139 0.04999999999993437 0
0.2499999999997876 0.09999999999987486 0
0.2499999999998278 0.1499999999998309 0
0.2499999999998405 0.1999999999998129 0
0.2499999999998277 0.2499999999998277 0
0.2499999999997876 0.2999999999998701 0
0.2499999999997139 0.3499999999999308 0
0.299999999999797 0.04999999999992478 0
0.2999999999998432 0.09999999999985157 0
0.2999999999998702 0.1499999999997929 0
0.299999999999879 0.1999999999997657 0
0.2999999999998701 0.2499999999997877 0
0.2999999999998432 0.2999999999998432 0
0.2999999999997971 0.3499999999999178 0
0.3499999999998968 0.04999999999991318 0
0.3499999999999177 0.09999999999981368 0
0.3499999999999307 0.1499999999997234 0
0.3499999999999351 0.1999999999996693 0
0.3499999999999308 0.249999999999714 0
0.3499999999999177 0.2999999999997971 0
0.3499999999998968 0.3499999999998968 0
2 3001 0 21
218
219
220
221
222
223
224
225
226
227
228
229
230
231
232
233
234
235
236
237
238
0.4499999999999375 0.04999999999989949 0
0.4499999999999674 0.09999999999978561 0
0.4499999999999815 0.1499999999996827 0
0.4499999999999856 0.1999999999996225 0
0.4499999999999816 0.2499999999996715 0
0.4499999999999675 0.2999999999997662 0
0.4499999999999374 0.3499999999998809 0
0.4999999999998959 0.04999999999989815 0
0.4999999999999507 0.09999999999979363 0
0.4999999999999733 0.1499999999997051 0
0.4999999999999795 0.1999999999996614 0
0.4999999999999733 0.2499999999996957 0
0.4999999999999508 0.2999999999997782 0
0.4999999999998959 0.349999999999885 0
0.5499999999999344 0.04999999999989951 0
0.5499999999999666 0.09999999999978562 0
0.5499999999999813 0.1499999999996827 0
0.5499999999999855 0.1999999999996225 0
0.5499999999999813 0.2499999999996715 0
0.5499999999999666 0.2999999999997662 0
0.5499999999999344 0.3499999999998809 0
2 3002 0 49
239
240
241
242
243
244
245
246
247
248
249
250
251
252
253
254
255
256
257
258
259
260
261
262
263
264
265
266
267
268
269
270
271
272
273
274
275
276
277
278
279
280
281
282
283
284
285
286
287
0.6499999999998918 0.04992123848254344 0
0.6499999999999133 0.09984251165254908 0
0.6499999999999266 0.1497638597813709 0
0.6499999999999312 0.1996853356368382 0
0.6499999999999266 0.2496070149601357 0
0.6499999999999133 0.2995290158036485 0
0.6499999999998917 0.3494515419652169 0
0.6999999999997893 0.04984268997286122 0
0.699999999999835 0.09968544330373993 0
0.6999999999998623 0.1495283330893758 0
0.6999999999998713 0.199371453628949 0
0.6999999999998622 0.2492149358892853 0
0.699999999999835 0.2990589706126954 0
0.6999999999997893 0.3489038450782972 0
0.749999999999702 0.0497643246635794 0
0.7499999999997755 0.09952873124648741 0
0.7499999999998161 0.1492933137634253 0
0.7499999999998292 0.1990581919867975 0
0.7499999999998163 0.2488235281961383 0
0.7499999999997755 0.2985895480964352 0
0.749999999999702 0.3483565650291331 0
0.7999999999996509 0.04968612293057513 0
0.799999999999749 0.09937233396942964 0
0.799999999999798 0.1490587340660062 0
0.7999999999998132 0.1987454513148719 0
0.7999999999997982 0.2484326579031189 0
0.7999999999997492 0.2981205898267056 0
0.7999999999996511 0.3478095664517405 0
0.849999999999696 0.04960807764613367 0
0.8499999999997724 0.09921623658789526 0
0.8499999999998143 0.1488245702258647 0
0.8499999999998274 0.1984331978145328 0
0.8499999999998142 0.2480422814775512 0
0.8499999999997725 0.2976520476787069 0
0.8499999999996967 0.3472628121804006 0
0.8999999999997796 0.0495301948527959 0
0.8999999999998305 0.09906045205686598 0
0.8999999999998596 0.148590843690285 0
0.8999999999998689 0.1981214631250554 0
0.8999999999998595 0.2476524408912922 0
0.8999999999998307 0.2971839687735974 0
0.8999999999997803 0.3467163384261998 0
0.9499999999998857 0.04945249291883758 0
0.9499999999999102 0.09890501963977082 0
0.9499999999999248 0.1483576195004289 0
0.9499999999999297 0.1978103443183188 0
0.9499999999999248 0.2472632691340074 0
0.9499999999999106 0.2967165124316516 0
0.9499999999998863 0.3461702821250775 0
2 3100 0 21
288
289
290
291
292
293
294
295
296
297
298
299
300
301
302
303
304
305
306
307
308
0.04999999999989935 0.4489050623366355 0
0.04999999999989783 0.4978105081695996 0
0.04999999999989935 0.5467168512561655 0
0.09999999999978475 0.4490607118568448 0
0.09999999999979248 0.4981220630410459 0
0.09999999999978494 0.5471848157049006 0
0.149999999999681 0.4492166876437556 0
0.149999999999703 0.4984341476677264 0
0.1499999999996811 0.5476532431776631 0
0.1999999999996204 0.4493728563920625 0
0.1999999999996588 0.4987465266346442 0
0.1999999999996201 0.5481219014544826 0
0.2499999999996702 0.449529179401985 0
0.2499999999996938 0.499059135318081 0
0.2499999999996698 0.5485907332601743 0
0.2999999999997656 0.4496856988045301 0
0.2999999999997772 0.4993720440939434 0
0.2999999999997651 0.5490598015866132 0
0.3499999999998808 0.4498425511354491 0
0.3499999999998846 0.499685493212686 0
0.3499999999998805 0.5495293432249889 0
2 3101 0 9
309
310
311
312
313
314
315
316
317
0.4499999999999269 0.4499999999999269 0
0.4499999999999411 0.4999999999998807 0
0.4499999999999269 0.5499999999999239 0
0.4999999999998807 0.4499999999999411 0
0.4999999999999105 0.4999999999999105 0
0.4999999999998807 0.5499999999999394 0
0.5499999999999239 0.4499999999999269 0
0.5499999999999394 0.4999999999998807 0
0.5499999999999239 0.5499999999999239 0
2 3102 0 21
318
319
320
321
322
323
324
325
326
327
328
329
330
331
332
333
334
335
336
337
338
0.6499999999998755 0.4504706567748805 0
0.64999999999988 0.5003145067871055 0
0.6499999999998757 0.5501574488644229 0
0.6999999999997577 0.4509401984133168 0
0.6999999999997689 0.5006279559059567 0
0.6999999999997577 0.5503143011954034 0
0.7499999999996577 0.4514092667397829 0
0.7499999999996806 0.5009408646818627 0
0.7499999999996578 0.5504708205979765 0
0.7999999999996008 0.4518780985454818 0
0.7999999999996387 0.5012534733653109 0
0.7999999999996004 0.5506271436079067 0
0.8499999999996508 0.452346756822294 0
0.8499999999996746 0.5015658523322164 0
0.8499999999996505 0.5507833123562049 0
0.8999999999997464 0.4528151842950299 0
0.8999999999997599 0.5018779369588514 0
0.8999999999997461 0.5509392881430861 0
0.9499999999998684 0.4532831487437071 0
0.9499999999998741 0.5021894918301835 0
0.9499999999998684 0.5510949376632295 0
2 3200 0 49
339
340
341
342
343
344
345
346
347
348
349
350
351
352
353
354
355
356
357
358
359
360
361
362
363
364
365
366
367
368
369
370
371
372
373
374
375
376
377
378
379
380
381
382
383
384
385
386
387
0.04999999999991322 0.6538297178746409 0
0.04999999999992463 0.7032834875678476 0
0.04999999999993398 0.7527367308653498 0
0.04999999999993728 0.8021896556809742 0
0.04999999999993375 0.8516423804990003 0
0.04999999999992429 0.901094980359869 0
0.04999999999991295 0.95054750708101 0
0.09999999999981364 0.6532836615735043 0
0.09999999999985107 0.7028160312259119 0
0.09999999999987402 0.7523475591081378 0
0.09999999999988154 0.8018785368744038 0
0.0999999999998737 0.8514091563093101 0
0.09999999999985053 0.9009395479429047 0
0.0999999999998131 0.9504698051471238 0
0.1499999999997227 0.6527371878193257 0
0.1499999999997918 0.7023479523208644 0
0.1499999999998296 0.7519577185219933 0
0.1499999999998415 0.8015668021850899 0
0.1499999999998294 0.8511754297739017 0
0.1499999999997915 0.9007837634120179 0
0.1499999999997225 0.9503919223538697 0
0.1999999999996679 0.6521904335480291 0
0.1999999999997641 0.7018794101729511 0
0.1999999999998113 0.7515673420965477 0
0.1999999999998257 0.801254548684896 0
0.1999999999998114 0.8509412659339038 0
0.1999999999997643 0.9006276660305998 0
0.1999999999996682 0.950313877069495 0
0.2499999999997125 0.6516434349706782 0
0.249999999999786 0.7014104519032908 0
0.2499999999998262 0.7511764718036078 0
0.249999999999839 0.8009418080130462 0
0.2499999999998265 0.8507066862365491 0
0.2499999999997866 0.9004712687535882 0
0.2499999999997132 0.9502356753365138 0
0.2999999999997959 0.6510961549215322 0
0.2999999999998418 0.7009410293870408 0
0.2999999999998689 0.7507850641104394 0
0.299999999999878 0.800628546370836 0
0.2999999999998693 0.8504716669105289 0
0.2999999999998425 0.9003145566962719 0
0.2999999999997967 0.9501573100271913 0
0.3499999999998962 0.6505484580345892 0
0.3499999999999169 0.7004709841960041 0
0.3499999999999301 0.750392985039414 0
0.3499999999999346 0.8003146643626802 0
0.3499999999999304 0.8502361402182819 0
0.3499999999999174 0.9001574883472619 0
0.3499999999998967 0.9500787615173952 0
2 3201 0 21
388
389
390
391
392
393
394
395
396
397
398
399
400
401
402
403
404
405
406
407
408
0.4499999999999374 0.6499999999998756 0
0.4499999999999676 0.6999999999997584 0
0.4499999999999817 0.7499999999996591 0
0.4499999999999857 0.7999999999996023 0
0.4499999999999816 0.849999999999652 0
0.4499999999999674 0.8999999999997471 0
0.4499999999999373 0.9499999999998688 0
0.4999999999998959 0.6499999999998802 0
0.4999999999999509 0.6999999999997698 0
0.4999999999999735 0.7499999999996821 0
0.4999999999999795 0.7999999999996408 0
0.4999999999999734 0.8499999999996767 0
0.4999999999999508 0.8999999999997613 0
0.4999999999998959 0.9499999999998746 0
0.5499999999999345 0.6499999999998757 0
0.5499999999999668 0.6999999999997584 0
0.5499999999999815 0.7499999999996589 0
0.5499999999999855 0.7999999999996023 0
0.5499999999999814 0.849999999999652 0
0.5499999999999667 0.8999999999997474 0
0.5499999999999345 0.9499999999998688 0
2 3202 0 49
409
410
411
412
413
414
415
416
417
418
419
420
421
422
423
424
425
426
427
428
429
430
431
432
433
434
435
436
437
438
439
440
441
442
443
444
445
446
447
448
449
450
451
452
453
454
455
456
457
0.649999999999892 0.649999999999892 0
0.6499999999999138 0.6999999999997899 0
0.6499999999999271 0.749999999999703 0
0.6499999999999315 0.799999999999652 0
0.6499999999999271 0.849999999999697 0
0.6499999999999136 0.8999999999997801 0
0.649999999999892 0.9499999999998858 0
0.6999999999997899 0.6499999999999138 0
0.6999999999998359 0.6999999999998359 0
0.6999999999998632 0.7499999999997766 0
0.6999999999998719 0.7999999999997504 0
0.6999999999998631 0.8499999999997735 0
0.6999999999998359 0.8999999999998312 0
0.6999999999997898 0.9499999999999106 0
0.749999999999703 0.6499999999999271 0
0.7499999999997767 0.6999999999998632 0
0.7499999999998175 0.7499999999998175 0
0.7499999999998304 0.7999999999997994 0
0.7499999999998174 0.8499999999998156 0
0.7499999999997766 0.8999999999998605 0
0.7499999999997029 0.9499999999999253 0
0.799999999999652 0.6499999999999315 0
0.7999999999997504 0.6999999999998719 0
0.7999999999997994 0.7499999999998305 0
0.7999999999998147 0.7999999999998147 0
0.7999999999997996 0.849999999999829 0
0.7999999999997504 0.8999999999998701 0
0.7999999999996519 0.9499999999999302 0
0.849999999999697 0.6499999999999271 0
0.8499999999997736 0.6999999999998631 0
0.8499999999998156 0.7499999999998174 0
0.8499999999998292 0.7999999999997994 0
0.8499999999998159 0.8499999999998158 0
0.8499999999997736 0.8999999999998607 0
0.8499999999996972 0.9499999999999255 0
0.8999999999997803 0.6499999999999138 0
0.8999999999998313 0.6999999999998359 0
0.8999999999998606 0.7499999999997766 0
0.8999999999998701 0.7999999999997504 0
0.8999999999998606 0.8499999999997735 0
0.8999999999998315 0.8999999999998313 0
0.8999999999997804 0.9499999999999108 0
0.9499999999998862 0.6499999999998919 0
0.9499999999999107 0.6999999999997898 0
0.9499999999999255 0.749999999999703 0
0.9499999999999303 0.7999999999996521 0
0.9499999999999256 0.8499999999996972 0
0.9499999999999108 0.8999999999997803 0
0.9499999999998862 0.949999999999886 0
$EndNodes
$Elements
9 400 1 400
2 3000 3 64
1 1 19 169 101 
2 101 169 170 102 
3 102 170 171 103 
4 103 171 172 104 
5 104 172 173 105 
6 105 173 174 106 
7 106 174 175 107 
8 107 175 36 5 
9 19 20 176 169 
10 169 176 177 170 
11 170 177 178 171 
12 171 178 179 172 
13 172 179 180 173 
14 173 180 181 174 
15 174 181 182 175 
16 175 182 37 36 
17 20 21 183 176 
18 176 183 184 177 
19 177 184 185 178 
20 178 185 186 179 
21 179 186 187 180 
22 180 187 188 181 
23 181 188 189 182 
24 182 189 38 37 
25 21 22 190 183 
26 183 190 191 184 
27 184 191 192 185 
28 185 192 193 186 
29 186 193 194 187 
30 187 194 195 188 
31 188 195 196 189 
32 189 196 39 38 
33 22 23 197 190 
34 190 197 198 191 
35 191 198 199 192 
36 192 199 200 193 
37 193 200 201 194 
38 194 201 202 195 
39 195 202 203 196 
40 196 203 40 39 
41 23 24 204 197 
42 197 204 205 198 
43 198 205 206 199 
44 199 206 207 200 
45 200 207 208 201 
46 201 208 209 202 
47 202 209 210 203 
48 203 210 41 40 
49 24 25 211 204 
50 204 211 212 205 
51 205 212 213 206 
52 206 213 214 207 
53 207 214 215 208 
54 208 215 216 209 
55 209 216 217 210 
56 210 217 42 41 
57 25 2 108 211 
58 211 108 109 212 
59 212 109 110 213 
60 213 110 111 214 
61 214 111 112 215 
62 215 112 113 216 
63 216 113 114 217 
64 217 114 6 42 
2 3001 3 32
65 2 26 218 108 
66 108 218 219 109 
67 109 219 220 110 
68 110 220 221 111 
69 111 221 222 112 
70 112 222 223 113 
71 113 223 224 114 
72 114 224 43 6 
73 26 27 225 218 
74 218 225 226 219 
75 219 226 227 220 
76 220 227 228 221 
77 221 228 229 222 
78 222 229 230 223 
79 223 230 231 224 
80 224 231 44 43 
81 27 28 232 225 
82 225 232 233 226 
83 226 233 234 227 
84 227 234 235 228 
85 228 235 236 229 
86 229 236 237 230 
87 230 237 238 231 
88 231 238 45 44 
89 28 3 115 232 
90 232 115 116 233 
91 233 116 117 234 
92 234 117 118 235 
93 235 118 119 236 
94 236 119 120 237 
95 237 120 121 238 
96 238 121 7 45 
2 3002 3 64
97 3 29 239 115 
98 115 239 240 116 
99 116 240 241 117 
100 117 241 242 118 
101 118 242 243 119 
102 119 243 244 120 
103 120 244 245 121 
104 121 245 73 7 
105 29 30 246 239 
106 239 246 247 240 
107 240 247 248 241 
108 241 248 249 242 
109 242 249 250 243 
110 243 250 251 244 
111 244 251 252 245 
112 245 252 74 73 
113 30 31 253 246 
114 246 253 254 247 
115 247 254 255 248 
116 248 255 256 249 
117 249 256 257 250 
118 250 257 258 251 
119 251 258 259 252 
120 252 259 75 74 
121 31 32 260 253 
122 253 260 261 254 
123 254 261 262 255 
124 255 262 263 256 
125 256 263 264 257 
126 257 264 265 258 
127 258 265 266 259 
128 259 266 76 75 
129 32 33 267 260 
130 260 267 268 261 
131 261 268 269 262 
132 262 269 270 263 
133 263 270 271 264 
134 264 271 272 265 
135 265 272 273 266 
136 266 273 77 76 
137 33 34 274 267 
138 267 274 275 268 
139 268 275 276 269 
140 269 276 277 270 
141 270 277 278 271 
142 271 278 279 272 
143 272 279 280 273 
144 273 280 78 77 
145 34 35 281 274 
146 274 281 282 275 
147 275 282 283 276 
148 276 283 284 277 
149 277 284 285 278 
150 278 285 286 279 
151 279 286 287 280 
152 280 287 79 78 
153 35 4 122 281 
154 281 122 123 282 
155 282 123 124 283 
156 283 124 125 284 
157 284 125 126 285 
158 285 126 127 286 
159 286 127 128 287 
160 287 128 15 79 
2 3100 3 32
161 5 36 288 129 
162 129 288 289 130 
163 130 289 290 131 
164 131 290 87 17 
165 36 37 291 288 
166 288 291 292 289 
167 289 292 293 290 
168 290 293 88 87 
169 37 38 294 291 
170 291 294 295 292 
171 292 295 296 293 
172 293 296 89 88 
173 38 39 297 294 
174 294 297 298 295 
175 295 298 299 296 
176 296 299 90 89 
177 39 40 300 297 
178 297 300 301 298 
179 298 301 302 299 
180 299 302 91 90 
181 40 41 303 300 
182 300 303 304 301 
183 301 304 305 302 
184 302 305 92 91 
185 41 42 306 303 
186 303 306 307 304 
187 304 307 308 305 
188 305 308 93 92 
189 42 6 132 306 
190 306 132 133 307 
191 307 133 134 308 
192 308 134 8 93 
2 3101 3 16
193 6 43 309 132 
194 132 309 310 133 
195 133 310 311 134 
196 134 311 46 8 
197 43 44 312 309 
198 309 312 313 310 
199 310 313 314 311 
200 311 314 47 46 
201 44 45 315 312 
202 312 315 316 313 
203 313 316 317 314 
204 314 317 48 47 
205 45 7 135 315 
206 315 135 136 316 
207 316 136 137 317 
208 317 137 9 48 
2 3102 3 32
209 7 80 318 135 
210 135 318 319 136 
211 136 319 320 137 
212 137 320 49 9 
213 80 81 321 318 
214 318 321 322 319 
215 319 322 323 320 
216 320 323 50 49 
217 81 82 324 321 
218 321 324 325 322 
219 322 325 326 323 
220 323 326 51 50 
221 82 83 327 324 
222 324 327 328 325 
223 325 328 329 326 
224 326 329 52 51 
225 83 84 330 327 
226 327 330 331 328 
227 328 331 332 329 
228 329 332 53 52 
229 84 85 333 330 
230 330 333 334 331 
231 331 334 335 332 
232 332 335 54 53 
233 85 86 336 333 
234 333 336 337 334 
235 334 337 338 335 
236 335 338 55 54 
237 86 16 138 336 
238 336 138 139 337 
239 337 139 140 338 
240 338 140 10 55 
2 3200 3 64
241 18 94 339 141 
242 141 339 340 142 
243 142 340 341 143 
244 143 341 342 144 
245 144 342 343 145 
246 145 343 344 146 
247 146 344 345 147 
248 147 345 56 11 
249 94 95 346 339 
250 339 346 347 340 
251 340 347 348 341 
252 341 348 349 342 
253 342 349 350 343 
254 343 350 351 344 
255 344 351 352 345 
256 345 352 57 56 
257 95 96 353 346 
258 346 353 354 347 
259 347 354 355 348 
260 348 355 356 349 
261 349 356 357 350 
262 350 357 358 351 
263 351 358 359 352 
264 352 359 58 57 
265 96 97 360 353 
266 353 360 361 354 
267 354 361 362 355 
268 355 362 363 356 
269 356 363 364 357 
270 357 364 365 358 
271 358 365 366 359 
272 359 366 59 58 
273 97 98 367 360 
274 360 367 368 361 
275 361 368 369 362 
276 362 369 370 363 
277 363 370 371 364 
278 364 371 372 365 
279 365 372 373 366 
280 366 373 60 59 
281 98 99 374 367 
282 367 374 375 368 
283 368 375 376 369 
284 369 376 377 370 
285 370 377 378 371 
286 371 378 379 372 
287 372 379 380 373 
288 373 380 61 60 
289 99 100 381 374 
290 374 381 382 375 
291 375 382 383 376 
292 376 383 384 377 
293 377 384 385 378 
294 378 385 386 379 
295 379 386 387 380 
296 380 387 62 61 
297 100 8 148 381 
298 381 148 149 382 
299 382 149 150 383 
300 383 150 151 384 
301 384 151 152 385 
302 385 152 153 386 
303 386 153 154 387 
304 387 154 12 62 
2 3201 3 32
305 8 46 388 148 
306 148 388 389 149 
307 149 389 390 150 
308 150 390 391 151 
309 151 391 392 152 
310 152 392 393 153 
311 153 393 394 154 
312 154 394 63 12 
313 46 47 395 388 
314 388 395 396 389 
315 389 396 397 390 
316 390 397 398 391 
317 391 398 399 392 
318 392 399 400 393 
319 393 400 401 394 
320 394 401 64 63 
321 47 48 402 395 
322 395 402 403 396 
323 396 403 404 397 
324 397 404 405 398 
325 398 405 406 399 
326 399 406 407 400 
327 400 407 408 401 
328 401 408 65 64 
329 48 9 155 402 
330 402 155 156 403 
331 403 156 157 404 
332 404 157 158 405 
333 405 158 159 406 
334 406 159 160 407 
335 407 160 161 408 
336 408 161 13 65 
2 3202 3 64
337 9 49 409 155 
338 155 409 410 156 
339 156 410 411 157 
340 157 411 412 158 
341 158 412 413 159 
342 159 413 414 160 
343 160 414 415 161 
344 161 415 66 13 
345 49 50 416 409 
346 409 416 417 410 
347 410 417 418 411 
348 411 418 419 412 
349 412 419 420 413 
350 413 420 421 414 
351 414 421 422 415 
352 415 422 67 66 
353 50 51 423 416 
354 416 423 424 417 
355 417 424 425 418 
356 418 425 426 419 
357 419 426 427 420 
358 420 427 428 421 
359 421 428 429 422 
360 422 429 68 67 
361 51 52 430 423 
362 423 430 431 424 
363 424 431 432 425 
364 425 432 433 426 
365 426 433 434 427 
366 427 434 435 428 
367 428 435 436 429 
368 429 436 69 68 
369 52 53 437 430 
370 430 437 438 431 
371 431 438 439 432 
372 432 439 440 433 
373 433 440 441 434 
374 434 441 442 435 
375 435 442 443 436 
376 436 443 70 69 
377 53 54 444 437 
378 437 444 445 438 
379 438 445 446 439 
380 439 446 447 440 
381 440 447 448 441 
382 441 448 449 442 
383 442 449 450 443 
384 443 450 71 70 
385 54 55 451 444 
386 444 451 452 445 
387 445 452 453 446 
388 446 453 454 447 
389 447 454 455 448 
390 448 455 456 449 
391 449 456 457 450 
392 450 457 72 71 
393 55 10 162 451 
394 451 162 163 452 
395 452 163 164 453 
396 453 164 165 454 
397 454 165 166 455 
398 455 166 167 456 
399 456 167 168 457 
400 457 168 14 72 
$EndElements
