$MeshFormat
4.1 0 8
$EndMeshFormat
$PhysicalNames
1
2 1 "materialID"
$EndPhysicalNames
$Entities
18 26 9 0
100 0 0 0 0 
101 0.3 0 0 0 
102 0.7 0 0 0 
103 1 0 0 0 
200 0 0.45 0 0 
201 0.3 0.45 0 0 
202 0.7 0.45 0 0 
301 0.3 0.55 0 0 
302 0.7 0.55 0 0 
303 1 0.55 0 0 
400 0 1 0 0 
401 0.3 1 0 0 
402 0.7 1 0 0 
403 1 1 0 0 
900 1 0.445 0 0 
901 1 0.455 0 0 
902 0 0.545 0 0 
903 0 0.555 0 0 
1000 0 0 0 0.3 0 0 0 2 100 -101 
1001 0.3 0 0 0.7 0 0 0 2 101 -102 
1002 0.7 0 0 1 0 0 0 2 102 -103 
1100 0 0.45 0 0.3 0.45 0 0 2 200 -201 
1101 0.3 0.45 0 0.7 0.45 0 0 2 201 -202 
1201 0.3 0.55 0 0.7 0.55 0 0 2 301 -302 
1202 0.7 0.55 0 1 0.55 0 0 2 302 -303 
1300 0 1 0 0.3 1 0 0 2 400 -401 
1301 0.3 1 0 0.7 1 0 0 2 401 -402 
1302 0.7 1 0 1 1 0 0 2 402 -403 
1800 0.7 0.445 0 1 0.45 0 0 2 202 -900 
1801 0.7 0.45 0 1 0.455 0 0 2 202 -901 
1810 0 0.545 0 0.3 0.55 0 0 2 902 -301 
1811 0 0.55 0 0.3 0.555 0 0 2 903 -301 
1900 0 0 0 0 0.45 0 0 2 100 -200 
1901 0.3 0 0 0.3 0.45 0 0 2 101 -201 
1902 0.7 0 0 0.7 0.45 0 0 2 102 -202 
1903 1 0 0 1 0.445 0 0 2 103 -900 
2000 0 0.45 0 0 0.545 0 0 2 200 -902 
2001 0.3 0.45 0 0.3 0.55 0 0 2 201 -301 
2002 0.7 0.45 0 0.7 0.55 0 0 2 202 -302 
2003 1 0.455 0 1 0.55 0 0 2 901 -303 
2100 0 0.555 0 0 1 0 0 2 903 -400 
2101 0.3 0.55 0 0.3 1 0 0 2 301 -401 
2102 0.7 0.55 0 0.7 1 0 0 2 302 -402 
2103 1 0.55 0 1 1 0 0 2 303 -403 
3000 0 0 0 0.3 0.45 0 1 1 4 1000 1901 -1100 -1900 
3001 0.3 0 0 0.7 0.45 0 1 1 4 1001 1902 -1101 -1901 
3002 0.7 0 0 1 0.45 0 1 1 4 1002 1903 -1800 -1902 
3100 0 0.45 0 0.3 0.55 0 1 1 4 1100 2001 -1810 -2000 
3101 0.3 0.45 0 0.7 0.55 0 1 1 4 1101 2002 -1201 -2001 
3102 0.7 0.45 0 1 0.55 0 1 1 4 1801 2003 -1202 -2002 
3200 0 0.55 0 0.3 1 0 1 1 4 1811 2101 -1300 -2100 
3201 0.3 0.55 0 0.7 1 0 1 1 4 1201 2102 -1301 -2101 
3202 0.7 0.55 0 1 1 0 1 1 4 1202 2103 -1302 -2102 
$EndEntities
$Nodes
53 474 1 474
0 100 0 1
1
0 0 0
0 101 0 1
2
0.3 0 0
0 102 0 1
3
0.7 0 0
0 103 0 1
4
1 0 0
0 200 0 1
5
0 0.45 0
0 201 0 1
6
0.3 0.45 0
0 202 0 1
7
0.7 0.45 0
0 301 0 1
8
0.3 0.55 0
0 302 0 1
9
0.7 0.55 0
0 303 0 1
10
1 0.55 0
0 400 0 1
11
0 1 0
0 401 0 1
12
0.3 1 0
0 402 0 1
13
0.7 1 0
0 403 0 1
14
1 1 0
0 900 0 1
15
1 0.445 0
0 901 0 1
16
1 0.455 0
0 902 0 1
17
0 0.545 0
0 903 0 1
18
0 0.555 0
1 1000 0 5
19
20
21
22
23
0.04999999999989675 0 0
0.0999999999997538 0 0
0.149999999999619 0 0
0.1999999999997478 0 0
0.249999999999873 0 0
1 1001 0 7
24
25
26
27
28
29
30
0.3499999999999349 0 0
0.399999999999783 0 0
0.4499999999996312 0 0
0.4999999999995011 0 0
0.5499999999996312 0 0
0.5999999999997396 0 0
0.6499999999998698 0 0
1 1002 0 5
31
32
33
34
35
0.7499999999999348 0 0
0.799999999999819 0 0
0.849999999999826 0 0
0.8999999999998334 0 0
0.9499999999999709 0 0
1 1100 0 5
36
37
38
39
40
0.04999999999989675 0.45 0
0.0999999999997538 0.45 0
0.149999999999619 0.45 0
0.1999999999997478 0.45 0
0.249999999999873 0.45 0
1 1101 0 7
41
42
43
44
45
46
47
0.3499999999999349 0.45 0
0.399999999999783 0.45 0
0.4499999999996312 0.45 0
0.4999999999995011 0.45 0
0.5499999999996312 0.45 0
0.5999999999997396 0.45 0
0.6499999999998698 0.45 0
1 1201 0 7
48
49
50
51
52
53
54
0.3499999999999349 0.55 0
0.399999999999783 0.55 0
0.4499999999996312 0.55 0
0.4999999999995011 0.55 0
0.5499999999996312 0.55 0
0.5999999999997396 0.55 0
0.6499999999998698 0.55 0
1 1202 0 5
55
56
57
58
59
0.7499999999999348 0.55 0
0.799999999999819 0.55 0
0.849999999999826 0.55 0
0.8999999999998334 0.55 0
0.9499999999999709 0.55 0
1 1300 0 5
60
61
62
63
64
0.04999999999989675 1 0
0.0999999999997538 1 0
0.149999999999619 1 0
0.1999999999997478 1 0
0.249999999999873 1 0
1 1301 0 7
65
66
67
68
69
70
71
0.3499999999999349 1 0
0.399999999999783 1 0
0.4499999999996312 1 0
0.4999999999995011 1 0
0.5499999999996312 1 0
0.5999999999997396 1 0
0.6499999999998698 1 0
1 1302 0 5
72
73
74
75
76
0.7499999999999348 1 0
0.799999999999819 1 0
0.849999999999826 1 0
0.8999999999998334 1 0
0.9499999999999709 1 0
1 1800 0 5
77
78
79
80
81
0.7499999999999347 0.4491666666666678 0
0.7999999999998194 0.4483333333333364 0
0.8499999999998264 0.4475000000000029 0
0.8999999999998337 0.4466666666666694 0
0.9499999999999713 0.4458333333333338 0
1 1801 0 5
82
83
84
85
86
0.7499999999999347 0.4508333333333323 0
0.7999999999998194 0.4516666666666637 0
0.8499999999998264 0.4524999999999971 0
0.8999999999998337 0.4533333333333306 0
0.9499999999999713 0.4541666666666662 0
1 1810 0 5
87
88
89
90
91
0.04999999999989623 0.5458333333333316 0
0.09999999999975305 0.5466666666666626 0
0.1499999999996184 0.5474999999999937 0
0.1999999999997475 0.5483333333333291 0
0.2499999999998726 0.5491666666666646 0
1 1811 0 5
92
93
94
95
96
0.04999999999989623 0.5541666666666685 0
0.09999999999975305 0.5533333333333375 0
0.1499999999996184 0.5525000000000064 0
0.1999999999997475 0.551666666666671 0
0.2499999999998726 0.5508333333333355 0
1 1900 0 8
97
98
99
100
101
102
103
104
0 0.04999999999991076 0
0 0.099999999999775 0
0 0.1499999999996296 0
0 0.1999999999994842 0
0 0.2499999999994708 0
0 0.2999999999996076 0
0 0.3499999999997384 0
0 0.3999999999998692 0
1 1901 0 8
105
106
107
108
109
110
111
112
0.3 0.04999999999991076 0
0.3 0.099999999999775 0
0.3 0.1499999999996296 0
0.3 0.1999999999994842 0
0.3 0.2499999999994708 0
0.3 0.2999999999996076 0
0.3 0.3499999999997384 0
0.3 0.3999999999998692 0
1 1902 0 8
113
114
115
116
117
118
119
120
0.7 0.04999999999991076 0
0.7 0.099999999999775 0
0.7 0.1499999999996296 0
0.7 0.1999999999994842 0
0.7 0.2499999999994708 0
0.7 0.2999999999996076 0
0.7 0.3499999999997384 0
0.7 0.3999999999998692 0
1 1903 0 8
121
122
123
124
125
126
127
128
1 0.04944444444436234 0
1 0.09888888888867603 0
1 0.148333333332967 0
1 0.1977777777772784 0
1 0.2472222222217218 0
1 0.2966666666662063 0
1 0.3461111111108525 0
1 0.3955555555553997 0
1 2000 0 2
129
130
0 0.4816666666666088 0
0 0.5133333333332393 0
1 2001 0 2
131
132
0.3 0.4833333333333154 0
0.3 0.5166666666666957 0
1 2002 0 2
133
134
0.7 0.4833333333333154 0
0.7 0.5166666666666957 0
1 2003 0 2
135
136
1 0.4866666666666015 0
1 0.5183333333332537 0
1 2100 0 8
137
138
139
140
141
142
143
144
0 0.6044444444443506 0
0 0.6538888888885928 0
0 0.7033333333329649 0
0 0.7527777777772311 0
0 0.8022222222216491 0
0 0.851666666666291 0
0 0.9011111111108872 0
0 0.9505555555554015 0
1 2101 0 8
145
146
147
148
149
150
151
152
0.3 0.5999999999998242 0
0.3 0.6499999999996605 0
0.3 0.6999999999995016 0
0.3 0.7499999999994292 0
0.3 0.799999999999487 0
0.3 0.8499999999996677 0
0.3 0.8999999999998314 0
0.3 0.9499999999999157 0
1 2102 0 8
153
154
155
156
157
158
159
160
0.7 0.5999999999998242 0
0.7 0.6499999999996605 0
0.7 0.6999999999995016 0
0.7 0.7499999999994292 0
0.7 0.799999999999487 0
0.7 0.8499999999996677 0
0.7 0.8999999999998314 0
0.7 0.9499999999999157 0
1 2103 0 8
161
162
163
164
165
166
167
168
1 0.5999999999998242 0
1 0.6499999999996605 0
1 0.6999999999995016 0
1 0.7499999999994292 0
1 0.799999999999487 0
1 0.8499999999996677 0
1 0.8999999999998314 0
1 0.9499999999999157 0
2 3000 0 40
169
170
171
172
173
174
175
176
177
178
179
180
181
182
183
184
185
186
187
188
189
190
191
192
193
194
195
196
197
198
199
200
201
202
203
204
205
206
207
208
0.049999999999921 0.04999999999990427 0
0.04999999999994531 0.09999999999979836 0
0.04999999999996135 0.1499999999996969 0
0.04999999999996897 0.199999999999621 0
0.04999999999996896 0.2499999999996146 0
0.04999999999996135 0.2999999999996823 0
0.04999999999994532 0.349999999999778 0
0.04999999999992101 0.3999999999998866 0
0.09999999999984194 0.0499999999999079 0
0.09999999999989891 0.09999999999981732 0
0.09999999999993116 0.1499999999997388 0
0.09999999999994552 0.1999999999996882 0
0.09999999999994551 0.2499999999996843 0
0.09999999999993114 0.299999999999729 0
0.09999999999989891 0.349999999999805 0
0.09999999999984195 0.3999999999998986 0
0.1499999999997941 0.04999999999991004 0
0.1499999999998772 0.09999999999982433 0
0.1499999999999188 0.1499999999997526 0
0.1499999999999365 0.1999999999997086 0
0.1499999999999365 0.2499999999997053 0
0.1499999999999188 0.2999999999997444 0
0.1499999999998772 0.3499999999998143 0
0.149999999999794 0.3999999999999029 0
0.1999999999998381 0.0499999999999079 0
0.1999999999998971 0.09999999999981735 0
0.1999999999999304 0.1499999999997387 0
0.1999999999999451 0.1999999999996881 0
0.1999999999999451 0.2499999999996843 0
0.1999999999999304 0.299999999999729 0
0.1999999999998971 0.349999999999805 0
0.1999999999998381 0.3999999999998985 0
0.2499999999999134 0.04999999999990428 0
0.2499999999999427 0.0999999999997984 0
0.2499999999999604 0.1499999999996969 0
0.2499999999999685 0.1999999999996209 0
0.2499999999999685 0.2499999999996146 0
0.2499999999999604 0.2999999999996824 0
0.2499999999999427 0.349999999999778 0
0.2499999999999134 0.3999999999998864 0
2 3001 0 56
209
210
211
212
213
214
215
216
217
218
219
220
221
222
223
224
225
226
227
228
229
230
231
232
233
234
235
236
237
238
239
240
241
242
243
244
245
246
247
248
249
250
251
252
253
254
255
256
257
258
259
260
261
262
263
264
0.3499999999999243 0.04999999999990953 0
0.3499999999999338 0.09999999999980866 0
0.3499999999999441 0.1499999999997114 0
0.3499999999999497 0.199999999999638 0
0.3499999999999497 0.2499999999996319 0
0.349999999999944 0.2999999999996975 0
0.3499999999999337 0.349999999999789 0
0.3499999999999244 0.3999999999998923 0
0.3999999999998288 0.04999999999991872 0
0.3999999999998669 0.09999999999983875 0
0.3999999999998926 0.1499999999997693 0
0.3999999999999052 0.1999999999997245 0
0.3999999999999052 0.2499999999997213 0
0.3999999999998925 0.2999999999997611 0
0.3999999999998667 0.3499999999998282 0
0.3999999999998288 0.3999999999999106 0
0.4499999999997408 0.0499999999999266 0
0.4499999999998123 0.09999999999985822 0
0.4499999999998542 0.1499999999998027 0
0.4499999999998734 0.1999999999997696 0
0.4499999999998734 0.2499999999997675 0
0.4499999999998541 0.2999999999997974 0
0.4499999999998123 0.3499999999998519 0
0.4499999999997408 0.3999999999999222 0
0.4999999999996909 0.04999999999992952 0
0.4999999999997872 0.09999999999986485 0
0.4999999999998383 0.1499999999998135 0
0.4999999999998611 0.1999999999997837 0
0.4999999999998611 0.249999999999782 0
0.4999999999998384 0.2999999999998091 0
0.4999999999997872 0.3499999999998597 0
0.4999999999996909 0.399999999999926 0
0.5499999999997343 0.04999999999992661 0
0.5499999999998073 0.0999999999998582 0
0.5499999999998511 0.1499999999998027 0
0.5499999999998714 0.1999999999997696 0
0.5499999999998714 0.2499999999997675 0
0.5499999999998511 0.2999999999997973 0
0.5499999999998073 0.3499999999998518 0
0.5499999999997344 0.3999999999999221 0
0.5999999999998077 0.04999999999991873 0
0.5999999999998568 0.09999999999983873 0
0.5999999999998873 0.1499999999997693 0
0.5999999999999019 0.1999999999997245 0
0.5999999999999019 0.2499999999997212 0
0.5999999999998873 0.299999999999761 0
0.5999999999998566 0.3499999999998281 0
0.5999999999998078 0.3999999999999106 0
0.6499999999999003 0.04999999999990954 0
0.6499999999999242 0.09999999999980867 0
0.6499999999999397 0.1499999999997114 0
0.6499999999999472 0.199999999999638 0
0.6499999999999473 0.2499999999996319 0
0.6499999999999396 0.2999999999996973 0
0.6499999999999241 0.349999999999789 0
0.6499999999999004 0.3999999999998921 0
2 3002 0 40
265
266
267
268
269
270
271
272
273
274
275
276
277
278
279
280
281
282
283
284
285
286
287
288
289
290
291
292
293
294
295
296
297
298
299
300
301
302
303
304
0.7499999999999504 0.04990662096576327 0
0.7499999999999666 0.09981326299134405 0
0.749999999999977 0.1497199527685752 0
0.7499999999999817 0.1996267298120692 0
0.7499999999999817 0.2495336573339239 0
0.749999999999977 0.2994408405567002 0
0.7499999999999666 0.3493484607956144 0
0.74999999999995 0.3992568481302834 0
0.7999999999998998 0.04981356897458129 0
0.7999999999999394 0.09962717412664104 0
0.7999999999999594 0.1494408612182011 0
0.7999999999999683 0.1992546976897345 0
0.7999999999999683 0.2490687903950953 0
0.7999999999999597 0.2988833134519048 0
0.7999999999999395 0.3486985528098958 0
0.7999999999998997 0.3985149762611358 0
0.8499999999998912 0.04972082700124199 0
0.8499999999999317 0.09944169547751179 0
0.8499999999999538 0.1491626578489908 0
0.8499999999999638 0.198883791240288 0
0.8499999999999639 0.2486052174500795 0
0.8499999999999543 0.298327133547084 0
0.8499999999999319 0.348049858140344 0
0.8499999999998914 0.3977738952526912 0
0.8999999999999072 0.04962838793161944 0
0.8999999999999428 0.09925681156946559 0
0.8999999999999611 0.1488853160801496 0
0.899999999999969 0.1985139680805442 0
0.899999999999969 0.248142873373512 0
0.8999999999999614 0.2977722051740041 0
0.8999999999999431 0.3474022501025487 0
0.8999999999999078 0.3970334818526176 0
0.9499999999999622 0.04953625585426495 0
0.949999999999971 0.09907253220809245 0
0.9499999999999788 0.1486088550329343 0
0.9499999999999824 0.1981452628099553 0
0.9499999999999825 0.2476818173305268 0
0.9499999999999786 0.2972186222949288 0
0.9499999999999712 0.3467558589317897 0
0.9499999999999628 0.3962938641347785 0
2 3100 0 10
305
306
307
308
309
310
311
312
313
314
0.04999999999989129 0.48194248576624 0
0.04999999999989117 0.5138863402527263 0
0.09999999999976956 0.4822197472951966 0
0.09999999999976944 0.5144413132129132 0
0.1499999999996864 0.4824974103142147 0
0.1499999999996863 0.5149967434486318 0
0.1999999999997634 0.4827752698012255 0
0.1999999999997632 0.5155523833138039 0
0.2499999999998769 0.4830535546805002 0
0.2499999999998768 0.5161085119370283 0
2 3101 0 14
315
316
317
318
319
320
321
322
323
324
325
326
327
328
0.3499999999999145 0.4833333333333319 0
0.3499999999999145 0.5166666666666707 0
0.3999999999997833 0.4833333333333333 0
0.3999999999997833 0.5166666666666674 0
0.4499999999996527 0.4833333333333334 0
0.4499999999996527 0.5166666666666668 0
0.4999999999995705 0.4833333333333334 0
0.4999999999995705 0.5166666666666667 0
0.5499999999996447 0.4833333333333333 0
0.5499999999996446 0.5166666666666668 0
0.5999999999997485 0.4833333333333334 0
0.5999999999997485 0.5166666666666674 0
0.649999999999872 0.4833333333333321 0
0.6499999999998719 0.5166666666666708 0
2 3102 0 10
329
330
331
332
333
334
335
336
337
338
0.7499999999999302 0.4838914880629722 0
0.7499999999999301 0.5169464453195014 0
0.7999999999998496 0.484447616686192 0
0.7999999999998495 0.5172247301987725 0
0.84999999999984 0.4850032565513612 0
0.8499999999998397 0.5175025896857809 0
0.8999999999998622 0.4855586867870741 0
0.899999999999862 0.5177802527047931 0
0.949999999999953 0.4861136597472353 0
0.949999999999953 0.5180575142337247 0
2 3200 0 40
339
340
341
342
343
344
345
346
347
348
349
350
351
352
353
354
355
356
357
358
359
360
361
362
363
364
365
366
367
368
369
370
371
372
373
374
375
376
377
378
0.04999999999992107 0.6037061358649919 0
0.04999999999994528 0.6532441410677479 0
0.04999999999996116 0.7027813777044128 0
0.04999999999996863 0.7523181826686919 0
0.04999999999996854 0.8018547371892697 0
0.04999999999996086 0.8513911449664533 0
0.04999999999994484 0.9009274677915022 0
0.04999999999992068 0.950463744145528 0
0.09999999999984169 0.6029665181471742 0
0.09999999999989849 0.6525977498970458 0
0.0999999999999306 0.7022277948254358 0
0.0999999999999449 0.7518571266258437 0
0.09999999999994484 0.8014860319188228 0
0.09999999999993037 0.8511146839193249 0
0.0999999999998981 0.900743188430169 0
0.09999999999984131 0.9503716120681939 0
0.149999999999793 0.6022261047471069 0
0.1499999999998762 0.6519501418592667 0
0.1499999999999179 0.7016728664523855 0
0.1499999999999356 0.7513947825493181 0
0.1499999999999357 0.8011162087591246 0
0.149999999999918 0.8508373421505173 0
0.1499999999998764 0.9005583045221428 0
0.1499999999997934 0.9502791729985819 0
0.1999999999998368 0.6014850237386477 0
0.1999999999998959 0.6513014471896875 0
0.1999999999999294 0.7011166865475249 0
0.1999999999999444 0.7509312096042566 0
0.1999999999999446 0.8007453023096404 0
0.1999999999999298 0.8505591387812864 0
0.1999999999998966 0.9003728258730073 0
0.1999999999998378 0.9501864310252427 0
0.2499999999999125 0.6007431518694639 0
0.2499999999999419 0.6506515392038962 0
0.2499999999999598 0.700559159442613 0
0.2499999999999681 0.7504663426652789 0
0.2499999999999682 0.800373270187173 0
0.2499999999999602 0.8502800472308387 0
0.2499999999999426 0.900186737008279 0
0.2499999999999134 0.950093379034056 0
2 3201 0 56
379
380
381
382
383
384
385
386
387
388
389
390
391
392
393
394
395
396
397
398
399
400
401
402
403
404
405
406
407
408
409
410
411
412
413
414
415
416
417
418
419
420
421
422
423
424
425
426
427
428
429
430
431
432
433
434
0.3499999999999244 0.5999999999998649 0
0.3499999999999338 0.6499999999997419 0
0.349999999999944 0.6999999999996432 0
0.3499999999999497 0.7499999999996009 0
0.3499999999999497 0.7999999999996321 0
0.349999999999944 0.8499999999997256 0
0.3499999999999338 0.8999999999998303 0
0.3499999999999244 0.9499999999999171 0
0.3999999999998287 0.5999999999998935 0
0.3999999999998667 0.649999999999799 0
0.3999999999998924 0.699999999999729 0
0.3999999999999053 0.7499999999996989 0
0.3999999999999053 0.7999999999997158 0
0.3999999999998926 0.8499999999997723 0
0.3999999999998669 0.8999999999998465 0
0.3999999999998288 0.9499999999999229 0
0.4499999999997407 0.5999999999999102 0
0.4499999999998122 0.6499999999998316 0
0.4499999999998542 0.699999999999775 0
0.4499999999998736 0.74999999999975 0
0.4499999999998735 0.7999999999997603 0
0.4499999999998542 0.8499999999998007 0
0.4499999999998122 0.8999999999998602 0
0.4499999999997407 0.9499999999999283 0
0.4999999999996907 0.5999999999999156 0
0.4999999999997871 0.649999999999842 0
0.4999999999998383 0.6999999999997895 0
0.4999999999998611 0.7499999999997659 0
0.4999999999998611 0.7999999999997742 0
0.4999999999998384 0.8499999999998102 0
0.4999999999997872 0.8999999999998654 0
0.4999999999996909 0.9499999999999306 0
0.5499999999997341 0.5999999999999102 0
0.5499999999998072 0.6499999999998316 0
0.5499999999998511 0.699999999999775 0
0.5499999999998714 0.7499999999997501 0
0.5499999999998715 0.7999999999997603 0
0.5499999999998513 0.8499999999998008 0
0.5499999999998073 0.89999999999986 0
0.5499999999997343 0.9499999999999282 0
0.5999999999998077 0.5999999999998935 0
0.5999999999998566 0.6499999999997991 0
0.5999999999998873 0.6999999999997292 0
0.5999999999999018 0.7499999999996989 0
0.5999999999999019 0.7999999999997159 0
0.5999999999998874 0.8499999999997723 0
0.5999999999998566 0.8999999999998464 0
0.5999999999998077 0.9499999999999229 0
0.6499999999999003 0.599999999999865 0
0.6499999999999242 0.6499999999997421 0
0.6499999999999396 0.6999999999996435 0
0.6499999999999472 0.749999999999601 0
0.6499999999999473 0.7999999999996323 0
0.6499999999999397 0.8499999999997255 0
0.6499999999999242 0.8999999999998302 0
0.6499999999999003 0.9499999999999171 0
2 3202 0 40
435
436
437
438
439
440
441
442
443
444
445
446
447
448
449
450
451
452
453
454
455
456
457
458
459
460
461
462
463
464
465
466
467
468
469
470
471
472
473
474
0.7499999999999504 0.599999999999858 0
0.7499999999999668 0.6499999999997289 0
0.7499999999999771 0.6999999999996263 0
0.7499999999999819 0.7499999999995824 0
0.749999999999982 0.7999999999996149 0
0.7499999999999772 0.8499999999997113 0
0.7499999999999669 0.8999999999998205 0
0.7499999999999505 0.9499999999999122 0
0.7999999999999001 0.5999999999998789 0
0.7999999999999399 0.6499999999997714 0
0.7999999999999599 0.6999999999996924 0
0.7999999999999687 0.7499999999996589 0
0.799999999999969 0.7999999999996785 0
0.79999999999996 0.8499999999997424 0
0.7999999999999399 0.8999999999998266 0
0.7999999999999002 0.9499999999999135 0
0.8499999999998915 0.5999999999998858 0
0.8499999999999324 0.6499999999997854 0
0.8499999999999546 0.6999999999997131 0
0.8499999999999642 0.7499999999996823 0
0.8499999999999642 0.7999999999996983 0
0.8499999999999543 0.8499999999997533 0
0.8499999999999323 0.8999999999998303 0
0.8499999999998914 0.9499999999999142 0
0.8999999999999078 0.599999999999879 0
0.8999999999999432 0.6499999999997715 0
0.8999999999999616 0.6999999999996926 0
0.8999999999999696 0.7499999999996591 0
0.8999999999999694 0.7999999999996785 0
0.8999999999999614 0.8499999999997424 0
0.8999999999999431 0.8999999999998267 0
0.8999999999999074 0.9499999999999134 0
0.9499999999999624 0.5999999999998581 0
0.949999999999971 0.6499999999997291 0
0.949999999999979 0.6999999999996265 0
0.949999999999983 0.7499999999995826 0
0.9499999999999829 0.7999999999996149 0
0.9499999999999788 0.8499999999997113 0
0.949999999999971 0.8999999999998203 0
0.9499999999999623 0.9499999999999124 0
$EndNodes
$Elements
9 420 1 420
2 3000 3 54
1 1 19 169 97 
2 97 169 170 98 
3 98 170 171 99 
4 99 171 172 100 
5 100 172 173 101 
6 101 173 174 102 
7 102 174 175 103 
8 103 175 176 104 
9 104 176 36 5 
10 19 20 177 169 
11 169 177 178 170 
12 170 178 179 171 
13 171 179 180 172 
14 172 180 181 173 
15 173 181 182 174 
16 174 182 183 175 
17 175 183 184 176 
18 176 184 37 36 
19 20 21 185 177 
20 177 185 186 178 
21 178 186 187 179 
22 179 187 188 180 
23 180 188 189 181 
24 181 189 190 182 
25 182 190 191 183 
26 183 191 192 184 
27 184 192 38 37 
28 21 22 193 185 
29 185 193 194 186 
30 186 194 195 187 
31 187 195 196 188 
32 188 196 197 189 
33 189 197 198 190 
34 190 198 199 191 
35 191 199 200 192 
36 192 200 39 38 
37 22 23 201 193 
38 193 201 202 194 
39 194 202 203 195 
40 195 203 204 196 
41 196 204 205 197 
42 197 205 206 198 
43 198 206 207 199 
44 199 207 208 200 
45 200 208 40 39 
46 23 2 105 201 
47 201 105 106 202 
48 202 106 107 203 
49 203 107 108 204 
50 204 108 109 205 
51 205 109 110 206 
52 206 110 111 207 
53 207 111 112 208 
54 208 112 6 40 
2 3001 3 72
55 2 24 209 105 
56 105 209 210 106 
57 106 210 211 107 
58 107 211 212 108 
59 108 212 213 109 
60 109 213 214 110 
61 110 214 215 111 
62 111 215 216 112 
63 112 216 41 6 
64 24 25 217 209 
65 209 217 218 210 
66 210 218 219 211 
67 211 219 220 212 
68 212 220 221 213 
69 213 221 222 214 
70 214 222 223 215 
71 215 223 224 216 
72 216 224 42 41 
73 25 26 225 217 
74 217 225 226 218 
75 218 226 227 219 
76 219 227 228 220 
77 220 228 229 221 
78 221 229 230 222 
79 222 230 231 223 
80 223 231 232 224 
81 224 232 43 42 
82 26 27 233 225 
83 225 233 234 226 
84 226 234 235 227 
85 227 235 236 228 
86 228 236 237 229 
87 229 237 238 230 
88 230 238 239 231 
89 231 239 240 232 
90 232 240 44 43 
91 27 28 241 233 
92 233 241 242 234 
93 234 242 243 235 
94 235 243 244 236 
95 236 244 245 237 
96 237 245 246 238 
97 238 246 247 239 
98 239 247 248 240 
99 240 248 45 44 
100 28 29 249 241 
101 241 249 250 242 
102 242 250 251 243 
103 243 251 252 244 
104 244 252 253 245 
105 245 253 254 246 
106 246 254 255 247 
107 247 255 256 248 
108 248 256 46 45 
109 29 30 257 249 
110 249 257 258 250 
111 250 258 259 251 
112 251 259 260 252 
113 252 260 261 253 
114 253 261 262 254 
115 254 262 263 255 
116 255 263 264 256 
117 256 264 47 46 
118 30 3 113 257 
119 257 113 114 258 
120 258 114 115 259 
121 259 115 116 260 
122 260 116 117 261 
123 261 117 118 262 
124 262 118 119 263 
125 263 119 120 264 
126 264 120 7 47 
2 3002 3 54
127 3 31 265 113 
128 113 265 266 114 
129 114 266 267 115 
130 115 267 268 116 
131 116 268 269 117 
132 117 269 270 118 
133 118 270 271 119 
134 119 271 272 120 
135 120 272 77 7 
136 31 32 273 265 
137 265 273 274 266 
138 266 274 275 267 
139 267 275 276 268 
140 268 276 277 269 
141 269 277 278 270 
142 270 278 279 271 
143 271 279 280 272 
144 272 280 78 77 
145 32 33 281 273 
146 273 281 282 274 
147 274 282 283 275 
148 275 283 284 276 
149 276 284 285 277 
150 277 285 286 278 
151 278 286 287 279 
152 279 287 288 280 
153 280 288 79 78 
154 33 34 289 281 
155 281 289 290 282 
156 282 290 291 283 
157 283 291 292 284 
158 284 292 293 285 
159 285 293 294 286 
160 286 294 295 287 
161 287 295 296 288 
162 288 296 80 79 
163 34 35 297 289 
164 289 297 298 290 
165 290 298 299 291 
166 291 299 300 292 
167 292 300 301 293 
168 293 301 302 294 
169 294 302 303 295 
170 295 303 304 296 
171 296 304 81 80 
172 35 4 121 297 
173 297 121 122 298 
174 298 122 123 299 
175 299 123 124 300 
176 300 124 125 301 
177 301 125 126 302 
178 302 126 127 303 
179 303 127 128 304 
180 304 128 15 81 
2 3100 3 18
181 5 36 305 129 
182 129 305 306 130 
183 130 306 87 17 
184 36 37 307 305 
185 305 307 308 306 
186 306 308 88 87 
187 37 38 309 307 
188 307 309 310 308 
189 308 310 89 88 
190 38 39 311 309 
191 309 311 312 310 
192 310 312 90 89 
193 39 40 313 311 
194 311 313 314 312 
195 312 314 91 90 
196 40 6 131 313 
197 313 131 132 314 
198 314 132 8 91 
2 3101 3 24
199 6 41 315 131 
200 131 315 316 132 
201 132 316 48 8 
202 41 42 317 315 
203 315 317 318 316 
204 316 318 49 48 
205 42 43 319 317 
206 317 319 320 318 
207 318 320 50 49 
208 43 44 321 319 
209 319 321 322 320 
210 320 322 51 50 
211 44 45 323 321 
212 321 323 324 322 
213 322 324 52 51 
214 45 46 325 323 
215 323 325 326 324 
216 324 326 53 52 
217 46 47 327 325 
218 325 327 328 326 
219 326 328 54 53 
220 47 7 133 327 
221 327 133 134 328 
222 328 134 9 54 
2 3102 3 18
223 7 82 329 133 
224 133 329 330 134 
225 134 330 55 9 
226 82 83 331 329 
227 329 331 332 330 
228 330 332 56 55 
229 83 84 333 331 
230 331 333 334 332 
231 332 334 57 56 
232 84 85 335 333 
233 333 335 336 334 
234 334 336 58 57 
235 85 86 337 335 
236 335 337 338 336 
237 336 338 59 58 
238 86 16 135 337 
239 337 135 136 338 
240 338 136 10 59 
2 3200 3 54
241 18 92 339 137 
242 137 339 340 138 
243 138 340 341 139 
244 139 341 342 140 
245 140 342 343 141 
246 141 343 344 142 
247 142 344 345 143 
248 143 345 346 144 
249 144 346 60 11 
250 92 93 347 339 
251 339 347 348 340 
252 340 348 349 341 
253 341 349 350 342 
254 342 350 351 343 
255 343 351 352 344 
256 344 352 353 345 
257 345 353 354 346 
258 346 354 61 60 
259 93 94 355 347 
260 347 355 356 348 
261 348 356 357 349 
262 349 357 358 350 
263 350 358 359 351 
264 351 359 360 352 
265 352 360 361 353 
266 353 361 362 354 
267 354 362 62 61 
268 94 95 363 355 
269 355 363 364 356 
270 356 364 365 357 
271 357 365 366 358 
272 358 366 367 359 
273 359 367 368 360 
274 360 368 369 361 
275 361 369 370 362 
276 362 370 63 62 
277 95 96 371 363 
278 363 371 372 364 
279 364 372 373 365 
280 365 373 374 366 
281 366 374 375 367 
282 367 375 376 368 
283 368 376 377 369 
284 369 377 378 370 
285 370 378 64 63 
286 96 8 145 371 
287 371 145 146 372 
288 372 146 147 373 
289 373 147 148 374 
290 374 148 149 375 
291 375 149 150 376 
292 376 150 151 377 
293 377 151 152 378 
294 378 152 12 64 
2 3201 3 72
295 8 48 379 145 
296 145 379 380 146 
297 146 380 381 147 
298 147 381 382 148 
299 148 382 383 149 
300 149 383 384 150 
301 150 384 385 151 
302 151 385 386 152 
303 152 386 65 12 
304 48 49 387 379 
305 379 387 388 380 
306 380 388 389 381 
307 381 389 390 382 
308 382 390 391 383 
309 383 391 392 384 
310 384 392 393 385 
311 385 393 394 386 
312 386 394 66 65 
313 49 50 395 387 
314 387 395 396 388 
315 388 396 397 389 
316 389 397 398 390 
317 390 398 399 391 
318 391 399 400 392 
319 392 400 401 393 
320 393 401 402 394 
321 394 402 67 66 
322 50 51 403 395 
323 395 403 404 396 
324 396 404 405 397 
325 397 405 406 398 
326 398 406 407 399 
327 399 407 408 400 
328 400 408 409 401 
329 401 409 410 402 
330 402 410 68 67 
331 51 52 411 403 
332 403 411 412 404 
333 404 412 413 405 
334 405 413 414 406 
335 406 414 415 407 
336 407 415 416 408 
337 408 416 417 409 
338 409 417 418 410 
339 410 418 69 68 
340 52 53 419 411 
341 411 419 420 412 
342 412 420 421 413 
343 413 421 422 414 
344 414 422 423 415 
345 415 423 424 416 
346 416 424 425 417 
347 417 425 426 418 
348 418 426 70 69 
349 53 54 427 419 
350 419 427 428 420 
351 420 428 429 421 
352 421 429 430 422 
353 422 430 431 423 
354 423 431 432 424 
355 424 432 433 425 
356 425 433 434 426 
357 426 434 71 70 
358 54 9 153 427 
359 427 153 154 428 
360 428 154 155 429 
361 429 155 156 430 
362 430 156 157 431 
363 431 157 158 432 
364 432 158 159 433 
365 433 159 160 434 
366 434 160 13 71 
2 3202 3 54
367 9 55 435 153 
368 153 435 436 154 
369 154 436 437 155 
370 155 437 438 156 
371 156 438 439 157 
372 157 439 440 158 
373 158 440 441 159 
374 159 441 442 160 
375 160 442 72 13 
376 55 56 443 435 
377 435 443 444 436 
378 436 444 445 437 
379 437 445 446 438 
380 438 446 447 439 
381 439 447 448 440 
382 440 448 449 441 
383 441 449 450 442 
384 442 450 73 72 
385 56 57 451 443 
386 443 451 452 444 
387 444 452 453 445 
388 445 453 454 446 
389 446 454 455 447 
390 447 455 456 448 
391 448 456 457 449 
392 449 457 458 450 
393 450 458 74 73 
394 57 58 459 451 
395 451 459 460 452 
396 452 460 461 453 
397 453 461 462 454 
398 454 462 463 455 
399 455 463 464 456 
400 456 464 465 457 
401 457 465 466 458 
402 458 466 75 74 
403 58 59 467 459 
404 459 467 468 460 
405 460 468 469 461 
406 461 469 470 462 
407 462 470 471 463 
408 463 471 472 464 
409 464 472 473 465 
410 465 473 474 466 
411 466 474 76 75 
412 59 10 161 467 
413 467 161 162 468 
414 468 162 163 469 
415 469 163 164 470 
416 470 164 165 471 
417 471 165 166 472 
418 472 166 167 473 
419 473 167 168 474 
420 474 168 14 76 
$EndElements
