$MeshFormat
4.1 0 8
$EndMeshFormat
$PhysicalNames
1
2 1 "materialID"
$EndPhysicalNames
$Entities
18 26 9 0
100 0 0 0 0 
101 0.3 0 0 0 
102 0.7 0 0 0 
103 1 0 0 0 
200 0 0.4 0 0 
201 0.3 0.4 0 0 
202 0.7 0.4 0 0 
301 0.3 0.6 0 0 
302 0.7 0.6 0 0 
303 1 0.6 0 0 
400 0 1 0 0 
401 0.3 1 0 0 
402 0.7 1 0 0 
403 1 1 0 0 
900 1 0.395 0 0 
901 1 0.405 0 0 
902 0 0.595 0 0 
903 0 0.605 0 0 
1000 0 0 0 0.3 0 0 0 2 100 -101 
1001 0.3 0 0 0.7 0 0 0 2 101 -102 
1002 0.7 0 0 1 0 0 0 2 102 -103 
1100 0 0.4 0 0.3 0.4 0 0 2 200 -201 
1101 0.3 0.4 0 0.7 0.4 0 0 2 201 -202 
1201 0.3 0.6 0 0.7 0.6 0 0 2 301 -302 
1202 0.7 0.6 0 1 0.6 0 0 2 302 -303 
1300 0 1 0 0.3 1 0 0 2 400 -401 
1301 0.3 1 0 0.7 1 0 0 2 401 -402 
1302 0.7 1 0 1 1 0 0 2 402 -403 
1800 0.7 0.395 0 1 0.4 0 0 2 202 -900 
1801 0.7 0.4 0 1 0.405 0 0 2 202 -901 
1810 0 0.595 0 0.3 0.6 0 0 2 902 -301 
1811 0 0.6 0 0.3 0.605 0 0 2 903 -301 
1900 0 0 0 0 0.4 0 0 2 100 -200 
1901 0.3 0 0 0.3 0.4 0 0 2 101 -201 
1902 0.7 0 0 0.7 0.4 0 0 2 102 -202 
1903 1 0 0 1 0.395 0 0 2 103 -900 
2000 0 0.4 0 0 0.595 0 0 2 200 -902 
2001 0.3 0.4 0 0.3 0.6 0 0 2 201 -301 
2002 0.7 0.4 0 0.7 0.6 0 0 2 202 -302 
2003 1 0.405 0 1 0.6 0 0 2 901 -303 
2100 0 0.605 0 0 1 0 0 2 903 -400 
2101 0.3 0.6 0 0.3 1 0 0 2 301 -401 
2102 0.7 0.6 0 0.7 1 0 0 2 302 -402 
2103 1 0.6 0 1 1 0 0 2 303 -403 
3000 0 0 0 0.3 0.4 0 1 1 4 1000 1901 -1100 -1900 
3001 0.3 0 0 0.7 0.4 0 1 1 4 1001 1902 -1101 -1901 
3002 0.7 0 0 1 0.4 0 1 1 4 1002 1903 -1800 -1902 
3100 0 0.4 0 0.3 0.6 0 1 1 4 1100 2001 -1810 -2000 
3101 0.3 0.4 0 0.7 0.6 0 1 1 4 1101 2002 -1201 -2001 
3102 0.7 0.4 0 1 0.6 0 1 1 4 1801 2003 -1202 -2002 
3200 0 0.6 0 0.3 1 0 1 1 4 1811 2101 -1300 -2100 
3201 0.3 0.6 0 0.7 1 0 1 1 4 1201 2102 -1301 -2101 
3202 0.7 0.6 0 1 1 0 1 1 4 1202 2103 -1302 -2102 
$EndEntities
$Nodes
53 453 1 453
0 100 0 1
1
0 0 0
0 101 0 1
2
0.3 0 0
0 102 0 1
3
0.7 0 0
0 103 0 1
4
1 0 0
0 200 0 1
5
0 0.4 0
0 201 0 1
6
0.3 0.4 0
0 202 0 1
7
0.7 0.4 0
0 301 0 1
8
0.3 0.6 0
0 302 0 1
9
0.7 0.6 0
0 303 0 1
10
1 0.6 0
0 400 0 1
11
0 1 0
0 401 0 1
12
0.3 1 0
0 402 0 1
13
0.7 1 0
0 403 0 1
14
1 1 0
0 900 0 1
15
1 0.395 0
0 901 0 1
16
1 0.405 0
0 902 0 1
17
0 0.595 0
0 903 0 1
18
0 0.605 0
1 1000 0 5
19
20
21
22
23
0.04999999999989675 0 0
0.0999999999997538 0 0
0.149999999999619 0 0
0.1999999999997478 0 0
0.249999999999873 0 0
1 1001 0 7
24
25
26
27
28
29
30
0.3499999999999349 0 0
0.399999999999783 0 0
0.4499999999996312 0 0
0.4999999999995011 0 0
0.5499999999996312 0 0
0.5999999999997396 0 0
0.6499999999998698 0 0
1 1002 0 5
31
32
33
34
35
0.7499999999999348 0 0
0.799999999999819 0 0
0.849999999999826 0 0
0.8999999999998334 0 0
0.9499999999999709 0 0
1 1100 0 5
36
37
38
39
40
0.04999999999989675 0.4 0
0.0999999999997538 0.4 0
0.149999999999619 0.4 0
0.1999999999997478 0.4 0
0.249999999999873 0.4 0
1 1101 0 7
41
42
43
44
45
46
47
0.3499999999999349 0.4 0
0.399999999999783 0.4 0
0.4499999999996312 0.4 0
0.4999999999995011 0.4 0
0.5499999999996312 0.4 0
0.5999999999997396 0.4 0
0.6499999999998698 0.4 0
1 1201 0 7
48
49
50
51
52
53
54
0.3499999999999349 0.6 0
0.399999999999783 0.6 0
0.4499999999996312 0.6 0
0.4999999999995011 0.6 0
0.5499999999996312 0.6 0
0.5999999999997396 0.6 0
0.6499999999998698 0.6 0
1 1202 0 5
55
56
57
58
59
0.7499999999999348 0.6 0
0.799999999999819 0.6 0
0.849999999999826 0.6 0
0.8999999999998334 0.6 0
0.9499999999999709 0.6 0
1 1300 0 5
60
61
62
63
64
0.04999999999989675 1 0
0.0999999999997538 1 0
0.149999999999619 1 0
0.1999999999997478 1 0
0.249999999999873 1 0
1 1301 0 7
65
66
67
68
69
70
71
0.3499999999999349 1 0
0.399999999999783 1 0
0.4499999999996312 1 0
0.4999999999995011 1 0
0.5499999999996312 1 0
0.5999999999997396 1 0
0.6499999999998698 1 0
1 1302 0 5
72
73
74
75
76
0.7499999999999348 1 0
0.799999999999819 1 0
0.849999999999826 1 0
0.8999999999998334 1 0
0.9499999999999709 1 0
1 1800 0 5
77
78
79
80
81
0.7499999999999347 0.3991666666666678 0
0.7999999999998194 0.3983333333333364 0
0.8499999999998264 0.3975000000000029 0
0.8999999999998334 0.3966666666666694 0
0.949999999999971 0.3958333333333338 0
1 1801 0 5
82
83
84
85
86
0.7499999999999347 0.4008333333333323 0
0.7999999999998194 0.4016666666666637 0
0.8499999999998264 0.4024999999999971 0
0.8999999999998334 0.4033333333333306 0
0.949999999999971 0.4041666666666662 0
1 1810 0 5
87
88
89
90
91
0.04999999999989633 0.5958333333333315 0
0.09999999999975327 0.5966666666666626 0
0.1499999999996187 0.5974999999999936 0
0.199999999999748 0.5983333333333292 0
0.2499999999998733 0.5991666666666645 0
1 1811 0 5
92
93
94
95
96
0.04999999999989633 0.6041666666666684 0
0.09999999999975327 0.6033333333333374 0
0.1499999999996187 0.6025000000000064 0
0.199999999999748 0.6016666666666708 0
0.2499999999998733 0.6008333333333354 0
1 1900 0 7
97
98
99
100
101
102
103
0 0.04999999999991424 0
0 0.09999999999976666 0
0 0.1499999999996177 0
0 0.1999999999994742 0
0 0.2499999999996016 0
0 0.2999999999997344 0
0 0.3499999999998726 0
1 1901 0 7
104
105
106
107
108
109
110
0.3 0.04999999999991424 0
0.3 0.09999999999976666 0
0.3 0.1499999999996177 0
0.3 0.1999999999994742 0
0.3 0.2499999999996016 0
0.3 0.2999999999997344 0
0.3 0.3499999999998726 0
1 1902 0 7
111
112
113
114
115
116
117
0.7 0.04999999999991424 0
0.7 0.09999999999976666 0
0.7 0.1499999999996177 0
0.7 0.1999999999994742 0
0.7 0.2499999999996016 0
0.7 0.2999999999997344 0
0.7 0.3499999999998726 0
1 1903 0 7
118
119
120
121
122
123
124
1 0.04937499999991948 0
1 0.09874999999978032 0
1 0.1481249999996398 0
1 0.1974999999995047 0
1 0.246874999999619 0
1 0.2962499999997604 0
1 0.3456249999998802 0
1 2000 0 3
125
126
127
0 0.4487499999998809 0
0 0.49749999999974 0
0 0.5462499999998917 0
1 2001 0 3
128
129
130
0.3 0.4499999999998861 0
0.3 0.4999999999997613 0
0.3 0.5499999999998753 0
1 2002 0 3
131
132
133
0.7 0.4499999999998861 0
0.7 0.4999999999997613 0
0.7 0.5499999999998753 0
1 2003 0 3
134
135
136
1 0.4537499999998862 0
1 0.5024999999997506 0
1 0.5512499999998645 0
1 2100 0 7
137
138
139
140
141
142
143
0 0.6543749999998969 0
0 0.7037499999997938 0
0 0.7531249999997343 0
0 0.8024999999995446 0
0 0.8518749999996368 0
0 0.9012499999997723 0
0 0.9506249999999079 0
1 2101 0 7
144
145
146
147
148
149
150
0.3 0.6499999999998645 0
0.3 0.6999999999997288 0
0.3 0.7499999999995931 0
0.3 0.7999999999994574 0
0.3 0.8499999999995822 0
0.3 0.8999999999997068 0
0.3 0.9499999999998534 0
1 2102 0 7
151
152
153
154
155
156
157
0.7 0.6499999999998645 0
0.7 0.6999999999997288 0
0.7 0.7499999999995931 0
0.7 0.7999999999994574 0
0.7 0.8499999999995822 0
0.7 0.8999999999997068 0
0.7 0.9499999999998534 0
1 2103 0 7
158
159
160
161
162
163
164
1 0.6499999999998645 0
1 0.6999999999997288 0
1 0.7499999999995931 0
1 0.7999999999994574 0
1 0.8499999999995822 0
1 0.8999999999997068 0
1 0.9499999999998534 0
2 3000 0 35
165
166
167
168
169
170
171
172
173
174
175
176
177
178
179
180
181
182
183
184
185
186
187
188
189
190
191
192
193
194
195
196
197
198
199
0.04999999999991993 0.04999999999990773 0
0.04999999999994292 0.09999999999980329 0
0.04999999999995702 0.1499999999997093 0
0.0499999999999616 0.1999999999996536 0
0.049999999999957 0.2499999999996994 0
0.0499999999999429 0.299999999999786 0
0.04999999999991993 0.3499999999998909 0
0.09999999999984008 0.04999999999991337 0
0.09999999999989471 0.09999999999982943 0
0.0999999999999235 0.1499999999997625 0
0.09999999999993238 0.1999999999997317 0
0.09999999999992348 0.2499999999997563 0
0.09999999999989473 0.2999999999998197 0
0.09999999999984008 0.3499999999999052 0
0.1499999999997919 0.04999999999991637 0
0.1499999999998723 0.09999999999983868 0
0.1499999999999099 0.1499999999997795 0
0.149999999999921 0.1999999999997543 0
0.1499999999999098 0.2499999999997745 0
0.1499999999998723 0.299999999999831 0
0.1499999999997919 0.3499999999999103 0
0.1999999999998363 0.04999999999991338 0
0.1999999999998929 0.09999999999982946 0
0.1999999999999227 0.1499999999997625 0
0.1999999999999318 0.1999999999997317 0
0.1999999999999226 0.2499999999997563 0
0.1999999999998929 0.2999999999998197 0
0.1999999999998363 0.3499999999999052 0
0.2499999999999124 0.04999999999990772 0
0.2499999999999403 0.09999999999980329 0
0.249999999999956 0.1499999999997093 0
0.249999999999961 0.1999999999996536 0
0.249999999999956 0.2499999999996994 0
0.2499999999999403 0.2999999999997861 0
0.2499999999999124 0.349999999999891 0
2 3001 0 49
200
201
202
203
204
205
206
207
208
209
210
211
212
213
214
215
216
217
218
219
220
221
222
223
224
225
226
227
228
229
230
231
232
233
234
235
236
237
238
239
240
241
242
243
244
245
246
247
248
0.3499999999999228 0.04999999999991319 0
0.3499999999999304 0.09999999999981371 0
0.3499999999999386 0.1499999999997234 0
0.3499999999999416 0.1999999999996693 0
0.3499999999999385 0.2499999999997139 0
0.3499999999999304 0.299999999999797 0
0.3499999999999228 0.3499999999998968 0
0.3999999999998257 0.04999999999992479 0
0.3999999999998606 0.09999999999985155 0
0.399999999999882 0.1499999999997929 0
0.3999999999998892 0.1999999999997657 0
0.3999999999998821 0.2499999999997876 0
0.3999999999998605 0.2999999999998431 0
0.3999999999998258 0.3499999999999177 0
0.4499999999997368 0.04999999999993437 0
0.4499999999998038 0.0999999999998749 0
0.4499999999998401 0.1499999999998309 0
0.4499999999998516 0.199999999999813 0
0.44999999999984 0.2499999999998278 0
0.4499999999998039 0.2999999999998701 0
0.4499999999997368 0.3499999999999308 0
0.4999999999996865 0.04999999999993784 0
0.4999999999997778 0.09999999999988264 0
0.4999999999998227 0.149999999999843 0
0.4999999999998364 0.1999999999998273 0
0.4999999999998227 0.2499999999998405 0
0.499999999999778 0.299999999999879 0
0.4999999999996866 0.3499999999999351 0
0.5499999999997303 0.04999999999993438 0
0.5499999999997986 0.09999999999987488 0
0.5499999999998366 0.1499999999998309 0
0.5499999999998486 0.199999999999813 0
0.5499999999998366 0.2499999999998278 0
0.5499999999997988 0.2999999999998702 0
0.5499999999997304 0.3499999999999308 0
0.5999999999998047 0.04999999999992478 0
0.59999999999985 0.09999999999985158 0
0.5999999999998763 0.1499999999997929 0
0.5999999999998847 0.1999999999997657 0
0.5999999999998763 0.2499999999997877 0
0.5999999999998502 0.2999999999998432 0
0.5999999999998048 0.3499999999999178 0
0.6499999999998988 0.04999999999991318 0
0.6499999999999206 0.09999999999981372 0
0.6499999999999337 0.1499999999997234 0
0.6499999999999381 0.1999999999996693 0
0.6499999999999337 0.249999999999714 0
0.6499999999999206 0.2999999999997971 0
0.6499999999998988 0.3499999999998968 0
2 3002 0 35
249
250
251
252
253
254
255
256
257
258
259
260
261
262
263
264
265
266
267
268
269
270
271
272
273
274
275
276
277
278
279
280
281
282
283
0.7499999999999497 0.04989488512150583 0
0.7499999999999653 0.09978980981231379 0
0.7499999999999746 0.1496848242865436 0
0.7499999999999774 0.1995800031703377 0
0.7499999999999742 0.2494754670345407 0
0.749999999999965 0.299371421315815 0
0.7499999999999495 0.3492682384605071 0
0.7999999999998988 0.04979017164220015 0
0.7999999999999372 0.09958041112306704 0
0.7999999999999555 0.1493708041940332 0
0.7999999999999607 0.199161477068044 0
0.7999999999999552 0.248952629312505 0
0.7999999999999369 0.2987445849164825 0
0.7999999999998986 0.3485378715778272 0
0.8499999999998898 0.04968582859883339 0
0.8499999999999291 0.09937173489769072 0
0.8499999999999491 0.1490578169721255 0
0.849999999999955 0.1987442186885282 0
0.849999999999949 0.2484311658794262 0
0.8499999999999289 0.2981190194047506 0
0.8499999999998902 0.3478083475264089 0
0.8999999999999062 0.04958184362004166 0
0.8999999999999403 0.09916375417172985 0
0.8999999999999567 0.1487458163214661 0
0.8999999999999616 0.1983281549570531 0
0.8999999999999567 0.2479109684308639 0
0.8999999999999403 0.2974945811267604 0
0.8999999999999065 0.347079526691757 0
0.9499999999999619 0.04947822524282023 0
0.9499999999999695 0.09895648895989032 0
0.9499999999999762 0.1484348400167782 0
0.9499999999999786 0.1979133512780097 0
0.9499999999999763 0.2473921413768545 0
0.9499999999999695 0.2968714152383914 0
0.949999999999962 0.346351552105959 0
2 3100 0 15
284
285
286
287
288
289
290
291
292
293
294
295
296
297
298
0.04999999999990431 0.4489562891015387 0
0.04999999999990976 0.4979132209533498 0
0.04999999999990443 0.5468716906321955 0
0.09999999999981099 0.4491636575451647 0
0.09999999999983077 0.4983283560391165 0
0.0999999999998112 0.5474954025540633 0
0.1499999999997567 0.4493717054924701 0
0.1499999999997925 0.498744583738039 0
0.1499999999997566 0.5481200543759023 0
0.199999999999807 0.4495803087310962 0
0.1999999999998276 0.4991616688891064 0
0.1999999999998066 0.5487453910435116 0
0.2499999999998962 0.4497896027311965 0
0.249999999999905 0.4995798632434035 0
0.2499999999998961 0.5493716825069175 0
2 3101 0 21
299
300
301
302
303
304
305
306
307
308
309
310
311
312
313
314
315
316
317
318
319
0.3499999999999103 0.4499999999999374 0
0.3499999999999068 0.4999999999998959 0
0.3499999999999103 0.5499999999999344 0
0.3999999999997996 0.4499999999999674 0
0.3999999999998066 0.4999999999999507 0
0.3999999999997996 0.5499999999999667 0
0.4499999999996983 0.4499999999999816 0
0.4499999999997206 0.4999999999999733 0
0.4499999999996984 0.5499999999999814 0
0.4999999999996421 0.4499999999999857 0
0.4999999999996791 0.4999999999999795 0
0.4999999999996422 0.5499999999999856 0
0.5499999999996902 0.4499999999999816 0
0.5499999999997116 0.4999999999999733 0
0.5499999999996901 0.5499999999999813 0
0.5999999999997752 0.4499999999999674 0
0.5999999999997875 0.4999999999999508 0
0.5999999999997753 0.5499999999999666 0
0.6499999999998833 0.4499999999999374 0
0.6499999999998886 0.499999999999896 0
0.6499999999998833 0.5499999999999344 0
2 3102 0 15
320
321
322
323
324
325
326
327
328
329
330
331
332
333
334
0.7499999999999405 0.4506283174929483 0
0.7499999999999449 0.5004201367563829 0
0.7499999999999405 0.5502103972686716 0
0.7999999999998822 0.4512546089564087 0
0.7999999999998986 0.5008383311107791 0
0.7999999999998822 0.5504196912688269 0
0.8499999999998712 0.4518799456240339 0
0.8499999999998862 0.5012554162618722 0
0.849999999999871 0.5506282945074685 0
0.8999999999998909 0.4525045974458576 0
0.8999999999999049 0.5016716439607668 0
0.8999999999998904 0.550836342454756 0
0.949999999999954 0.4531283093676737 0
0.9499999999999532 0.5020867790464276 0
0.9499999999999538 0.5510437108983223 0
2 3200 0 35
335
336
337
338
339
340
341
342
343
344
345
346
347
348
349
350
351
352
353
354
355
356
357
358
359
360
361
362
363
364
365
366
367
368
369
0.04999999999992 0.6536484478938516 0
0.0499999999999428 0.7031285847612389 0
0.04999999999995667 0.7526078586226247 0
0.04999999999996111 0.8020866487213634 0
0.04999999999995641 0.8515651599826789 0
0.04999999999994235 0.9010435110397359 0
0.0499999999999196 0.9505217747570014 0
0.09999999999983987 0.6529204733080752 0
0.09999999999989424 0.7025054188729158 0
0.09999999999992278 0.7520890315686948 0
0.09999999999993153 0.801671845042451 0
0.09999999999992251 0.8512541836780861 0
0.09999999999989374 0.9008362458279442 0
0.09999999999983938 0.9504181563797911 0
0.149999999999791 0.6521916524734268 0
0.1499999999998713 0.7018809805949333 0
0.1499999999999088 0.7515688341201482 0
0.14999999999992 0.8012557813110031 0
0.1499999999999089 0.8509421830274484 0
0.1499999999998714 0.9006282651019937 0
0.1499999999997911 0.9503141714010013 0
0.1999999999998352 0.6514621284219912 0
0.1999999999998917 0.7012554150831669 0
0.1999999999999217 0.7510473706870183 0
0.199999999999931 0.800838522931427 0
0.1999999999999219 0.8506291958054927 0
0.1999999999998923 0.9004195888765862 0
0.1999999999998359 0.9502098283576206 0
0.2499999999999117 0.6507317615392755 0
0.2499999999999395 0.7006285786837581 0
0.2499999999999554 0.7505245329648574 0
0.2499999999999604 0.8004199968289637 0
0.2499999999999556 0.8503151757128593 0
0.2499999999999401 0.9002101901872672 0
0.2499999999999123 0.9501051148782867 0
2 3201 0 49
370
371
372
373
374
375
376
377
378
379
380
381
382
383
384
385
386
387
388
389
390
391
392
393
394
395
396
397
398
399
400
401
402
403
404
405
406
407
408
409
410
411
412
413
414
415
416
417
418
0.3499999999999228 0.649999999999892 0
0.3499999999999304 0.6999999999997898 0
0.3499999999999386 0.7499999999997029 0
0.3499999999999416 0.7999999999996521 0
0.3499999999999385 0.849999999999697 0
0.3499999999999304 0.8999999999997803 0
0.3499999999999228 0.9499999999998862 0
0.3999999999998257 0.6499999999999135 0
0.3999999999998606 0.6999999999998356 0
0.3999999999998821 0.7499999999997765 0
0.3999999999998893 0.7999999999997504 0
0.3999999999998821 0.8499999999997737 0
0.3999999999998605 0.8999999999998314 0
0.3999999999998258 0.9499999999999107 0
0.4499999999997369 0.649999999999927 0
0.449999999999804 0.6999999999998632 0
0.4499999999998401 0.7499999999998174 0
0.4499999999998515 0.7999999999997994 0
0.4499999999998401 0.8499999999998156 0
0.4499999999998038 0.8999999999998606 0
0.4499999999997368 0.9499999999999255 0
0.4999999999996866 0.6499999999999315 0
0.4999999999997781 0.6999999999998721 0
0.4999999999998228 0.7499999999998304 0
0.4999999999998364 0.7999999999998147 0
0.4999999999998227 0.849999999999829 0
0.499999999999778 0.8999999999998703 0
0.4999999999996865 0.9499999999999303 0
0.5499999999997303 0.649999999999927 0
0.5499999999997988 0.6999999999998631 0
0.5499999999998366 0.7499999999998174 0
0.5499999999998486 0.7999999999997996 0
0.5499999999998365 0.8499999999998157 0
0.5499999999997986 0.8999999999998609 0
0.5499999999997303 0.9499999999999256 0
0.5999999999998048 0.6499999999999138 0
0.5999999999998502 0.6999999999998359 0
0.5999999999998763 0.7499999999997766 0
0.5999999999998848 0.7999999999997504 0
0.5999999999998763 0.8499999999997736 0
0.59999999999985 0.8999999999998315 0
0.5999999999998046 0.9499999999999109 0
0.6499999999998988 0.649999999999892 0
0.6499999999999206 0.6999999999997899 0
0.6499999999999339 0.7499999999997029 0
0.6499999999999382 0.7999999999996521 0
0.6499999999999339 0.849999999999697 0
0.6499999999999208 0.8999999999997805 0
0.6499999999998988 0.9499999999998863 0
2 3202 0 35
419
420
421
422
423
424
425
426
427
428
429
430
431
432
433
434
435
436
437
438
439
440
441
442
443
444
445
446
447
448
449
450
451
452
453
0.7499999999999498 0.6499999999998859 0
0.7499999999999656 0.6999999999997786 0
0.7499999999999748 0.7499999999996877 0
0.7499999999999776 0.7999999999996351 0
0.7499999999999747 0.8499999999996817 0
0.7499999999999655 0.8999999999997687 0
0.7499999999999498 0.9499999999998798 0
0.7999999999998991 0.6499999999999009 0
0.7999999999999374 0.6999999999998114 0
0.7999999999999555 0.7499999999997436 0
0.799999999999961 0.7999999999997141 0
0.7999999999999555 0.8499999999997403 0
0.7999999999999374 0.8999999999998063 0
0.799999999999899 0.9499999999998974 0
0.8499999999998904 0.6499999999999061 0
0.8499999999999295 0.6999999999998228 0
0.8499999999999496 0.749999999999762 0
0.8499999999999555 0.7999999999997374 0
0.8499999999999494 0.8499999999997592 0
0.8499999999999295 0.8999999999998187 0
0.8499999999998903 0.9499999999999034 0
0.8999999999999067 0.649999999999901 0
0.8999999999999406 0.6999999999998114 0
0.8999999999999572 0.749999999999744 0
0.8999999999999621 0.7999999999997142 0
0.8999999999999572 0.8499999999997403 0
0.899999999999941 0.8999999999998062 0
0.8999999999999064 0.9499999999998971 0
0.9499999999999619 0.649999999999886 0
0.9499999999999696 0.6999999999997785 0
0.9499999999999764 0.7499999999996877 0
0.9499999999999789 0.7999999999996351 0
0.9499999999999764 0.8499999999996816 0
0.9499999999999698 0.8999999999997685 0
0.9499999999999615 0.9499999999998797 0
$EndNodes
$Elements
9 400 1 400
2 3000 3 48
1 1 19 165 97 
2 97 165 166 98 
3 98 166 167 99 
4 99 167 168 100 
5 100 168 169 101 
6 101 169 170 102 
7 102 170 171 103 
8 103 171 36 5 
9 19 20 172 165 
10 165 172 173 166 
11 166 173 174 167 
12 167 174 175 168 
13 168 175 176 169 
14 169 176 177 170 
15 170 177 178 171 
16 171 178 37 36 
17 20 21 179 172 
18 172 179 180 173 
19 173 180 181 174 
20 174 181 182 175 
21 175 182 183 176 
22 176 183 184 177 
23 177 184 185 178 
24 178 185 38 37 
25 21 22 186 179 
26 179 186 187 180 
27 180 187 188 181 
28 181 188 189 182 
29 182 189 190 183 
30 183 190 191 184 
31 184 191 192 185 
32 185 192 39 38 
33 22 23 193 186 
34 186 193 194 187 
35 187 194 195 188 
36 188 195 196 189 
37 189 196 197 190 
38 190 197 198 191 
39 191 198 199 192 
40 192 199 40 39 
41 23 2 104 193 
42 193 104 105 194 
43 194 105 106 195 
44 195 106 107 196 
45 196 107 108 197 
46 197 108 109 198 
47 198 109 110 199 
48 199 110 6 40 
2 3001 3 64
49 2 24 200 104 
50 104 200 201 105 
51 105 201 202 106 
52 106 202 203 107 
53 107 203 204 108 
54 108 204 205 109 
55 109 205 206 110 
56 110 206 41 6 
57 24 25 207 200 
58 200 207 208 201 
59 201 208 209 202 
60 202 209 210 203 
61 203 210 211 204 
62 204 211 212 205 
63 205 212 213 206 
64 206 213 42 41 
65 25 26 214 207 
66 207 214 215 208 
67 208 215 216 209 
68 209 216 217 210 
69 210 217 218 211 
70 211 218 219 212 
71 212 219 220 213 
72 213 220 43 42 
73 26 27 221 214 
74 214 221 222 215 
75 215 222 223 216 
76 216 223 224 217 
77 217 224 225 218 
78 218 225 226 219 
79 219 226 227 220 
80 220 227 44 43 
81 27 28 228 221 
82 221 228 229 222 
83 222 229 230 223 
84 223 230 231 224 
85 224 231 232 225 
86 225 232 233 226 
87 226 233 234 227 
88 227 234 45 44 
89 28 29 235 228 
90 228 235 236 229 
91 229 236 237 230 
92 230 237 238 231 
93 231 238 239 232 
94 232 239 240 233 
95 233 240 241 234 
96 234 241 46 45 
97 29 30 242 235 
98 235 242 243 236 
99 236 243 244 237 
100 237 244 245 238 
101 238 245 246 239 
102 239 246 247 240 
103 240 247 248 241 
104 241 248 47 46 
105 30 3 111 242 
106 242 111 112 243 
107 243 112 113 244 
108 244 113 114 245 
109 245 114 115 246 
110 246 115 116 247 
111 247 116 117 248 
112 248 117 7 47 
2 3002 3 48
113 3 31 249 111 
114 111 249 250 112 
115 112 250 251 113 
116 113 251 252 114 
117 114 252 253 115 
118 115 253 254 116 
119 116 254 255 117 
120 117 255 77 7 
121 31 32 256 249 
122 249 256 257 250 
123 250 257 258 251 
124 251 258 259 252 
125 252 259 260 253 
126 253 260 261 254 
127 254 261 262 255 
128 255 262 78 77 
129 32 33 263 256 
130 256 263 264 257 
131 257 264 265 258 
132 258 265 266 259 
133 259 266 267 260 
134 260 267 268 261 
135 261 268 269 262 
136 262 269 79 78 
137 33 34 270 263 
138 263 270 271 264 
139 264 271 272 265 
140 265 272 273 266 
141 266 273 274 267 
142 267 274 275 268 
143 268 275 276 269 
144 269 276 80 79 
145 34 35 277 270 
146 270 277 278 271 
147 271 278 279 272 
148 272 279 280 273 
149 273 280 281 274 
150 274 281 282 275 
151 275 282 283 276 
152 276 283 81 80 
153 35 4 118 277 
154 277 118 119 278 
155 278 119 120 279 
156 279 120 121 280 
157 280 121 122 281 
158 281 122 123 282 
159 282 123 124 283 
160 283 124 15 81 
2 3100 3 24
161 5 36 284 125 
162 125 284 285 126 
163 126 285 286 127 
164 127 286 87 17 
165 36 37 287 284 
166 284 287 288 285 
167 285 288 289 286 
168 286 289 88 87 
169 37 38 290 287 
170 287 290 291 288 
171 288 291 292 289 
172 289 292 89 88 
173 38 39 293 290 
174 290 293 294 291 
175 291 294 295 292 
176 292 295 90 89 
177 39 40 296 293 
178 293 296 297 294 
179 294 297 298 295 
180 295 298 91 90 
181 40 6 128 296 
182 296 128 129 297 
183 297 129 130 298 
184 298 130 8 91 
2 3101 3 32
185 6 41 299 128 
186 128 299 300 129 
187 129 300 301 130 
188 130 301 48 8 
189 41 42 302 299 
190 299 302 303 300 
191 300 303 304 301 
192 301 304 49 48 
193 42 43 305 302 
194 302 305 306 303 
195 303 306 307 304 
196 304 307 50 49 
197 43 44 308 305 
198 305 308 309 306 
199 306 309 310 307 
200 307 310 51 50 
201 44 45 311 308 
202 308 311 312 309 
203 309 312 313 310 
204 310 313 52 51 
205 45 46 314 311 
206 311 314 315 312 
207 312 315 316 313 
208 313 316 53 52 
209 46 47 317 314 
210 314 317 318 315 
211 315 318 319 316 
212 316 319 54 53 
213 47 7 131 317 
214 317 131 132 318 
215 318 132 133 319 
216 319 133 9 54 
2 3102 3 24
217 7 82 320 131 
218 131 320 321 132 
219 132 321 322 133 
220 133 322 55 9 
221 82 83 323 320 
222 320 323 324 321 
223 321 324 325 322 
224 322 325 56 55 
225 83 84 326 323 
226 323 326 327 324 
227 324 327 328 325 
228 325 328 57 56 
229 84 85 329 326 
230 326 329 330 327 
231 327 330 331 328 
232 328 331 58 57 
233 85 86 332 329 
234 329 332 333 330 
235 330 333 334 331 
236 331 334 59 58 
237 86 16 134 332 
238 332 134 135 333 
239 333 135 136 334 
240 334 136 10 59 
2 3200 3 48
241 18 92 335 137 
242 137 335 336 138 
243 138 336 337 139 
244 139 337 338 140 
245 140 338 339 141 
246 141 339 340 142 
247 142 340 341 143 
248 143 341 60 11 
249 92 93 342 335 
250 335 342 343 336 
251 336 343 344 337 
252 337 344 345 338 
253 338 345 346 339 
254 339 346 347 340 
255 340 347 348 341 
256 341 348 61 60 
257 93 94 349 342 
258 342 349 350 343 
259 343 350 351 344 
260 344 351 352 345 
261 345 352 353 346 
262 346 353 354 347 
263 347 354 355 348 
264 348 355 62 61 
265 94 95 356 349 
266 349 356 357 350 
267 350 357 358 351 
268 351 358 359 352 
269 352 359 360 353 
270 353 360 361 354 
271 354 361 362 355 
272 355 362 63 62 
273 95 96 363 356 
274 356 363 364 357 
275 357 364 365 358 
276 358 365 366 359 
277 359 366 367 360 
278 360 367 368 361 
279 361 368 369 362 
280 362 369 64 63 
281 96 8 144 363 
282 363 144 145 364 
283 364 145 146 365 
284 365 146 147 366 
285 366 147 148 367 
286 367 148 149 368 
287 368 149 150 369 
288 369 150 12 64 
2 3201 3 64
289 8 48 370 144 
290 144 370 371 145 
291 145 371 372 146 
292 146 372 373 147 
293 147 373 374 148 
294 148 374 375 149 
295 149 375 376 150 
296 150 376 65 12 
297 48 49 377 370 
298 370 377 378 371 
299 371 378 379 372 
300 372 379 380 373 
301 373 380 381 374 
302 374 381 382 375 
303 375 382 383 376 
304 376 383 66 65 
305 49 50 384 377 
306 377 384 385 378 
307 378 385 386 379 
308 379 386 387 380 
309 380 387 388 381 
310 381 388 389 382 
311 382 389 390 383 
312 383 390 67 66 
313 50 51 391 384 
314 384 391 392 385 
315 385 392 393 386 
316 386 393 394 387 
317 387 394 395 388 
318 388 395 396 389 
319 389 396 397 390 
320 390 397 68 67 
321 51 52 398 391 
322 391 398 399 392 
323 392 399 400 393 
324 393 400 401 394 
325 394 401 402 395 
326 395 402 403 396 
327 396 403 404 397 
328 397 404 69 68 
329 52 53 405 398 
330 398 405 406 399 
331 399 406 407 400 
332 400 407 408 401 
333 401 408 409 402 
334 402 409 410 403 
335 403 410 411 404 
336 404 411 70 69 
337 53 54 412 405 
338 405 412 413 406 
339 406 413 414 407 
340 407 414 415 408 
341 408 415 416 409 
342 409 416 417 410 
343 410 417 418 411 
344 411 418 71 70 
345 54 9 151 412 
346 412 151 152 413 
347 413 152 153 414 
348 414 153 154 415 
349 415 154 155 416 
350 416 155 156 417 
351 417 156 157 418 
352 418 157 13 71 
2 3202 3 48
353 9 55 419 151 
354 151 419 420 152 
355 152 420 421 153 
356 153 421 422 154 
357 154 422 423 155 
358 155 423 424 156 
359 156 424 425 157 
360 157 425 72 13 
361 55 56 426 419 
362 419 426 427 420 
363 420 427 428 421 
364 421 428 429 422 
365 422 429 430 423 
366 423 430 431 424 
367 424 431 432 425 
368 425 432 73 72 
369 56 57 433 426 
370 426 433 434 427 
371 427 434 435 428 
372 428 435 436 429 
373 429 436 437 430 
374 430 437 438 431 
375 431 438 439 432 
376 432 439 74 73 
377 57 58 440 433 
378 433 440 441 434 
379 434 441 442 435 
380 435 442 443 436 
381 436 443 444 437 
382 437 444 445 438 
383 438 445 446 439 
384 439 446 75 74 
385 58 59 447 440 
386 440 447 448 441 
387 441 448 449 442 
388 442 449 450 443 
389 443 450 451 444 
390 444 451 452 445 
391 445 452 453 446 
392 446 453 76 75 
393 59 10 158 447 
394 447 158 159 448 
395 448 159 160 449 
396 449 160 161 450 
397 450 161 162 451 
398 451 162 163 452 
399 452 163 164 453 
400 453 164 14 76 
$EndElements
