$MeshFormat
2.2 0 8
$EndMeshFormat
$PhysicalNames
3
1 14 "upper_edge"
1 15 "left_edge"
1 17 "bottom_edge"
$EndPhysicalNames
$Nodes
833
1 0 0 0
2 250 0 0
3 250 250 0
4 470 250 0
5 500 250 0
6 500 500 0
7 470 500 0
8 250 500 0
9 0 500 0
10 0 250 0
11 15.62499999998892 0 0
12 31.24999999999295 0 0
13 46.87499999995639 0 0
14 62.49999999991775 0 0
15 78.12499999992075 0 0
16 93.7499999999265 0 0
17 109.3749999999323 0 0
18 124.9999999999408 0 0
19 140.6249999999604 0 0
20 156.249999999966 0 0
21 171.8749999999717 0 0
22 187.4999999999773 0 0
23 203.124999999983 0 0
24 218.7499999999887 0 0
25 234.3749999999943 0 0
26 250 15.62499999998892 0
27 250 31.24999999999295 0
28 250 46.87499999995639 0
29 250 62.49999999991775 0
30 250 78.12499999992075 0
31 250 93.7499999999265 0
32 250 109.3749999999323 0
33 250 124.9999999999408 0
34 250 140.6249999999604 0
35 250 156.249999999966 0
36 250 171.8749999999717 0
37 250 187.4999999999773 0
38 250 203.124999999983 0
39 250 218.7499999999887 0
40 250 234.3749999999943 0
41 265.7142857143579 250 0
42 281.4285714286381 250 0
43 297.1428571429183 250 0
44 312.8571428571985 250 0
45 328.5714285714786 250 0
46 344.2857142857588 250 0
47 360.0000000000389 250 0
48 375.7142857143191 250 0
49 391.4285714285992 250 0
50 407.1428571428794 250 0
51 422.8571428571595 250 0
52 438.5714285714397 250 0
53 454.2857142857198 250 0
54 485 250 0
55 500 265.6249999999999 0
56 500 281.2499999999999 0
57 500 296.8749999999999 0
58 500 312.4999999999998 0
59 500 328.1249999999998 0
60 500 343.7499999999999 0
61 500 359.3749999999999 0
62 500 374.9999999999999 0
63 500 390.6249999999999 0
64 500 406.2499999999999 0
65 500 421.8749999999999 0
66 500 437.4999999999999 0
67 500 453.1249999999999 0
68 500 468.75 0
69 500 484.375 0
70 485 500 0
71 454.2857142857198 500 0
72 438.5714285714396 500 0
73 422.8571428571594 500 0
74 407.1428571428793 500 0
75 391.4285714285991 500 0
76 375.7142857143189 500 0
77 360.0000000000388 500 0
78 344.2857142857587 500 0
79 328.5714285714785 500 0
80 312.8571428571984 500 0
81 297.1428571429182 500 0
82 281.428571428638 500 0
83 265.7142857143579 500 0
84 234.375000000001 500 0
85 218.750000000002 500 0
86 203.1250000000031 500 0
87 187.5000000000041 500 0
88 171.8750000000052 500 0
89 156.2500000000062 500 0
90 140.6250000000073 500 0
91 125.0000000000055 500 0
92 109.3749999999927 500 0
93 93.74999999999372 500 0
94 78.12499999999477 500 0
95 62.49999999999585 500 0
96 46.87499999999687 500 0
97 31.24999999999793 500 0
98 15.62499999999895 500 0
99 0 484.3750000000001 0
100 0 468.7500000000001 0
101 0 453.1250000000001 0
102 0 437.5000000000002 0
103 0 421.8750000000002 0
104 0 406.2500000000001 0
105 0 390.6250000000001 0
106 0 375.0000000000001 0
107 0 359.3750000000001 0
108 0 343.7500000000001 0
109 0 328.1250000000001 0
110 0 312.5000000000001 0
111 0 296.8750000000001 0
112 0 281.25 0
113 0 265.625 0
114 0 234.375000000001 0
115 0 218.750000000002 0
116 0 203.1250000000031 0
117 0 187.5000000000041 0
118 0 171.8750000000052 0
119 0 156.2500000000062 0
120 0 140.6250000000073 0
121 0 125.0000000000055 0
122 0 109.3749999999927 0
123 0 93.74999999999372 0
124 0 78.12499999999477 0
125 0 62.49999999999585 0
126 0 46.87499999999687 0
127 0 31.24999999999793 0
128 0 15.62499999999895 0
129 15.62499999998892 250 0
130 31.24999999999295 250 0
131 46.87499999995639 250 0
132 62.49999999991775 250 0
133 78.12499999992075 250 0
134 93.7499999999265 250 0
135 109.3749999999323 250 0
136 124.9999999999408 250 0
137 140.6249999999604 250 0
138 156.249999999966 250 0
139 171.8749999999717 250 0
140 187.4999999999773 250 0
141 203.124999999983 250 0
142 218.7499999999887 250 0
143 234.3749999999943 250 0
144 250 265.6249999999999 0
145 250 281.2499999999999 0
146 250 296.8749999999999 0
147 250 312.4999999999998 0
148 250 328.1249999999998 0
149 250 343.7499999999999 0
150 250 359.3749999999999 0
151 250 374.9999999999999 0
152 250 390.6249999999999 0
153 250 406.2499999999999 0
154 250 421.8749999999999 0
155 250 437.4999999999999 0
156 250 453.1249999999999 0
157 250 468.75 0
158 250 484.375 0
159 470 265.6249999999999 0
160 470 281.2499999999999 0
161 470 296.8749999999999 0
162 470 312.4999999999998 0
163 470 328.1249999999998 0
164 470 343.7499999999999 0
165 470 359.3749999999999 0
166 470 374.9999999999999 0
167 470 390.6249999999999 0
168 470 406.2499999999999 0
169 470 421.8749999999999 0
170 470 437.4999999999999 0
171 470 453.1249999999999 0
172 470 468.75 0
173 470 484.375 0
174 15.62499999998892 15.62499999999832 0
175 15.62499999998892 31.24999999999761 0
176 15.62499999998892 46.87499999999435 0
177 15.62499999998892 62.49999999999097 0
178 15.62499999998892 78.12499999999015 0
179 15.62499999998892 93.74999999998951 0
180 15.62499999998892 109.3749999999889 0
181 15.62499999998892 125.0000000000015 0
182 15.62499999998892 140.6250000000043 0
183 15.62499999998892 156.2500000000038 0
184 15.62499999998892 171.8750000000031 0
185 15.62499999998892 187.5000000000025 0
186 15.62499999998892 203.1250000000018 0
187 15.62499999998892 218.7500000000012 0
188 15.62499999998892 234.3750000000007 0
189 31.24999999999295 15.6249999999977 0
190 31.24999999999295 31.2499999999973 0
191 31.24999999999295 46.87499999999182 0
192 31.24999999999295 62.49999999998609 0
193 31.24999999999295 78.1249999999855 0
194 31.24999999999295 93.74999999998531 0
195 31.24999999999295 109.3749999999851 0
196 31.24999999999295 124.9999999999974 0
197 31.24999999999295 140.6250000000014 0
198 31.24999999999295 156.2500000000013 0
199 31.24999999999295 171.875000000001 0
200 31.24999999999295 187.5000000000008 0
201 31.24999999999295 203.1250000000006 0
202 31.24999999999295 218.7500000000003 0
203 31.24999999999295 234.3750000000002 0
204 46.87499999995639 15.62499999999707 0
205 46.87499999995639 31.24999999999699 0
206 46.87499999995639 46.87499999998927 0
207 46.87499999995639 62.49999999998121 0
208 46.87499999995637 78.1249999999809 0
209 46.87499999995639 93.74999999998113 0
210 46.87499999995639 109.3749999999814 0
211 46.87499999995639 124.9999999999934 0
212 46.87499999995639 140.6249999999984 0
213 46.87499999995639 156.2499999999987 0
214 46.87499999995639 171.8749999999989 0
215 46.87499999995639 187.4999999999991 0
216 46.87499999995639 203.1249999999994 0
217 46.87499999995638 218.7499999999995 0
218 46.87499999995638 234.3749999999998 0
219 62.49999999991775 15.62499999999645 0
220 62.49999999991775 31.24999999999669 0
221 62.49999999991775 46.87499999998676 0
222 62.49999999991775 62.49999999997632 0
223 62.49999999991775 78.12499999997627 0
224 62.49999999991775 93.74999999997692 0
225 62.49999999991775 109.3749999999776 0
226 62.49999999991775 124.9999999999893 0
227 62.49999999991775 140.6249999999955 0
228 62.49999999991775 156.2499999999962 0
229 62.49999999991775 171.8749999999968 0
230 62.49999999991775 187.4999999999974 0
231 62.49999999991775 203.1249999999981 0
232 62.49999999991775 218.7499999999987 0
233 62.49999999991775 234.3749999999994 0
234 78.12499999992075 15.62499999999581 0
235 78.12499999992076 31.24999999999638 0
236 78.12499999992075 46.87499999998423 0
237 78.12499999992076 62.49999999997145 0
238 78.12499999992075 78.12499999997164 0
239 78.12499999992076 93.7499999999727 0
240 78.12499999992075 109.3749999999738 0
241 78.12499999992075 124.9999999999853 0
242 78.12499999992075 140.6249999999927 0
243 78.12499999992076 156.2499999999936 0
244 78.12499999992075 171.8749999999947 0
245 78.12499999992075 187.4999999999957 0
246 78.12499999992075 203.1249999999968 0
247 78.12499999992075 218.7499999999979 0
248 78.12499999992075 234.3749999999989 0
249 93.74999999992649 15.62499999999519 0
250 93.74999999992653 31.24999999999606 0
251 93.7499999999265 46.8749999999817 0
252 93.7499999999265 62.49999999996656 0
253 93.74999999992653 78.124999999967 0
254 93.7499999999265 93.74999999996851 0
255 93.7499999999265 109.37499999997 0
256 93.7499999999265 124.9999999999813 0
257 93.7499999999265 140.6249999999897 0
258 93.7499999999265 156.2499999999911 0
259 93.7499999999265 171.8749999999926 0
260 93.74999999992649 187.4999999999941 0
261 93.7499999999265 203.1249999999956 0
262 93.7499999999265 218.749999999997 0
263 93.7499999999265 234.3749999999985 0
264 109.3749999999323 15.62499999999456 0
265 109.3749999999323 31.24999999999575 0
266 109.3749999999323 46.87499999997916 0
267 109.3749999999322 62.49999999996167 0
268 109.3749999999323 78.1249999999624 0
269 109.3749999999323 93.7499999999643 0
270 109.3749999999323 109.3749999999663 0
271 109.3749999999323 124.9999999999772 0
272 109.3749999999323 140.6249999999867 0
273 109.3749999999323 156.2499999999886 0
274 109.3749999999323 171.8749999999906 0
275 109.3749999999323 187.4999999999924 0
276 109.3749999999323 203.1249999999943 0
277 109.3749999999323 218.7499999999962 0
278 109.3749999999323 234.3749999999981 0
279 124.9999999999408 15.62499999999394 0
280 124.9999999999408 31.24999999999544 0
281 124.9999999999408 46.87499999997663 0
282 124.9999999999408 62.4999999999568 0
283 124.9999999999408 78.12499999995777 0
284 124.9999999999408 93.74999999996012 0
285 124.9999999999408 109.3749999999625 0
286 124.9999999999408 124.9999999999732 0
287 124.9999999999408 140.6249999999838 0
288 124.9999999999408 156.2499999999861 0
289 124.9999999999408 171.8749999999885 0
290 124.9999999999408 187.4999999999907 0
291 124.9999999999408 203.124999999993 0
292 124.9999999999408 218.7499999999953 0
293 124.9999999999408 234.3749999999977 0
294 140.6249999999603 15.6249999999933 0
295 140.6249999999604 31.24999999999513 0
296 140.6249999999603 46.8749999999741 0
297 140.6249999999604 62.49999999995191 0
298 140.6249999999603 78.12499999995313 0
299 140.6249999999604 93.74999999995592 0
300 140.6249999999604 109.3749999999587 0
301 140.6249999999603 124.9999999999691 0
302 140.6249999999603 140.6249999999809 0
303 140.6249999999603 156.2499999999836 0
304 140.6249999999604 171.8749999999863 0
305 140.6249999999604 187.499999999989 0
306 140.6249999999604 203.1249999999917 0
307 140.6249999999603 218.7499999999945 0
308 140.6249999999604 234.3749999999972 0
309 156.249999999966 15.62499999999268 0
310 156.2499999999661 31.24999999999482 0
311 156.249999999966 46.87499999997157 0
312 156.2499999999661 62.49999999994704 0
313 156.249999999966 78.1249999999485 0
314 156.249999999966 93.74999999995171 0
315 156.249999999966 109.3749999999549 0
316 156.2499999999661 124.9999999999651 0
317 156.2499999999661 140.624999999978 0
318 156.249999999966 156.2499999999811 0
319 156.249999999966 171.8749999999843 0
320 156.249999999966 187.4999999999874 0
321 156.249999999966 203.1249999999905 0
322 156.249999999966 218.7499999999937 0
323 156.249999999966 234.3749999999968 0
324 171.8749999999717 15.62499999999206 0
325 171.8749999999718 31.24999999999451 0
326 171.8749999999717 46.87499999996903 0
327 171.8749999999717 62.49999999994215 0
328 171.8749999999717 78.1249999999439 0
329 171.8749999999717 93.74999999994751 0
330 171.8749999999717 109.3749999999512 0
331 171.8749999999717 124.999999999961 0
332 171.8749999999717 140.624999999975 0
333 171.8749999999717 156.2499999999786 0
334 171.8749999999717 171.8749999999822 0
335 171.8749999999717 187.4999999999858 0
336 171.8749999999717 203.1249999999892 0
337 171.8749999999717 218.7499999999928 0
338 171.8749999999717 234.3749999999964 0
339 187.4999999999773 15.62499999999143 0
340 187.4999999999773 31.24999999999419 0
341 187.4999999999773 46.8749999999665 0
342 187.4999999999773 62.49999999993727 0
343 187.4999999999773 78.12499999993923 0
344 187.4999999999773 93.74999999994328 0
345 187.4999999999773 109.3749999999473 0
346 187.4999999999773 124.999999999957 0
347 187.4999999999773 140.6249999999721 0
348 187.4999999999773 156.2499999999761 0
349 187.4999999999773 171.8749999999801 0
350 187.4999999999773 187.499999999984 0
351 187.4999999999773 203.124999999988 0
352 187.4999999999773 218.749999999992 0
353 187.4999999999773 234.374999999996 0
354 203.124999999983 15.6249999999908 0
355 203.124999999983 31.24999999999388 0
356 203.1249999999829 46.87499999996397 0
357 203.124999999983 62.49999999993238 0
358 203.1249999999829 78.12499999993463 0
359 203.124999999983 93.74999999993909 0
360 203.1249999999829 109.3749999999436 0
361 203.1249999999829 124.999999999953 0
362 203.124999999983 140.6249999999692 0
363 203.1249999999829 156.2499999999736 0
364 203.1249999999829 171.874999999978 0
365 203.124999999983 187.4999999999823 0
366 203.124999999983 203.1249999999868 0
367 203.1249999999829 218.7499999999911 0
368 203.124999999983 234.3749999999956 0
369 218.7499999999887 15.62499999999017 0
370 218.7499999999887 31.24999999999358 0
371 218.7499999999887 46.87499999996145 0
372 218.7499999999887 62.49999999992752 0
373 218.7499999999887 78.12499999993 0
374 218.7499999999887 93.74999999993489 0
375 218.7499999999887 109.3749999999398 0
376 218.7499999999887 124.9999999999489 0
377 218.7499999999887 140.6249999999662 0
378 218.7499999999886 156.2499999999711 0
379 218.7499999999886 171.8749999999759 0
380 218.7499999999886 187.4999999999807 0
381 218.7499999999886 203.1249999999855 0
382 218.7499999999887 218.7499999999903 0
383 218.7499999999887 234.3749999999952 0
384 234.3749999999943 15.62499999998954 0
385 234.3749999999943 31.24999999999326 0
386 234.3749999999943 46.8749999999589 0
387 234.3749999999943 62.49999999992264 0
388 234.3749999999943 78.12499999992536 0
389 234.3749999999943 93.74999999993069 0
390 234.3749999999943 109.374999999936 0
391 234.3749999999943 124.9999999999449 0
392 234.3749999999943 140.6249999999633 0
393 234.3749999999943 156.2499999999686 0
394 234.3749999999943 171.8749999999739 0
395 234.3749999999943 187.499999999979 0
396 234.3749999999943 203.1249999999843 0
397 234.3749999999943 218.7499999999895 0
398 234.3749999999943 234.3749999999947 0
399 15.62499999998954 265.6250000000001 0
400 15.62499999999017 281.25 0
401 15.6249999999908 296.875 0
402 15.62499999999143 312.5000000000001 0
403 15.62499999999206 328.1250000000001 0
404 15.62499999999268 343.7500000000001 0
405 15.6249999999933 359.3750000000001 0
406 15.62499999999393 375.0000000000001 0
407 15.62499999999456 390.6250000000001 0
408 15.62499999999519 406.2500000000001 0
409 15.62499999999581 421.8750000000002 0
410 15.62499999999644 437.5000000000002 0
411 15.62499999999707 453.1250000000002 0
412 15.6249999999977 468.7499999999999 0
413 15.62499999999832 484.375 0
414 31.24999999999326 265.625 0
415 31.24999999999357 281.25 0
416 31.24999999999388 296.875 0
417 31.24999999999419 312.5000000000001 0
418 31.24999999999451 328.1250000000001 0
419 31.24999999999481 343.75 0
420 31.24999999999513 359.375 0
421 31.24999999999544 375 0
422 31.24999999999575 390.625 0
423 31.24999999999606 406.25 0
424 31.24999999999637 421.8750000000002 0
425 31.24999999999668 437.5000000000002 0
426 31.24999999999699 453.125 0
427 31.24999999999731 468.75 0
428 31.24999999999761 484.375 0
429 46.87499999995891 265.6250000000001 0
430 46.87499999996144 281.25 0
431 46.87499999996398 296.8750000000001 0
432 46.87499999996651 312.5000000000001 0
433 46.87499999996903 328.1250000000001 0
434 46.87499999997159 343.75 0
435 46.8749999999741 359.3750000000001 0
436 46.87499999997663 375 0
437 46.87499999997916 390.625 0
438 46.87499999998168 406.2500000000001 0
439 46.87499999998423 421.8750000000002 0
440 46.87499999998676 437.5000000000002 0
441 46.8749999999893 453.1250000000002 0
442 46.87499999999182 468.7499999999999 0
443 46.87499999999435 484.375 0
444 62.49999999992262 265.6250000000001 0
445 62.49999999992751 281.2500000000001 0
446 62.4999999999324 296.8750000000001 0
447 62.49999999993728 312.5000000000001 0
448 62.49999999994216 328.1250000000001 0
449 62.49999999994702 343.75 0
450 62.49999999995191 359.375 0
451 62.4999999999568 375 0
452 62.49999999996169 390.625 0
453 62.49999999996658 406.25 0
454 62.49999999997144 421.8750000000001 0
455 62.49999999997633 437.5000000000002 0
456 62.4999999999812 453.125 0
457 62.49999999998609 468.75 0
458 62.49999999999096 484.3749999999999 0
459 78.12499999992535 265.625 0
460 78.12499999993 281.25 0
461 78.12499999993463 296.875 0
462 78.12499999993923 312.5000000000001 0
463 78.1249999999439 328.1250000000001 0
464 78.1249999999485 343.75 0
465 78.12499999995313 359.375 0
466 78.12499999995777 375 0
467 78.12499999996237 390.6250000000001 0
468 78.124999999967 406.25 0
469 78.12499999997164 421.8750000000001 0
470 78.12499999997624 437.5000000000002 0
471 78.1249999999809 453.125 0
472 78.1249999999855 468.75 0
473 78.12499999999015 484.3750000000001 0
474 93.74999999993071 265.6250000000001 0
475 93.74999999993489 281.25 0
476 93.74999999993909 296.8750000000001 0
477 93.7499999999433 312.4999999999999 0
478 93.74999999994751 328.1249999999999 0
479 93.74999999995171 343.75 0
480 93.74999999995589 359.375 0
481 93.74999999996012 375.0000000000001 0
482 93.74999999996433 390.625 0
483 93.74999999996851 406.25 0
484 93.74999999997272 421.8750000000001 0
485 93.74999999997692 437.5000000000001 0
486 93.74999999998113 453.125 0
487 93.74999999998531 468.75 0
488 93.74999999998951 484.375 0
489 109.374999999936 265.6250000000001 0
490 109.3749999999398 281.2500000000001 0
491 109.3749999999436 296.875 0
492 109.3749999999474 312.5 0
493 109.3749999999511 328.1250000000001 0
494 109.3749999999549 343.75 0
495 109.3749999999587 359.375 0
496 109.3749999999625 375 0
497 109.3749999999663 390.625 0
498 109.37499999997 406.25 0
499 109.3749999999738 421.8750000000002 0
500 109.3749999999776 437.5000000000001 0
501 109.3749999999814 453.125 0
502 109.3749999999851 468.75 0
503 109.3749999999889 484.375 0
504 124.9999999999449 265.625 0
505 124.9999999999489 281.25 0
506 124.999999999953 296.875 0
507 124.999999999957 312.4999999999999 0
508 124.999999999961 328.1249999999999 0
509 124.9999999999651 343.75 0
510 124.9999999999691 359.375 0
511 124.9999999999732 375 0
512 124.9999999999772 390.625 0
513 124.9999999999813 406.25 0
514 124.9999999999853 421.8750000000002 0
515 124.9999999999894 437.5000000000001 0
516 124.9999999999934 453.1249999999999 0
517 124.9999999999974 468.7499999999999 0
518 125.0000000000015 484.3749999999999 0
519 140.6249999999633 265.625 0
520 140.6249999999663 281.25 0
521 140.6249999999692 296.8750000000001 0
522 140.6249999999721 312.4999999999999 0
523 140.624999999975 328.1249999999998 0
524 140.624999999978 343.75 0
525 140.6249999999809 359.375 0
526 140.6249999999838 374.9999999999999 0
527 140.6249999999868 390.625 0
528 140.6249999999897 406.25 0
529 140.6249999999926 421.8749999999999 0
530 140.6249999999955 437.5000000000001 0
531 140.6249999999985 453.1249999999999 0
532 140.6250000000014 468.75 0
533 140.6250000000043 484.375 0
534 156.2499999999686 265.625 0
535 156.2499999999711 281.2500000000001 0
536 156.2499999999736 296.8750000000001 0
537 156.2499999999761 312.4999999999998 0
538 156.2499999999786 328.1249999999998 0
539 156.2499999999811 343.75 0
540 156.2499999999836 359.375 0
541 156.2499999999861 375 0
542 156.2499999999886 390.625 0
543 156.2499999999911 406.25 0
544 156.2499999999936 421.875 0
545 156.2499999999962 437.4999999999999 0
546 156.2499999999987 453.125 0
547 156.2500000000012 468.75 0
548 156.2500000000038 484.375 0
549 171.8749999999738 265.625 0
550 171.8749999999758 281.2499999999999 0
551 171.874999999978 296.875 0
552 171.8749999999801 312.4999999999998 0
553 171.8749999999822 328.1249999999998 0
554 171.8749999999843 343.75 0
555 171.8749999999863 359.375 0
556 171.8749999999885 375 0
557 171.8749999999905 390.625 0
558 171.8749999999927 406.25 0
559 171.8749999999947 421.875 0
560 171.8749999999968 437.4999999999999 0
561 171.8749999999989 453.1249999999999 0
562 171.875000000001 468.7499999999999 0
563 171.875000000003 484.375 0
564 187.499999999979 265.6250000000001 0
565 187.4999999999807 281.25 0
566 187.4999999999824 296.8750000000001 0
567 187.499999999984 312.4999999999998 0
568 187.4999999999857 328.1249999999998 0
569 187.4999999999874 343.75 0
570 187.499999999989 359.3749999999999 0
571 187.4999999999907 375 0
572 187.4999999999924 390.625 0
573 187.4999999999941 406.2499999999999 0
574 187.4999999999957 421.8749999999999 0
575 187.4999999999974 437.4999999999999 0
576 187.4999999999992 453.125 0
577 187.5000000000008 468.75 0
578 187.5000000000024 484.375 0
579 203.1249999999842 265.6250000000001 0
580 203.1249999999855 281.2500000000001 0
581 203.1249999999867 296.875 0
582 203.1249999999881 312.4999999999998 0
583 203.1249999999892 328.1249999999998 0
584 203.1249999999905 343.75 0
585 203.1249999999918 359.3749999999999 0
586 203.124999999993 375 0
587 203.1249999999943 390.625 0
588 203.1249999999956 406.2499999999999 0
589 203.1249999999968 421.8749999999999 0
590 203.1249999999981 437.5 0
591 203.1249999999993 453.1249999999999 0
592 203.1250000000006 468.75 0
593 203.1250000000018 484.375 0
594 218.7499999999895 265.6250000000001 0
595 218.7499999999903 281.2500000000001 0
596 218.7499999999911 296.8749999999998 0
597 218.749999999992 312.4999999999998 0
598 218.7499999999928 328.1249999999998 0
599 218.7499999999937 343.7499999999999 0
600 218.7499999999945 359.3749999999999 0
601 218.7499999999953 374.9999999999999 0
602 218.7499999999962 390.6249999999999 0
603 218.749999999997 406.2499999999999 0
604 218.7499999999978 421.8749999999999 0
605 218.7499999999987 437.4999999999999 0
606 218.7499999999995 453.1250000000001 0
607 218.7500000000003 468.75 0
608 218.7500000000012 484.375 0
609 234.3749999999948 265.6250000000001 0
610 234.3749999999952 281.2500000000001 0
611 234.3749999999955 296.8749999999998 0
612 234.374999999996 312.4999999999998 0
613 234.3749999999964 328.1249999999998 0
614 234.3749999999968 343.7499999999999 0
615 234.3749999999973 359.3749999999999 0
616 234.3749999999977 375 0
617 234.3749999999981 390.6249999999999 0
618 234.3749999999985 406.2499999999999 0
619 234.3749999999989 421.875 0
620 234.3749999999994 437.4999999999999 0
621 234.3749999999997 453.1249999999999 0
622 234.3750000000002 468.7499999999999 0
623 234.3750000000006 484.3749999999999 0
624 265.7142857143579 265.6249999999999 0
625 265.714285714358 281.2499999999999 0
626 265.714285714358 296.8749999999999 0
627 265.7142857143579 312.4999999999999 0
628 265.7142857143579 328.1249999999998 0
629 265.7142857143579 343.7499999999999 0
630 265.714285714358 359.3749999999999 0
631 265.7142857143579 374.9999999999999 0
632 265.714285714358 390.6249999999999 0
633 265.7142857143579 406.2499999999999 0
634 265.7142857143578 421.8749999999999 0
635 265.7142857143578 437.4999999999999 0
636 265.7142857143578 453.1249999999999 0
637 265.7142857143579 468.7499999999999 0
638 265.7142857143578 484.3749999999999 0
639 281.4285714286381 265.625 0
640 281.4285714286381 281.2499999999999 0
641 281.4285714286381 296.8749999999999 0
642 281.4285714286381 312.4999999999998 0
643 281.4285714286381 328.1249999999999 0
644 281.4285714286381 343.7499999999999 0
645 281.4285714286381 359.3749999999999 0
646 281.4285714286381 374.9999999999999 0
647 281.4285714286381 390.6249999999999 0
648 281.4285714286381 406.2499999999999 0
649 281.4285714286381 421.8749999999998 0
650 281.4285714286381 437.5 0
651 281.4285714286381 453.1249999999999 0
652 281.4285714286381 468.75 0
653 281.4285714286381 484.375 0
654 297.1428571429183 265.6249999999999 0
655 297.1428571429183 281.2499999999999 0
656 297.1428571429182 296.8749999999999 0
657 297.1428571429182 312.4999999999998 0
658 297.1428571429182 328.1249999999998 0
659 297.1428571429182 343.7499999999999 0
660 297.1428571429182 359.3749999999999 0
661 297.1428571429182 374.9999999999999 0
662 297.1428571429182 390.6249999999999 0
663 297.1428571429182 406.2499999999999 0
664 297.1428571429182 421.8749999999999 0
665 297.1428571429182 437.4999999999999 0
666 297.1428571429182 453.1249999999999 0
667 297.1428571429182 468.75 0
668 297.1428571429181 484.375 0
669 312.8571428571984 265.6249999999999 0
670 312.8571428571984 281.2499999999999 0
671 312.8571428571984 296.8749999999999 0
672 312.8571428571985 312.4999999999998 0
673 312.8571428571985 328.1249999999998 0
674 312.8571428571984 343.7499999999999 0
675 312.8571428571985 359.3749999999999 0
676 312.8571428571984 374.9999999999999 0
677 312.8571428571984 390.6249999999999 0
678 312.8571428571984 406.2499999999999 0
679 312.8571428571983 421.8749999999999 0
680 312.8571428571984 437.4999999999998 0
681 312.8571428571984 453.1249999999999 0
682 312.8571428571983 468.7499999999999 0
683 312.8571428571983 484.375 0
684 328.5714285714786 265.6249999999999 0
685 328.5714285714785 281.2499999999999 0
686 328.5714285714786 296.8749999999999 0
687 328.5714285714786 312.4999999999998 0
688 328.5714285714786 328.1249999999998 0
689 328.5714285714786 343.7499999999999 0
690 328.5714285714786 359.3749999999999 0
691 328.5714285714785 374.9999999999999 0
692 328.5714285714785 390.6249999999999 0
693 328.5714285714785 406.2499999999999 0
694 328.5714285714785 421.8749999999999 0
695 328.5714285714785 437.5 0
696 328.5714285714785 453.125 0
697 328.5714285714784 468.75 0
698 328.5714285714784 484.375 0
699 344.2857142857587 265.6249999999998 0
700 344.2857142857587 281.2499999999999 0
701 344.2857142857588 296.8749999999999 0
702 344.2857142857587 312.4999999999997 0
703 344.2857142857586 328.1249999999997 0
704 344.2857142857587 343.7499999999999 0
705 344.2857142857586 359.3749999999999 0
706 344.2857142857587 374.9999999999999 0
707 344.2857142857587 390.6249999999999 0
708 344.2857142857587 406.2499999999999 0
709 344.2857142857586 421.8749999999999 0
710 344.2857142857586 437.4999999999998 0
711 344.2857142857586 453.1249999999999 0
712 344.2857142857586 468.75 0
713 344.2857142857586 484.375 0
714 360.0000000000391 265.6249999999999 0
715 360.0000000000389 281.2499999999999 0
716 360.0000000000389 296.8749999999999 0
717 360.0000000000389 312.4999999999999 0
718 360.0000000000389 328.1249999999998 0
719 360.0000000000389 343.7499999999999 0
720 360.0000000000389 359.3749999999999 0
721 360.0000000000389 374.9999999999999 0
722 360.0000000000389 390.6249999999999 0
723 360.0000000000389 406.2499999999999 0
724 360.0000000000389 421.8749999999999 0
725 360.0000000000389 437.4999999999999 0
726 360.0000000000389 453.1249999999999 0
727 360.0000000000389 468.75 0
728 360.0000000000388 484.375 0
729 375.7142857143191 265.6249999999999 0
730 375.714285714319 281.2499999999999 0
731 375.714285714319 296.8749999999999 0
732 375.7142857143191 312.4999999999998 0
733 375.7142857143191 328.1249999999998 0
734 375.714285714319 343.7499999999999 0
735 375.714285714319 359.3749999999999 0
736 375.7142857143189 374.9999999999999 0
737 375.714285714319 390.6249999999999 0
738 375.714285714319 406.2499999999999 0
739 375.714285714319 421.875 0
740 375.7142857143189 437.4999999999999 0
741 375.7142857143189 453.1249999999999 0
742 375.714285714319 468.75 0
743 375.714285714319 484.375 0
744 391.4285714285992 265.6249999999999 0
745 391.4285714285992 281.2499999999999 0
746 391.4285714285992 296.8749999999999 0
747 391.4285714285992 312.4999999999998 0
748 391.4285714285992 328.1249999999998 0
749 391.4285714285992 343.7499999999999 0
750 391.4285714285992 359.3749999999999 0
751 391.4285714285992 374.9999999999999 0
752 391.4285714285992 390.6249999999999 0
753 391.4285714285992 406.2499999999999 0
754 391.4285714285991 421.8749999999998 0
755 391.4285714285991 437.5 0
756 391.4285714285992 453.1250000000001 0
757 391.4285714285992 468.7499999999999 0
758 391.4285714285991 484.375 0
759 407.1428571428794 265.6249999999999 0
760 407.1428571428794 281.2499999999999 0
761 407.1428571428794 296.8749999999999 0
762 407.1428571428793 312.4999999999998 0
763 407.1428571428793 328.1249999999998 0
764 407.1428571428794 343.7499999999998 0
765 407.1428571428794 359.3749999999998 0
766 407.1428571428794 374.9999999999999 0
767 407.1428571428793 390.6249999999999 0
768 407.1428571428792 406.2499999999999 0
769 407.1428571428793 421.8749999999999 0
770 407.1428571428793 437.4999999999999 0
771 407.1428571428793 453.1249999999999 0
772 407.1428571428792 468.75 0
773 407.1428571428792 484.375 0
774 422.8571428571596 265.625 0
775 422.8571428571596 281.2499999999999 0
776 422.8571428571595 296.8749999999999 0
777 422.8571428571595 312.4999999999998 0
778 422.8571428571595 328.1249999999999 0
779 422.8571428571594 343.7499999999999 0
780 422.8571428571595 359.3749999999999 0
781 422.8571428571595 374.9999999999999 0
782 422.8571428571594 390.6249999999999 0
783 422.8571428571595 406.2499999999999 0
784 422.8571428571595 421.8749999999999 0
785 422.8571428571595 437.4999999999999 0
786 422.8571428571595 453.1249999999999 0
787 422.8571428571595 468.75 0
788 422.8571428571595 484.375 0
789 438.5714285714398 265.6249999999999 0
790 438.5714285714398 281.2499999999999 0
791 438.5714285714398 296.8749999999999 0
792 438.5714285714397 312.4999999999998 0
793 438.5714285714397 328.1249999999998 0
794 438.5714285714397 343.7499999999999 0
795 438.5714285714397 359.3749999999999 0
796 438.5714285714398 374.9999999999999 0
797 438.5714285714397 390.6249999999999 0
798 438.5714285714398 406.2499999999999 0
799 438.5714285714398 421.8749999999999 0
800 438.5714285714397 437.4999999999999 0
801 438.5714285714397 453.1249999999999 0
802 438.5714285714397 468.7499999999999 0
803 438.5714285714398 484.375 0
804 454.2857142857198 265.6249999999999 0
805 454.2857142857197 281.2500000000001 0
806 454.2857142857197 296.8749999999998 0
807 454.2857142857197 312.4999999999998 0
808 454.2857142857197 328.1249999999998 0
809 454.2857142857197 343.7499999999999 0
810 454.2857142857197 359.3749999999998 0
811 454.2857142857199 374.9999999999998 0
812 454.2857142857198 390.6249999999999 0
813 454.2857142857198 406.2499999999999 0
814 454.2857142857198 421.8749999999999 0
815 454.2857142857198 437.4999999999999 0
816 454.2857142857198 453.1249999999999 0
817 454.2857142857198 468.75 0
818 454.2857142857197 484.375 0
819 485 265.6249999999999 0
820 485 281.2499999999999 0
821 485 296.8749999999999 0
822 485 312.4999999999998 0
823 485 328.1249999999998 0
824 485 343.7499999999999 0
825 485 359.3749999999999 0
826 485 374.9999999999999 0
827 485 390.6249999999999 0
828 485 406.2499999999999 0
829 485 421.8749999999999 0
830 485 437.4999999999999 0
831 485 453.1249999999999 0
832 485 468.75 0
833 485 484.375 0
$EndNodes
$Elements
848
1 1 2 17 1 1 11
2 1 2 17 1 11 12
3 1 2 17 1 12 13
4 1 2 17 1 13 14
5 1 2 17 1 14 15
6 1 2 17 1 15 16
7 1 2 17 1 16 17
8 1 2 17 1 17 18
9 1 2 17 1 18 19
10 1 2 17 1 19 20
11 1 2 17 1 20 21
12 1 2 17 1 21 22
13 1 2 17 1 22 23
14 1 2 17 1 23 24
15 1 2 17 1 24 25
16 1 2 17 1 25 2
17 1 2 14 6 6 70
18 1 2 14 6 70 7
19 1 2 14 7 7 71
20 1 2 14 7 71 72
21 1 2 14 7 72 73
22 1 2 14 7 73 74
23 1 2 14 7 74 75
24 1 2 14 7 75 76
25 1 2 14 7 76 77
26 1 2 14 7 77 78
27 1 2 14 7 78 79
28 1 2 14 7 79 80
29 1 2 14 7 80 81
30 1 2 14 7 81 82
31 1 2 14 7 82 83
32 1 2 14 7 83 8
33 1 2 14 8 8 84
34 1 2 14 8 84 85
35 1 2 14 8 85 86
36 1 2 14 8 86 87
37 1 2 14 8 87 88
38 1 2 14 8 88 89
39 1 2 14 8 89 90
40 1 2 14 8 90 91
41 1 2 14 8 91 92
42 1 2 14 8 92 93
43 1 2 14 8 93 94
44 1 2 14 8 94 95
45 1 2 14 8 95 96
46 1 2 14 8 96 97
47 1 2 14 8 97 98
48 1 2 14 8 98 9
49 1 2 15 9 9 99
50 1 2 15 9 99 100
51 1 2 15 9 100 101
52 1 2 15 9 101 102
53 1 2 15 9 102 103
54 1 2 15 9 103 104
55 1 2 15 9 104 105
56 1 2 15 9 105 106
57 1 2 15 9 106 107
58 1 2 15 9 107 108
59 1 2 15 9 108 109
60 1 2 15 9 109 110
61 1 2 15 9 110 111
62 1 2 15 9 111 112
63 1 2 15 9 112 113
64 1 2 15 9 113 10
65 1 2 15 10 10 114
66 1 2 15 10 114 115
67 1 2 15 10 115 116
68 1 2 15 10 116 117
69 1 2 15 10 117 118
70 1 2 15 10 118 119
71 1 2 15 10 119 120
72 1 2 15 10 120 121
73 1 2 15 10 121 122
74 1 2 15 10 122 123
75 1 2 15 10 123 124
76 1 2 15 10 124 125
77 1 2 15 10 125 126
78 1 2 15 10 126 127
79 1 2 15 10 127 128
80 1 2 15 10 128 1
81 3 2 19 1 1 11 174 128
82 3 2 19 1 128 174 175 127
83 3 2 19 1 127 175 176 126
84 3 2 19 1 126 176 177 125
85 3 2 19 1 125 177 178 124
86 3 2 19 1 124 178 179 123
87 3 2 19 1 123 179 180 122
88 3 2 19 1 122 180 181 121
89 3 2 19 1 121 181 182 120
90 3 2 19 1 120 182 183 119
91 3 2 19 1 119 183 184 118
92 3 2 19 1 118 184 185 117
93 3 2 19 1 117 185 186 116
94 3 2 19 1 116 186 187 115
95 3 2 19 1 115 187 188 114
96 3 2 19 1 114 188 129 10
97 3 2 19 1 11 12 189 174
98 3 2 19 1 174 189 190 175
99 3 2 19 1 175 190 191 176
100 3 2 19 1 176 191 192 177
101 3 2 19 1 177 192 193 178
102 3 2 19 1 178 193 194 179
103 3 2 19 1 179 194 195 180
104 3 2 19 1 180 195 196 181
105 3 2 19 1 181 196 197 182
106 3 2 19 1 182 197 198 183
107 3 2 19 1 183 198 199 184
108 3 2 19 1 184 199 200 185
109 3 2 19 1 185 200 201 186
110 3 2 19 1 186 201 202 187
111 3 2 19 1 187 202 203 188
112 3 2 19 1 188 203 130 129
113 3 2 19 1 12 13 204 189
114 3 2 19 1 189 204 205 190
115 3 2 19 1 190 205 206 191
116 3 2 19 1 191 206 207 192
117 3 2 19 1 192 207 208 193
118 3 2 19 1 193 208 209 194
119 3 2 19 1 194 209 210 195
120 3 2 19 1 195 210 211 196
121 3 2 19 1 196 211 212 197
122 3 2 19 1 197 212 213 198
123 3 2 19 1 198 213 214 199
124 3 2 19 1 199 214 215 200
125 3 2 19 1 200 215 216 201
126 3 2 19 1 201 216 217 202
127 3 2 19 1 202 217 218 203
128 3 2 19 1 203 218 131 130
129 3 2 19 1 13 14 219 204
130 3 2 19 1 204 219 220 205
131 3 2 19 1 205 220 221 206
132 3 2 19 1 206 221 222 207
133 3 2 19 1 207 222 223 208
134 3 2 19 1 208 223 224 209
135 3 2 19 1 209 224 225 210
136 3 2 19 1 210 225 226 211
137 3 2 19 1 211 226 227 212
138 3 2 19 1 212 227 228 213
139 3 2 19 1 213 228 229 214
140 3 2 19 1 214 229 230 215
141 3 2 19 1 215 230 231 216
142 3 2 19 1 216 231 232 217
143 3 2 19 1 217 232 233 218
144 3 2 19 1 218 233 132 131
145 3 2 19 1 14 15 234 219
146 3 2 19 1 219 234 235 220
147 3 2 19 1 220 235 236 221
148 3 2 19 1 221 236 237 222
149 3 2 19 1 222 237 238 223
150 3 2 19 1 223 238 239 224
151 3 2 19 1 224 239 240 225
152 3 2 19 1 225 240 241 226
153 3 2 19 1 226 241 242 227
154 3 2 19 1 227 242 243 228
155 3 2 19 1 228 243 244 229
156 3 2 19 1 229 244 245 230
157 3 2 19 1 230 245 246 231
158 3 2 19 1 231 246 247 232
159 3 2 19 1 232 247 248 233
160 3 2 19 1 233 248 133 132
161 3 2 19 1 15 16 249 234
162 3 2 19 1 234 249 250 235
163 3 2 19 1 235 250 251 236
164 3 2 19 1 236 251 252 237
165 3 2 19 1 237 252 253 238
166 3 2 19 1 238 253 254 239
167 3 2 19 1 239 254 255 240
168 3 2 19 1 240 255 256 241
169 3 2 19 1 241 256 257 242
170 3 2 19 1 242 257 258 243
171 3 2 19 1 243 258 259 244
172 3 2 19 1 244 259 260 245
173 3 2 19 1 245 260 261 246
174 3 2 19 1 246 261 262 247
175 3 2 19 1 247 262 263 248
176 3 2 19 1 248 263 134 133
177 3 2 19 1 16 17 264 249
178 3 2 19 1 249 264 265 250
179 3 2 19 1 250 265 266 251
180 3 2 19 1 251 266 267 252
181 3 2 19 1 252 267 268 253
182 3 2 19 1 253 268 269 254
183 3 2 19 1 254 269 270 255
184 3 2 19 1 255 270 271 256
185 3 2 19 1 256 271 272 257
186 3 2 19 1 257 272 273 258
187 3 2 19 1 258 273 274 259
188 3 2 19 1 259 274 275 260
189 3 2 19 1 260 275 276 261
190 3 2 19 1 261 276 277 262
191 3 2 19 1 262 277 278 263
192 3 2 19 1 263 278 135 134
193 3 2 19 1 17 18 279 264
194 3 2 19 1 264 279 280 265
195 3 2 19 1 265 280 281 266
196 3 2 19 1 266 281 282 267
197 3 2 19 1 267 282 283 268
198 3 2 19 1 268 283 284 269
199 3 2 19 1 269 284 285 270
200 3 2 19 1 270 285 286 271
201 3 2 19 1 271 286 287 272
202 3 2 19 1 272 287 288 273
203 3 2 19 1 273 288 289 274
204 3 2 19 1 274 289 290 275
205 3 2 19 1 275 290 291 276
206 3 2 19 1 276 291 292 277
207 3 2 19 1 277 292 293 278
208 3 2 19 1 278 293 136 135
209 3 2 19 1 18 19 294 279
210 3 2 19 1 279 294 295 280
211 3 2 19 1 280 295 296 281
212 3 2 19 1 281 296 297 282
213 3 2 19 1 282 297 298 283
214 3 2 19 1 283 298 299 284
215 3 2 19 1 284 299 300 285
216 3 2 19 1 285 300 301 286
217 3 2 19 1 286 301 302 287
218 3 2 19 1 287 302 303 288
219 3 2 19 1 288 303 304 289
220 3 2 19 1 289 304 305 290
221 3 2 19 1 290 305 306 291
222 3 2 19 1 291 306 307 292
223 3 2 19 1 292 307 308 293
224 3 2 19 1 293 308 137 136
225 3 2 19 1 19 20 309 294
226 3 2 19 1 294 309 310 295
227 3 2 19 1 295 310 311 296
228 3 2 19 1 296 311 312 297
229 3 2 19 1 297 312 313 298
230 3 2 19 1 298 313 314 299
231 3 2 19 1 299 314 315 300
232 3 2 19 1 300 315 316 301
233 3 2 19 1 301 316 317 302
234 3 2 19 1 302 317 318 303
235 3 2 19 1 303 318 319 304
236 3 2 19 1 304 319 320 305
237 3 2 19 1 305 320 321 306
238 3 2 19 1 306 321 322 307
239 3 2 19 1 307 322 323 308
240 3 2 19 1 308 323 138 137
241 3 2 19 1 20 21 324 309
242 3 2 19 1 309 324 325 310
243 3 2 19 1 310 325 326 311
244 3 2 19 1 311 326 327 312
245 3 2 19 1 312 327 328 313
246 3 2 19 1 313 328 329 314
247 3 2 19 1 314 329 330 315
248 3 2 19 1 315 330 331 316
249 3 2 19 1 316 331 332 317
250 3 2 19 1 317 332 333 318
251 3 2 19 1 318 333 334 319
252 3 2 19 1 319 334 335 320
253 3 2 19 1 320 335 336 321
254 3 2 19 1 321 336 337 322
255 3 2 19 1 322 337 338 323
256 3 2 19 1 323 338 139 138
257 3 2 19 1 21 22 339 324
258 3 2 19 1 324 339 340 325
259 3 2 19 1 325 340 341 326
260 3 2 19 1 326 341 342 327
261 3 2 19 1 327 342 343 328
262 3 2 19 1 328 343 344 329
263 3 2 19 1 329 344 345 330
264 3 2 19 1 330 345 346 331
265 3 2 19 1 331 346 347 332
266 3 2 19 1 332 347 348 333
267 3 2 19 1 333 348 349 334
268 3 2 19 1 334 349 350 335
269 3 2 19 1 335 350 351 336
270 3 2 19 1 336 351 352 337
271 3 2 19 1 337 352 353 338
272 3 2 19 1 338 353 140 139
273 3 2 19 1 22 23 354 339
274 3 2 19 1 339 354 355 340
275 3 2 19 1 340 355 356 341
276 3 2 19 1 341 356 357 342
277 3 2 19 1 342 357 358 343
278 3 2 19 1 343 358 359 344
279 3 2 19 1 344 359 360 345
280 3 2 19 1 345 360 361 346
281 3 2 19 1 346 361 362 347
282 3 2 19 1 347 362 363 348
283 3 2 19 1 348 363 364 349
284 3 2 19 1 349 364 365 350
285 3 2 19 1 350 365 366 351
286 3 2 19 1 351 366 367 352
287 3 2 19 1 352 367 368 353
288 3 2 19 1 353 368 141 140
289 3 2 19 1 23 24 369 354
290 3 2 19 1 354 369 370 355
291 3 2 19 1 355 370 371 356
292 3 2 19 1 356 371 372 357
293 3 2 19 1 357 372 373 358
294 3 2 19 1 358 373 374 359
295 3 2 19 1 359 374 375 360
296 3 2 19 1 360 375 376 361
297 3 2 19 1 361 376 377 362
298 3 2 19 1 362 377 378 363
299 3 2 19 1 363 378 379 364
300 3 2 19 1 364 379 380 365
301 3 2 19 1 365 380 381 366
302 3 2 19 1 366 381 382 367
303 3 2 19 1 367 382 383 368
304 3 2 19 1 368 383 142 141
305 3 2 19 1 24 25 384 369
306 3 2 19 1 369 384 385 370
307 3 2 19 1 370 385 386 371
308 3 2 19 1 371 386 387 372
309 3 2 19 1 372 387 388 373
310 3 2 19 1 373 388 389 374
311 3 2 19 1 374 389 390 375
312 3 2 19 1 375 390 391 376
313 3 2 19 1 376 391 392 377
314 3 2 19 1 377 392 393 378
315 3 2 19 1 378 393 394 379
316 3 2 19 1 379 394 395 380
317 3 2 19 1 380 395 396 381
318 3 2 19 1 381 396 397 382
319 3 2 19 1 382 397 398 383
320 3 2 19 1 383 398 143 142
321 3 2 19 1 25 2 26 384
322 3 2 19 1 384 26 27 385
323 3 2 19 1 385 27 28 386
324 3 2 19 1 386 28 29 387
325 3 2 19 1 387 29 30 388
326 3 2 19 1 388 30 31 389
327 3 2 19 1 389 31 32 390
328 3 2 19 1 390 32 33 391
329 3 2 19 1 391 33 34 392
330 3 2 19 1 392 34 35 393
331 3 2 19 1 393 35 36 394
332 3 2 19 1 394 36 37 395
333 3 2 19 1 395 37 38 396
334 3 2 19 1 396 38 39 397
335 3 2 19 1 397 39 40 398
336 3 2 19 1 398 40 3 143
337 3 2 19 2 10 129 399 113
338 3 2 19 2 113 399 400 112
339 3 2 19 2 112 400 401 111
340 3 2 19 2 111 401 402 110
341 3 2 19 2 110 402 403 109
342 3 2 19 2 109 403 404 108
343 3 2 19 2 108 404 405 107
344 3 2 19 2 107 405 406 106
345 3 2 19 2 106 406 407 105
346 3 2 19 2 105 407 408 104
347 3 2 19 2 104 408 409 103
348 3 2 19 2 103 409 410 102
349 3 2 19 2 102 410 411 101
350 3 2 19 2 101 411 412 100
351 3 2 19 2 100 412 413 99
352 3 2 19 2 99 413 98 9
353 3 2 19 2 129 130 414 399
354 3 2 19 2 399 414 415 400
355 3 2 19 2 400 415 416 401
356 3 2 19 2 401 416 417 402
357 3 2 19 2 402 417 418 403
358 3 2 19 2 403 418 419 404
359 3 2 19 2 404 419 420 405
360 3 2 19 2 405 420 421 406
361 3 2 19 2 406 421 422 407
362 3 2 19 2 407 422 423 408
363 3 2 19 2 408 423 424 409
364 3 2 19 2 409 424 425 410
365 3 2 19 2 410 425 426 411
366 3 2 19 2 411 426 427 412
367 3 2 19 2 412 427 428 413
368 3 2 19 2 413 428 97 98
369 3 2 19 2 130 131 429 414
370 3 2 19 2 414 429 430 415
371 3 2 19 2 415 430 431 416
372 3 2 19 2 416 431 432 417
373 3 2 19 2 417 432 433 418
374 3 2 19 2 418 433 434 419
375 3 2 19 2 419 434 435 420
376 3 2 19 2 420 435 436 421
377 3 2 19 2 421 436 437 422
378 3 2 19 2 422 437 438 423
379 3 2 19 2 423 438 439 424
380 3 2 19 2 424 439 440 425
381 3 2 19 2 425 440 441 426
382 3 2 19 2 426 441 442 427
383 3 2 19 2 427 442 443 428
384 3 2 19 2 428 443 96 97
385 3 2 19 2 131 132 444 429
386 3 2 19 2 429 444 445 430
387 3 2 19 2 430 445 446 431
388 3 2 19 2 431 446 447 432
389 3 2 19 2 432 447 448 433
390 3 2 19 2 433 448 449 434
391 3 2 19 2 434 449 450 435
392 3 2 19 2 435 450 451 436
393 3 2 19 2 436 451 452 437
394 3 2 19 2 437 452 453 438
395 3 2 19 2 438 453 454 439
396 3 2 19 2 439 454 455 440
397 3 2 19 2 440 455 456 441
398 3 2 19 2 441 456 457 442
399 3 2 19 2 442 457 458 443
400 3 2 19 2 443 458 95 96
401 3 2 19 2 132 133 459 444
402 3 2 19 2 444 459 460 445
403 3 2 19 2 445 460 461 446
404 3 2 19 2 446 461 462 447
405 3 2 19 2 447 462 463 448
406 3 2 19 2 448 463 464 449
407 3 2 19 2 449 464 465 450
408 3 2 19 2 450 465 466 451
409 3 2 19 2 451 466 467 452
410 3 2 19 2 452 467 468 453
411 3 2 19 2 453 468 469 454
412 3 2 19 2 454 469 470 455
413 3 2 19 2 455 470 471 456
414 3 2 19 2 456 471 472 457
415 3 2 19 2 457 472 473 458
416 3 2 19 2 458 473 94 95
417 3 2 19 2 133 134 474 459
418 3 2 19 2 459 474 475 460
419 3 2 19 2 460 475 476 461
420 3 2 19 2 461 476 477 462
421 3 2 19 2 462 477 478 463
422 3 2 19 2 463 478 479 464
423 3 2 19 2 464 479 480 465
424 3 2 19 2 465 480 481 466
425 3 2 19 2 466 481 482 467
426 3 2 19 2 467 482 483 468
427 3 2 19 2 468 483 484 469
428 3 2 19 2 469 484 485 470
429 3 2 19 2 470 485 486 471
430 3 2 19 2 471 486 487 472
431 3 2 19 2 472 487 488 473
432 3 2 19 2 473 488 93 94
433 3 2 19 2 134 135 489 474
434 3 2 19 2 474 489 490 475
435 3 2 19 2 475 490 491 476
436 3 2 19 2 476 491 492 477
437 3 2 19 2 477 492 493 478
438 3 2 19 2 478 493 494 479
439 3 2 19 2 479 494 495 480
440 3 2 19 2 480 495 496 481
441 3 2 19 2 481 496 497 482
442 3 2 19 2 482 497 498 483
443 3 2 19 2 483 498 499 484
444 3 2 19 2 484 499 500 485
445 3 2 19 2 485 500 501 486
446 3 2 19 2 486 501 502 487
447 3 2 19 2 487 502 503 488
448 3 2 19 2 488 503 92 93
449 3 2 19 2 135 136 504 489
450 3 2 19 2 489 504 505 490
451 3 2 19 2 490 505 506 491
452 3 2 19 2 491 506 507 492
453 3 2 19 2 492 507 508 493
454 3 2 19 2 493 508 509 494
455 3 2 19 2 494 509 510 495
456 3 2 19 2 495 510 511 496
457 3 2 19 2 496 511 512 497
458 3 2 19 2 497 512 513 498
459 3 2 19 2 498 513 514 499
460 3 2 19 2 499 514 515 500
461 3 2 19 2 500 515 516 501
462 3 2 19 2 501 516 517 502
463 3 2 19 2 502 517 518 503
464 3 2 19 2 503 518 91 92
465 3 2 19 2 136 137 519 504
466 3 2 19 2 504 519 520 505
467 3 2 19 2 505 520 521 506
468 3 2 19 2 506 521 522 507
469 3 2 19 2 507 522 523 508
470 3 2 19 2 508 523 524 509
471 3 2 19 2 509 524 525 510
472 3 2 19 2 510 525 526 511
473 3 2 19 2 511 526 527 512
474 3 2 19 2 512 527 528 513
475 3 2 19 2 513 528 529 514
476 3 2 19 2 514 529 530 515
477 3 2 19 2 515 530 531 516
478 3 2 19 2 516 531 532 517
479 3 2 19 2 517 532 533 518
480 3 2 19 2 518 533 90 91
481 3 2 19 2 137 138 534 519
482 3 2 19 2 519 534 535 520
483 3 2 19 2 520 535 536 521
484 3 2 19 2 521 536 537 522
485 3 2 19 2 522 537 538 523
486 3 2 19 2 523 538 539 524
487 3 2 19 2 524 539 540 525
488 3 2 19 2 525 540 541 526
489 3 2 19 2 526 541 542 527
490 3 2 19 2 527 542 543 528
491 3 2 19 2 528 543 544 529
492 3 2 19 2 529 544 545 530
493 3 2 19 2 530 545 546 531
494 3 2 19 2 531 546 547 532
495 3 2 19 2 532 547 548 533
496 3 2 19 2 533 548 89 90
497 3 2 19 2 138 139 549 534
498 3 2 19 2 534 549 550 535
499 3 2 19 2 535 550 551 536
500 3 2 19 2 536 551 552 537
501 3 2 19 2 537 552 553 538
502 3 2 19 2 538 553 554 539
503 3 2 19 2 539 554 555 540
504 3 2 19 2 540 555 556 541
505 3 2 19 2 541 556 557 542
506 3 2 19 2 542 557 558 543
507 3 2 19 2 543 558 559 544
508 3 2 19 2 544 559 560 545
509 3 2 19 2 545 560 561 546
510 3 2 19 2 546 561 562 547
511 3 2 19 2 547 562 563 548
512 3 2 19 2 548 563 88 89
513 3 2 19 2 139 140 564 549
514 3 2 19 2 549 564 565 550
515 3 2 19 2 550 565 566 551
516 3 2 19 2 551 566 567 552
517 3 2 19 2 552 567 568 553
518 3 2 19 2 553 568 569 554
519 3 2 19 2 554 569 570 555
520 3 2 19 2 555 570 571 556
521 3 2 19 2 556 571 572 557
522 3 2 19 2 557 572 573 558
523 3 2 19 2 558 573 574 559
524 3 2 19 2 559 574 575 560
525 3 2 19 2 560 575 576 561
526 3 2 19 2 561 576 577 562
527 3 2 19 2 562 577 578 563
528 3 2 19 2 563 578 87 88
529 3 2 19 2 140 141 579 564
530 3 2 19 2 564 579 580 565
531 3 2 19 2 565 580 581 566
532 3 2 19 2 566 581 582 567
533 3 2 19 2 567 582 583 568
534 3 2 19 2 568 583 584 569
535 3 2 19 2 569 584 585 570
536 3 2 19 2 570 585 586 571
537 3 2 19 2 571 586 587 572
538 3 2 19 2 572 587 588 573
539 3 2 19 2 573 588 589 574
540 3 2 19 2 574 589 590 575
541 3 2 19 2 575 590 591 576
542 3 2 19 2 576 591 592 577
543 3 2 19 2 577 592 593 578
544 3 2 19 2 578 593 86 87
545 3 2 19 2 141 142 594 579
546 3 2 19 2 579 594 595 580
547 3 2 19 2 580 595 596 581
548 3 2 19 2 581 596 597 582
549 3 2 19 2 582 597 598 583
550 3 2 19 2 583 598 599 584
551 3 2 19 2 584 599 600 585
552 3 2 19 2 585 600 601 586
553 3 2 19 2 586 601 602 587
554 3 2 19 2 587 602 603 588
555 3 2 19 2 588 603 604 589
556 3 2 19 2 589 604 605 590
557 3 2 19 2 590 605 606 591
558 3 2 19 2 591 606 607 592
559 3 2 19 2 592 607 608 593
560 3 2 19 2 593 608 85 86
561 3 2 19 2 142 143 609 594
562 3 2 19 2 594 609 610 595
563 3 2 19 2 595 610 611 596
564 3 2 19 2 596 611 612 597
565 3 2 19 2 597 612 613 598
566 3 2 19 2 598 613 614 599
567 3 2 19 2 599 614 615 600
568 3 2 19 2 600 615 616 601
569 3 2 19 2 601 616 617 602
570 3 2 19 2 602 617 618 603
571 3 2 19 2 603 618 619 604
572 3 2 19 2 604 619 620 605
573 3 2 19 2 605 620 621 606
574 3 2 19 2 606 621 622 607
575 3 2 19 2 607 622 623 608
576 3 2 19 2 608 623 84 85
577 3 2 19 2 143 3 144 609
578 3 2 19 2 609 144 145 610
579 3 2 19 2 610 145 146 611
580 3 2 19 2 611 146 147 612
581 3 2 19 2 612 147 148 613
582 3 2 19 2 613 148 149 614
583 3 2 19 2 614 149 150 615
584 3 2 19 2 615 150 151 616
585 3 2 19 2 616 151 152 617
586 3 2 19 2 617 152 153 618
587 3 2 19 2 618 153 154 619
588 3 2 19 2 619 154 155 620
589 3 2 19 2 620 155 156 621
590 3 2 19 2 621 156 157 622
591 3 2 19 2 622 157 158 623
592 3 2 19 2 623 158 8 84
593 3 2 19 3 3 41 624 144
594 3 2 19 3 144 624 625 145
595 3 2 19 3 145 625 626 146
596 3 2 19 3 146 626 627 147
597 3 2 19 3 147 627 628 148
598 3 2 19 3 148 628 629 149
599 3 2 19 3 149 629 630 150
600 3 2 19 3 150 630 631 151
601 3 2 19 3 151 631 632 152
602 3 2 19 3 152 632 633 153
603 3 2 19 3 153 633 634 154
604 3 2 19 3 154 634 635 155
605 3 2 19 3 155 635 636 156
606 3 2 19 3 156 636 637 157
607 3 2 19 3 157 637 638 158
608 3 2 19 3 158 638 83 8
609 3 2 19 3 41 42 639 624
610 3 2 19 3 624 639 640 625
611 3 2 19 3 625 640 641 626
612 3 2 19 3 626 641 642 627
613 3 2 19 3 627 642 643 628
614 3 2 19 3 628 643 644 629
615 3 2 19 3 629 644 645 630
616 3 2 19 3 630 645 646 631
617 3 2 19 3 631 646 647 632
618 3 2 19 3 632 647 648 633
619 3 2 19 3 633 648 649 634
620 3 2 19 3 634 649 650 635
621 3 2 19 3 635 650 651 636
622 3 2 19 3 636 651 652 637
623 3 2 19 3 637 652 653 638
624 3 2 19 3 638 653 82 83
625 3 2 19 3 42 43 654 639
626 3 2 19 3 639 654 655 640
627 3 2 19 3 640 655 656 641
628 3 2 19 3 641 656 657 642
629 3 2 19 3 642 657 658 643
630 3 2 19 3 643 658 659 644
631 3 2 19 3 644 659 660 645
632 3 2 19 3 645 660 661 646
633 3 2 19 3 646 661 662 647
634 3 2 19 3 647 662 663 648
635 3 2 19 3 648 663 664 649
636 3 2 19 3 649 664 665 650
637 3 2 19 3 650 665 666 651
638 3 2 19 3 651 666 667 652
639 3 2 19 3 652 667 668 653
640 3 2 19 3 653 668 81 82
641 3 2 19 3 43 44 669 654
642 3 2 19 3 654 669 670 655
643 3 2 19 3 655 670 671 656
644 3 2 19 3 656 671 672 657
645 3 2 19 3 657 672 673 658
646 3 2 19 3 658 673 674 659
647 3 2 19 3 659 674 675 660
648 3 2 19 3 660 675 676 661
649 3 2 19 3 661 676 677 662
650 3 2 19 3 662 677 678 663
651 3 2 19 3 663 678 679 664
652 3 2 19 3 664 679 680 665
653 3 2 19 3 665 680 681 666
654 3 2 19 3 666 681 682 667
655 3 2 19 3 667 682 683 668
656 3 2 19 3 668 683 80 81
657 3 2 19 3 44 45 684 669
658 3 2 19 3 669 684 685 670
659 3 2 19 3 670 685 686 671
660 3 2 19 3 671 686 687 672
661 3 2 19 3 672 687 688 673
662 3 2 19 3 673 688 689 674
663 3 2 19 3 674 689 690 675
664 3 2 19 3 675 690 691 676
665 3 2 19 3 676 691 692 677
666 3 2 19 3 677 692 693 678
667 3 2 19 3 678 693 694 679
668 3 2 19 3 679 694 695 680
669 3 2 19 3 680 695 696 681
670 3 2 19 3 681 696 697 682
671 3 2 19 3 682 697 698 683
672 3 2 19 3 683 698 79 80
673 3 2 19 3 45 46 699 684
674 3 2 19 3 684 699 700 685
675 3 2 19 3 685 700 701 686
676 3 2 19 3 686 701 702 687
677 3 2 19 3 687 702 703 688
678 3 2 19 3 688 703 704 689
679 3 2 19 3 689 704 705 690
680 3 2 19 3 690 705 706 691
681 3 2 19 3 691 706 707 692
682 3 2 19 3 692 707 708 693
683 3 2 19 3 693 708 709 694
684 3 2 19 3 694 709 710 695
685 3 2 19 3 695 710 711 696
686 3 2 19 3 696 711 712 697
687 3 2 19 3 697 712 713 698
688 3 2 19 3 698 713 78 79
689 3 2 19 3 46 47 714 699
690 3 2 19 3 699 714 715 700
691 3 2 19 3 700 715 716 701
692 3 2 19 3 701 716 717 702
693 3 2 19 3 702 717 718 703
694 3 2 19 3 703 718 719 704
695 3 2 19 3 704 719 720 705
696 3 2 19 3 705 720 721 706
697 3 2 19 3 706 721 722 707
698 3 2 19 3 707 722 723 708
699 3 2 19 3 708 723 724 709
700 3 2 19 3 709 724 725 710
701 3 2 19 3 710 725 726 711
702 3 2 19 3 711 726 727 712
703 3 2 19 3 712 727 728 713
704 3 2 19 3 713 728 77 78
705 3 2 19 3 47 48 729 714
706 3 2 19 3 714 729 730 715
707 3 2 19 3 715 730 731 716
708 3 2 19 3 716 731 732 717
709 3 2 19 3 717 732 733 718
710 3 2 19 3 718 733 734 719
711 3 2 19 3 719 734 735 720
712 3 2 19 3 720 735 736 721
713 3 2 19 3 721 736 737 722
714 3 2 19 3 722 737 738 723
715 3 2 19 3 723 738 739 724
716 3 2 19 3 724 739 740 725
717 3 2 19 3 725 740 741 726
718 3 2 19 3 726 741 742 727
719 3 2 19 3 727 742 743 728
720 3 2 19 3 728 743 76 77
721 3 2 19 3 48 49 744 729
722 3 2 19 3 729 744 745 730
723 3 2 19 3 730 745 746 731
724 3 2 19 3 731 746 747 732
725 3 2 19 3 732 747 748 733
726 3 2 19 3 733 748 749 734
727 3 2 19 3 734 749 750 735
728 3 2 19 3 735 750 751 736
729 3 2 19 3 736 751 752 737
730 3 2 19 3 737 752 753 738
731 3 2 19 3 738 753 754 739
732 3 2 19 3 739 754 755 740
733 3 2 19 3 740 755 756 741
734 3 2 19 3 741 756 757 742
735 3 2 19 3 742 757 758 743
736 3 2 19 3 743 758 75 76
737 3 2 19 3 49 50 759 744
738 3 2 19 3 744 759 760 745
739 3 2 19 3 745 760 761 746
740 3 2 19 3 746 761 762 747
741 3 2 19 3 747 762 763 748
742 3 2 19 3 748 763 764 749
743 3 2 19 3 749 764 765 750
744 3 2 19 3 750 765 766 751
745 3 2 19 3 751 766 767 752
746 3 2 19 3 752 767 768 753
747 3 2 19 3 753 768 769 754
748 3 2 19 3 754 769 770 755
749 3 2 19 3 755 770 771 756
750 3 2 19 3 756 771 772 757
751 3 2 19 3 757 772 773 758
752 3 2 19 3 758 773 74 75
753 3 2 19 3 50 51 774 759
754 3 2 19 3 759 774 775 760
755 3 2 19 3 760 775 776 761
756 3 2 19 3 761 776 777 762
757 3 2 19 3 762 777 778 763
758 3 2 19 3 763 778 779 764
759 3 2 19 3 764 779 780 765
760 3 2 19 3 765 780 781 766
761 3 2 19 3 766 781 782 767
762 3 2 19 3 767 782 783 768
763 3 2 19 3 768 783 784 769
764 3 2 19 3 769 784 785 770
765 3 2 19 3 770 785 786 771
766 3 2 19 3 771 786 787 772
767 3 2 19 3 772 787 788 773
768 3 2 19 3 773 788 73 74
769 3 2 19 3 51 52 789 774
770 3 2 19 3 774 789 790 775
771 3 2 19 3 775 790 791 776
772 3 2 19 3 776 791 792 777
773 3 2 19 3 777 792 793 778
774 3 2 19 3 778 793 794 779
775 3 2 19 3 779 794 795 780
776 3 2 19 3 780 795 796 781
777 3 2 19 3 781 796 797 782
778 3 2 19 3 782 797 798 783
779 3 2 19 3 783 798 799 784
780 3 2 19 3 784 799 800 785
781 3 2 19 3 785 800 801 786
782 3 2 19 3 786 801 802 787
783 3 2 19 3 787 802 803 788
784 3 2 19 3 788 803 72 73
785 3 2 19 3 52 53 804 789
786 3 2 19 3 789 804 805 790
787 3 2 19 3 790 805 806 791
788 3 2 19 3 791 806 807 792
789 3 2 19 3 792 807 808 793
790 3 2 19 3 793 808 809 794
791 3 2 19 3 794 809 810 795
792 3 2 19 3 795 810 811 796
793 3 2 19 3 796 811 812 797
794 3 2 19 3 797 812 813 798
795 3 2 19 3 798 813 814 799
796 3 2 19 3 799 814 815 800
797 3 2 19 3 800 815 816 801
798 3 2 19 3 801 816 817 802
799 3 2 19 3 802 817 818 803
800 3 2 19 3 803 818 71 72
801 3 2 19 3 53 4 159 804
802 3 2 19 3 804 159 160 805
803 3 2 19 3 805 160 161 806
804 3 2 19 3 806 161 162 807
805 3 2 19 3 807 162 163 808
806 3 2 19 3 808 163 164 809
807 3 2 19 3 809 164 165 810
808 3 2 19 3 810 165 166 811
809 3 2 19 3 811 166 167 812
810 3 2 19 3 812 167 168 813
811 3 2 19 3 813 168 169 814
812 3 2 19 3 814 169 170 815
813 3 2 19 3 815 170 171 816
814 3 2 19 3 816 171 172 817
815 3 2 19 3 817 172 173 818
816 3 2 19 3 818 173 7 71
817 3 2 19 4 4 54 819 159
818 3 2 19 4 159 819 820 160
819 3 2 19 4 160 820 821 161
820 3 2 19 4 161 821 822 162
821 3 2 19 4 162 822 823 163
822 3 2 19 4 163 823 824 164
823 3 2 19 4 164 824 825 165
824 3 2 19 4 165 825 826 166
825 3 2 19 4 166 826 827 167
826 3 2 19 4 167 827 828 168
827 3 2 19 4 168 828 829 169
828 3 2 19 4 169 829 830 170
829 3 2 19 4 170 830 831 171
830 3 2 19 4 171 831 832 172
831 3 2 19 4 172 832 833 173
832 3 2 19 4 173 833 70 7
833 3 2 19 4 54 5 55 819
834 3 2 19 4 819 55 56 820
835 3 2 19 4 820 56 57 821
836 3 2 19 4 821 57 58 822
837 3 2 19 4 822 58 59 823
838 3 2 19 4 823 59 60 824
839 3 2 19 4 824 60 61 825
840 3 2 19 4 825 61 62 826
841 3 2 19 4 826 62 63 827
842 3 2 19 4 827 63 64 828
843 3 2 19 4 828 64 65 829
844 3 2 19 4 829 65 66 830
845 3 2 19 4 830 66 67 831
846 3 2 19 4 831 67 68 832
847 3 2 19 4 832 68 69 833
848 3 2 19 4 833 69 6 70
$EndElements
