$MeshFormat
2.2 0 8
$EndMeshFormat
$PhysicalNames
11
1 6 "Bottom"
1 7 "Top"
1 8 "LeftBoundary"
1 9 "RightBoundary"
1 10 "LeftCrack"
1 11 "RightCrack"
2 1 "Region_Left_Lower"
2 2 "Region_Left_Upper"
2 3 "Region_Middle"
2 4 "Region_Right_Lower"
2 5 "Region_Right_Upper"
$EndPhysicalNames
$Nodes
132
1 0 0 0
2 0.2 0 0
3 0.8 0 0
4 1 0 0
5 0 1 0
6 0.2 1 0
7 0.8 1 0
8 1 1 0
9 0 0.6 0
10 0.2 0.6 0
11 0 0.7 0
12 0.2 0.7 0
13 0.8 0.3 0
14 1 0.3 0
15 0.8 0.4 0
16 1 0.4 0
17 0.0999999999997371 0 0
18 0.2857142857141294 0 0
19 0.3714285714281288 0 0
20 0.4571428571421699 0 0
21 0.5428571428564355 0 0
22 0.6285714285709301 0 0
23 0.7142857142854775 0 0
24 0.8999999999998264 0 0
25 0.0999999999997371 1 0
26 0.2857142857141294 1 0
27 0.3714285714281288 1 0
28 0.4571428571421699 1 0
29 0.5428571428564355 1 0
30 0.6285714285709301 1 0
31 0.7142857142854775 1 0
32 0.8999999999998264 1 0
33 0 0.09999999999979349 0
34 0 0.1999999999995076 0
35 0 0.299999999999238 0
36 0 0.3999999999994956 0
37 0 0.499999999999746 0
38 0 0.799999999999819 0
39 0 0.8999999999998334 0
40 1 0.0999999999997538 0
41 1 0.1999999999997478 0
42 1 0.4999999999998663 0
43 1 0.5999999999994291 0
44 1 0.6999999999991873 0
45 1 0.7999999999994654 0
46 1 0.8999999999997217 0
47 0.2 0.09999999999979349 0
48 0.2 0.1999999999995076 0
49 0.2 0.299999999999238 0
50 0.2 0.3999999999994956 0
51 0.2 0.499999999999746 0
52 0.2 0.799999999999819 0
53 0.2 0.8999999999998334 0
54 0.8 0.0999999999997538 0
55 0.8 0.1999999999997478 0
56 0.8 0.4999999999998663 0
57 0.8 0.5999999999994291 0
58 0.8 0.6999999999991873 0
59 0.8 0.7999999999994654 0
60 0.8 0.8999999999997217 0
61 0.0999999999997371 0.6 0
62 0.100000000000274 0.7 0
63 0.8999999999998264 0.3 0
64 0.9000000000001737 0.4 0
65 0.09999999999992923 0.09999999999978347 0
66 0.09999999999997977 0.1999999999995469 0
67 0.09999999999998989 0.2999999999993891 0
68 0.09999999999997976 0.3999999999995341 0
69 0.09999999999992921 0.4999999999997564 0
70 0.1000000000000555 0.7999999999998813 0
71 0.09999999999994817 0.8999999999998869 0
72 0.2857142857141213 0.09999999999982212 0
73 0.285714285714139 0.1999999999996407 0
74 0.2857142857141531 0.2999999999995207 0
75 0.2857142857141612 0.3999999999996015 0
76 0.2857142857141652 0.4999999999997323 0
77 0.2857142857141659 0.5999999999998559 0
78 0.2857142857141621 0.6999999999998856 0
79 0.2857142857141504 0.7999999999998557 0
80 0.2857142857141304 0.8999999999998942 0
81 0.3714285714282377 0.09999999999985756 0
82 0.3714285714283025 0.1999999999997326 0
83 0.3714285714283379 0.2999999999996588 0
84 0.3714285714283559 0.3999999999996738 0
85 0.3714285714283639 0.4999999999997289 0
86 0.3714285714283645 0.5999999999997879 0
87 0.3714285714283542 0.6999999999998222 0
88 0.3714285714283227 0.7999999999998479 0
89 0.3714285714282535 0.8999999999999079 0
90 0.4571428571424059 0.09999999999988475 0
91 0.4571428571425178 0.1999999999997914 0
92 0.4571428571425722 0.2999999999997355 0
93 0.4571428571425984 0.3999999999997216 0
94 0.4571428571426096 0.4999999999997304 0
95 0.4571428571426094 0.5999999999997484 0
96 0.4571428571425926 0.6999999999997749 0
97 0.4571428571425424 0.7999999999998223 0
98 0.4571428571424251 0.8999999999999004 0
99 0.5428571428566863 0.09999999999989981 0
100 0.5428571428568068 0.1999999999998268 0
101 0.5428571428568657 0.2999999999997857 0
102 0.5428571428568941 0.399999999999759 0
103 0.5428571428569059 0.499999999999734 0
104 0.5428571428569051 0.599999999999713 0
105 0.5428571428568857 0.6999999999997222 0
106 0.5428571428568306 0.7999999999997809 0
107 0.5428571428567047 0.8999999999998797 0
108 0.6285714285710804 0.09999999999989775 0
109 0.6285714285711673 0.1999999999998422 0
110 0.6285714285712137 0.2999999999998292 0
111 0.6285714285712372 0.3999999999998011 0
112 0.628571428571247 0.4999999999997425 0
113 0.628571428571246 0.5999999999996647 0
114 0.6285714285712295 0.6999999999996405 0
115 0.6285714285711858 0.7999999999997152 0
116 0.6285714285710945 0.8999999999998453 0
117 0.7142857142855328 0.0999999999998631 0
118 0.7142857142855744 0.1999999999998286 0
119 0.7142857142855994 0.2999999999998866 0
120 0.7142857142856125 0.3999999999998697 0
121 0.7142857142856182 0.4999999999997707 0
122 0.7142857142856173 0.599999999999582 0
123 0.7142857142856077 0.699999999999491 0
124 0.7142857142855843 0.799999999999612 0
125 0.7142857142855403 0.899999999999793 0
126 0.8999999999999422 0.09999999999983507 0
127 0.8999999999999421 0.1999999999998327 0
128 0.9000000000000464 0.4999999999998089 0
129 0.9000000000000116 0.599999999999503 0
130 0.8999999999999999 0.6999999999993451 0
131 0.8999999999999885 0.7999999999995031 0
132 0.8999999999999536 0.8999999999997366 0
$EndNodes
$Elements
156
1 1 2 6 1 1 17
2 1 2 6 1 17 2
3 1 2 6 2 2 18
4 1 2 6 2 18 19
5 1 2 6 2 19 20
6 1 2 6 2 20 21
7 1 2 6 2 21 22
8 1 2 6 2 22 23
9 1 2 6 2 23 3
10 1 2 6 3 3 24
11 1 2 6 3 24 4
12 1 2 7 4 5 25
13 1 2 7 4 25 6
14 1 2 7 5 6 26
15 1 2 7 5 26 27
16 1 2 7 5 27 28
17 1 2 7 5 28 29
18 1 2 7 5 29 30
19 1 2 7 5 30 31
20 1 2 7 5 31 7
21 1 2 7 6 7 32
22 1 2 7 6 32 8
23 1 2 8 7 1 33
24 1 2 8 7 33 34
25 1 2 8 7 34 35
26 1 2 8 7 35 36
27 1 2 8 7 36 37
28 1 2 8 7 37 9
29 1 2 8 8 11 38
30 1 2 8 8 38 39
31 1 2 8 8 39 5
32 1 2 9 9 4 40
33 1 2 9 9 40 41
34 1 2 9 9 41 14
35 1 2 9 10 16 42
36 1 2 9 10 42 43
37 1 2 9 10 43 44
38 1 2 9 10 44 45
39 1 2 9 10 45 46
40 1 2 9 10 46 8
41 1 2 10 12 10 12
42 1 2 11 15 13 15
43 1 2 10 17 9 61
44 1 2 10 17 61 10
45 1 2 10 18 12 62
46 1 2 10 18 62 11
47 1 2 11 19 13 63
48 1 2 11 19 63 14
49 1 2 11 20 16 64
50 1 2 11 20 64 15
51 3 2 1 22 1 17 65 33
52 3 2 1 22 33 65 66 34
53 3 2 1 22 34 66 67 35
54 3 2 1 22 35 67 68 36
55 3 2 1 22 36 68 69 37
56 3 2 1 22 37 69 61 9
57 3 2 1 22 17 2 47 65
58 3 2 1 22 65 47 48 66
59 3 2 1 22 66 48 49 67
60 3 2 1 22 67 49 50 68
61 3 2 1 22 68 50 51 69
62 3 2 1 22 69 51 10 61
63 3 2 2 24 11 62 70 38
64 3 2 2 24 38 70 71 39
65 3 2 2 24 39 71 25 5
66 3 2 2 24 62 12 52 70
67 3 2 2 24 70 52 53 71
68 3 2 2 24 71 53 6 25
69 3 2 3 26 2 18 72 47
70 3 2 3 26 47 72 73 48
71 3 2 3 26 48 73 74 49
72 3 2 3 26 49 74 75 50
73 3 2 3 26 50 75 76 51
74 3 2 3 26 51 76 77 10
75 3 2 3 26 10 77 78 12
76 3 2 3 26 12 78 79 52
77 3 2 3 26 52 79 80 53
78 3 2 3 26 53 80 26 6
79 3 2 3 26 18 19 81 72
80 3 2 3 26 72 81 82 73
81 3 2 3 26 73 82 83 74
82 3 2 3 26 74 83 84 75
83 3 2 3 26 75 84 85 76
84 3 2 3 26 76 85 86 77
85 3 2 3 26 77 86 87 78
86 3 2 3 26 78 87 88 79
87 3 2 3 26 79 88 89 80
88 3 2 3 26 80 89 27 26
89 3 2 3 26 19 20 90 81
90 3 2 3 26 81 90 91 82
91 3 2 3 26 82 91 92 83
92 3 2 3 26 83 92 93 84
93 3 2 3 26 84 93 94 85
94 3 2 3 26 85 94 95 86
95 3 2 3 26 86 95 96 87
96 3 2 3 26 87 96 97 88
97 3 2 3 26 88 97 98 89
98 3 2 3 26 89 98 28 27
99 3 2 3 26 20 21 99 90
100 3 2 3 26 90 99 100 91
101 3 2 3 26 91 100 101 92
102 3 2 3 26 92 101 102 93
103 3 2 3 26 93 102 103 94
104 3 2 3 26 94 103 104 95
105 3 2 3 26 95 104 105 96
106 3 2 3 26 96 105 106 97
107 3 2 3 26 97 106 107 98
108 3 2 3 26 98 107 29 28
109 3 2 3 26 21 22 108 99
110 3 2 3 26 99 108 109 100
111 3 2 3 26 100 109 110 101
112 3 2 3 26 101 110 111 102
113 3 2 3 26 102 111 112 103
114 3 2 3 26 103 112 113 104
115 3 2 3 26 104 113 114 105
116 3 2 3 26 105 114 115 106
117 3 2 3 26 106 115 116 107
118 3 2 3 26 107 116 30 29
119 3 2 3 26 22 23 117 108
120 3 2 3 26 108 117 118 109
121 3 2 3 26 109 118 119 110
122 3 2 3 26 110 119 120 111
123 3 2 3 26 111 120 121 112
124 3 2 3 26 112 121 122 113
125 3 2 3 26 113 122 123 114
126 3 2 3 26 114 123 124 115
127 3 2 3 26 115 124 125 116
128 3 2 3 26 116 125 31 30
129 3 2 3 26 23 3 54 117
130 3 2 3 26 117 54 55 118
131 3 2 3 26 118 55 13 119
132 3 2 3 26 119 13 15 120
133 3 2 3 26 120 15 56 121
134 3 2 3 26 121 56 57 122
135 3 2 3 26 122 57 58 123
136 3 2 3 26 123 58 59 124
137 3 2 3 26 124 59 60 125
138 3 2 3 26 125 60 7 31
139 3 2 4 28 3 24 126 54
140 3 2 4 28 54 126 127 55
141 3 2 4 28 55 127 63 13
142 3 2 4 28 24 4 40 126
143 3 2 4 28 126 40 41 127
144 3 2 4 28 127 41 14 63
145 3 2 5 30 15 64 128 56
146 3 2 5 30 56 128 129 57
147 3 2 5 30 57 129 130 58
148 3 2 5 30 58 130 131 59
149 3 2 5 30 59 131 132 60
150 3 2 5 30 60 132 32 7
151 3 2 5 30 64 16 42 128
152 3 2 5 30 128 42 43 129
153 3 2 5 30 129 43 44 130
154 3 2 5 30 130 44 45 131
155 3 2 5 30 131 45 46 132
156 3 2 5 30 132 46 8 32
$EndElements
