$MeshFormat
4.1 0 8
$EndMeshFormat
$PhysicalNames
1
2 1 "materialID"
$EndPhysicalNames
$Entities
18 26 9 0
100 0 0 0 0 
101 0.4 0 0 0 
102 0.6 0 0 0 
103 1 0 0 0 
200 0 0.45 0 0 
201 0.4 0.45 0 0 
202 0.6 0.45 0 0 
301 0.4 0.55 0 0 
302 0.6 0.55 0 0 
303 1 0.55 0 0 
400 0 1 0 0 
401 0.4 1 0 0 
402 0.6 1 0 0 
403 1 1 0 0 
900 1 0.445 0 0 
901 1 0.455 0 0 
902 0 0.545 0 0 
903 0 0.555 0 0 
1000 0 0 0 0.4 0 0 0 2 100 -101 
1001 0.4 0 0 0.6 0 0 0 2 101 -102 
1002 0.6 0 0 1 0 0 0 2 102 -103 
1100 0 0.45 0 0.4 0.45 0 0 2 200 -201 
1101 0.4 0.45 0 0.6 0.45 0 0 2 201 -202 
1201 0.4 0.55 0 0.6 0.55 0 0 2 301 -302 
1202 0.6 0.55 0 1 0.55 0 0 2 302 -303 
1300 0 1 0 0.4 1 0 0 2 400 -401 
1301 0.4 1 0 0.6 1 0 0 2 401 -402 
1302 0.6 1 0 1 1 0 0 2 402 -403 
1800 0.6 0.445 0 1 0.45 0 0 2 202 -900 
1801 0.6 0.45 0 1 0.455 0 0 2 202 -901 
1810 0 0.545 0 0.4 0.55 0 0 2 902 -301 
1811 0 0.55 0 0.4 0.555 0 0 2 903 -301 
1900 0 0 0 0 0.45 0 0 2 100 -200 
1901 0.4 0 0 0.4 0.45 0 0 2 101 -201 
1902 0.6 0 0 0.6 0.45 0 0 2 102 -202 
1903 1 0 0 1 0.445 0 0 2 103 -900 
2000 0 0.45 0 0 0.545 0 0 2 200 -902 
2001 0.4 0.45 0 0.4 0.55 0 0 2 201 -301 
2002 0.6 0.45 0 0.6 0.55 0 0 2 202 -302 
2003 1 0.455 0 1 0.55 0 0 2 901 -303 
2100 0 0.555 0 0 1 0 0 2 903 -400 
2101 0.4 0.55 0 0.4 1 0 0 2 301 -401 
2102 0.6 0.55 0 0.6 1 0 0 2 302 -402 
2103 1 0.55 0 1 1 0 0 2 303 -403 
3000 0 0 0 0.4 0.45 0 1 1 4 1000 1901 -1100 -1900 
3001 0.4 0 0 0.6 0.45 0 1 1 4 1001 1902 -1101 -1901 
3002 0.6 0 0 1 0.45 0 1 1 4 1002 1903 -1800 -1902 
3100 0 0.45 0 0.4 0.55 0 1 1 4 1100 2001 -1810 -2000 
3101 0.4 0.45 0 0.6 0.55 0 1 1 4 1101 2002 -1201 -2001 
3102 0.6 0.45 0 1 0.55 0 1 1 4 1801 2003 -1202 -2002 
3200 0 0.55 0 0.4 1 0 1 1 4 1811 2101 -1300 -2100 
3201 0.4 0.55 0 0.6 1 0 1 1 4 1201 2102 -1301 -2101 
3202 0.6 0.55 0 1 1 0 1 1 4 1202 2103 -1302 -2102 
$EndEntities
$Nodes
53 478 1 478
0 100 0 1
1
0 0 0
0 101 0 1
2
0.4 0 0
0 102 0 1
3
0.6 0 0
0 103 0 1
4
1 0 0
0 200 0 1
5
0 0.45 0
0 201 0 1
6
0.4 0.45 0
0 202 0 1
7
0.6 0.45 0
0 301 0 1
8
0.4 0.55 0
0 302 0 1
9
0.6 0.55 0
0 303 0 1
10
1 0.55 0
0 400 0 1
11
0 1 0
0 401 0 1
12
0.4 1 0
0 402 0 1
13
0.6 1 0
0 403 0 1
14
1 1 0
0 900 0 1
15
1 0.445 0
0 901 0 1
16
1 0.455 0
0 902 0 1
17
0 0.545 0
0 903 0 1
18
0 0.555 0
1 1000 0 7
19
20
21
22
23
24
25
0.04999999999991424 0 0
0.09999999999976666 0 0
0.1499999999996177 0 0
0.1999999999994742 0 0
0.2499999999996016 0 0
0.2999999999997344 0 0
0.3499999999998726 0 0
1 1001 0 3
26
27
28
0.4499999999998861 0 0
0.4999999999997613 0 0
0.5499999999998753 0 0
1 1002 0 7
29
30
31
32
33
34
35
0.6499999999998645 0 0
0.6999999999997288 0 0
0.7499999999995931 0 0
0.7999999999994574 0 0
0.8499999999995822 0 0
0.8999999999997068 0 0
0.9499999999998534 0 0
1 1100 0 7
36
37
38
39
40
41
42
0.04999999999991424 0.45 0
0.09999999999976666 0.45 0
0.1499999999996177 0.45 0
0.1999999999994742 0.45 0
0.2499999999996016 0.45 0
0.2999999999997344 0.45 0
0.3499999999998726 0.45 0
1 1101 0 3
43
44
45
0.4499999999998861 0.45 0
0.4999999999997613 0.45 0
0.5499999999998753 0.45 0
1 1201 0 3
46
47
48
0.4499999999998861 0.55 0
0.4999999999997613 0.55 0
0.5499999999998753 0.55 0
1 1202 0 7
49
50
51
52
53
54
55
0.6499999999998645 0.55 0
0.6999999999997288 0.55 0
0.7499999999995931 0.55 0
0.7999999999994574 0.55 0
0.8499999999995822 0.55 0
0.8999999999997068 0.55 0
0.9499999999998534 0.55 0
1 1300 0 7
56
57
58
59
60
61
62
0.04999999999991424 1 0
0.09999999999976666 1 0
0.1499999999996177 1 0
0.1999999999994742 1 0
0.2499999999996016 1 0
0.2999999999997344 1 0
0.3499999999998726 1 0
1 1301 0 3
63
64
65
0.4499999999998861 1 0
0.4999999999997613 1 0
0.5499999999998753 1 0
1 1302 0 7
66
67
68
69
70
71
72
0.6499999999998645 1 0
0.6999999999997288 1 0
0.7499999999995931 1 0
0.7999999999994574 1 0
0.8499999999995822 1 0
0.8999999999997068 1 0
0.9499999999998534 1 0
1 1800 0 7
73
74
75
76
77
78
79
0.6499999999998645 0.4493750000000017 0
0.6999999999997291 0.4487500000000034 0
0.7499999999995937 0.4481250000000051 0
0.799999999999458 0.4475000000000068 0
0.8499999999995829 0.4468750000000052 0
0.8999999999997075 0.4462500000000036 0
0.9499999999998539 0.4456250000000018 0
1 1801 0 7
80
81
82
83
84
85
86
0.6499999999998645 0.4506249999999983 0
0.6999999999997291 0.4512499999999966 0
0.7499999999995937 0.4518749999999949 0
0.799999999999458 0.4524999999999932 0
0.8499999999995829 0.4531249999999948 0
0.8999999999997075 0.4537499999999964 0
0.9499999999998539 0.4543749999999982 0
1 1810 0 7
87
88
89
90
91
92
93
0.04999999999991384 0.5456249999999989 0
0.09999999999976664 0.5462499999999971 0
0.1499999999996167 0.5468749999999952 0
0.1999999999994734 0.5474999999999934 0
0.2499999999996012 0.5481249999999951 0
0.2999999999997333 0.5487499999999967 0
0.3499999999998728 0.5493749999999985 0
1 1811 0 7
94
95
96
97
98
99
100
0.04999999999991384 0.5543750000000012 0
0.09999999999976664 0.553750000000003 0
0.1499999999996167 0.5531250000000049 0
0.1999999999994734 0.5525000000000067 0
0.2499999999996012 0.551875000000005 0
0.2999999999997333 0.5512500000000033 0
0.3499999999998728 0.5506250000000016 0
1 1900 0 8
101
102
103
104
105
106
107
108
0 0.04999999999991076 0
0 0.099999999999775 0
0 0.1499999999996296 0
0 0.1999999999994842 0
0 0.2499999999994708 0
0 0.2999999999996076 0
0 0.3499999999997384 0
0 0.3999999999998692 0
1 1901 0 8
109
110
111
112
113
114
115
116
0.4 0.04999999999991076 0
0.4 0.099999999999775 0
0.4 0.1499999999996296 0
0.4 0.1999999999994842 0
0.4 0.2499999999994708 0
0.4 0.2999999999996076 0
0.4 0.3499999999997384 0
0.4 0.3999999999998692 0
1 1902 0 8
117
118
119
120
121
122
123
124
0.6 0.04999999999991076 0
0.6 0.099999999999775 0
0.6 0.1499999999996296 0
0.6 0.1999999999994842 0
0.6 0.2499999999994708 0
0.6 0.2999999999996076 0
0.6 0.3499999999997384 0
0.6 0.3999999999998692 0
1 1903 0 8
125
126
127
128
129
130
131
132
1 0.04944444444436234 0
1 0.09888888888867603 0
1 0.148333333332967 0
1 0.1977777777772784 0
1 0.2472222222217218 0
1 0.2966666666662063 0
1 0.3461111111108525 0
1 0.3955555555553997 0
1 2000 0 2
133
134
0 0.4816666666666088 0
0 0.5133333333332393 0
1 2001 0 2
135
136
0.4 0.4833333333333154 0
0.4 0.5166666666666957 0
1 2002 0 2
137
138
0.6 0.4833333333333154 0
0.6 0.5166666666666957 0
1 2003 0 2
139
140
1 0.4866666666666015 0
1 0.5183333333332537 0
1 2100 0 8
141
142
143
144
145
146
147
148
0 0.6044444444443506 0
0 0.6538888888885928 0
0 0.7033333333329649 0
0 0.7527777777772311 0
0 0.8022222222216491 0
0 0.851666666666291 0
0 0.9011111111108872 0
0 0.9505555555554015 0
1 2101 0 8
149
150
151
152
153
154
155
156
0.4 0.5999999999998242 0
0.4 0.6499999999996605 0
0.4 0.6999999999995016 0
0.4 0.7499999999994292 0
0.4 0.799999999999487 0
0.4 0.8499999999996677 0
0.4 0.8999999999998314 0
0.4 0.9499999999999157 0
1 2102 0 8
157
158
159
160
161
162
163
164
0.6 0.5999999999998242 0
0.6 0.6499999999996605 0
0.6 0.6999999999995016 0
0.6 0.7499999999994292 0
0.6 0.799999999999487 0
0.6 0.8499999999996677 0
0.6 0.8999999999998314 0
0.6 0.9499999999999157 0
1 2103 0 8
165
166
167
168
169
170
171
172
1 0.5999999999998242 0
1 0.6499999999996605 0
1 0.6999999999995016 0
1 0.7499999999994292 0
1 0.799999999999487 0
1 0.8499999999996677 0
1 0.8999999999998314 0
1 0.9499999999999157 0
2 3000 0 56
173
174
175
176
177
178
179
180
181
182
183
184
185
186
187
188
189
190
191
192
193
194
195
196
197
198
199
200
201
202
203
204
205
206
207
208
209
210
211
212
213
214
215
216
217
218
219
220
221
222
223
224
225
226
227
228
0.04999999999991483 0.04999999999990953 0
0.04999999999992831 0.09999999999980866 0
0.04999999999994024 0.1499999999997114 0
0.04999999999994662 0.199999999999638 0
0.04999999999994662 0.2499999999996318 0
0.04999999999994025 0.2999999999996973 0
0.04999999999992833 0.349999999999789 0
0.04999999999991485 0.3999999999998922 0
0.09999999999981682 0.04999999999991873 0
0.0999999999998582 0.09999999999983873 0
0.09999999999988599 0.1499999999997693 0
0.09999999999989966 0.1999999999997245 0
0.09999999999989966 0.2499999999997212 0
0.099999999999886 0.299999999999761 0
0.09999999999985822 0.3499999999998281 0
0.0999999999998168 0.3999999999999106 0
0.1499999999997275 0.0499999999999266 0
0.1499999999998017 0.0999999999998582 0
0.1499999999998458 0.1499999999998026 0
0.1499999999998663 0.1999999999997696 0
0.1499999999998663 0.2499999999997675 0
0.1499999999998459 0.2999999999997974 0
0.1499999999998017 0.3499999999998518 0
0.1499999999997275 0.3999999999999221 0
0.1999999999996738 0.04999999999992951 0
0.1999999999997754 0.09999999999986484 0
0.1999999999998294 0.1499999999998134 0
0.1999999999998534 0.1999999999997837 0
0.1999999999998534 0.249999999999782 0
0.1999999999998295 0.2999999999998091 0
0.1999999999997754 0.3499999999998597 0
0.1999999999996738 0.399999999999926 0
0.2499999999997181 0.0499999999999266 0
0.2499999999997966 0.09999999999985817 0
0.2499999999998431 0.1499999999998026 0
0.2499999999998644 0.1999999999997696 0
0.2499999999998645 0.2499999999997675 0
0.249999999999843 0.2999999999997974 0
0.2499999999997966 0.3499999999998518 0
0.2499999999997181 0.3999999999999221 0
0.2999999999998003 0.04999999999991872 0
0.2999999999998501 0.09999999999983872 0
0.2999999999998818 0.1499999999997693 0
0.299999999999897 0.1999999999997245 0
0.299999999999897 0.2499999999997212 0
0.2999999999998818 0.2999999999997611 0
0.2999999999998501 0.3499999999998282 0
0.2999999999998003 0.3999999999999105 0
0.3499999999998987 0.04999999999990953 0
0.3499999999999215 0.09999999999980864 0
0.349999999999937 0.1499999999997114 0
0.3499999999999446 0.199999999999638 0
0.3499999999999446 0.2499999999996318 0
0.3499999999999369 0.2999999999996973 0
0.3499999999999214 0.349999999999789 0
0.3499999999998986 0.3999999999998921 0
2 3001 0 24
229
230
231
232
233
234
235
236
237
238
239
240
241
242
243
244
245
246
247
248
249
250
251
252
0.4499999999999377 0.04999999999989743 0
0.4499999999999683 0.0999999999997833 0
0.4499999999999834 0.149999999999673 0
0.4499999999999895 0.1999999999995904 0
0.4499999999999894 0.2499999999995833 0
0.4499999999999834 0.2999999999996564 0
0.4499999999999683 0.3499999999997604 0
0.4499999999999377 0.3999999999998777 0
0.4999999999998965 0.04999999999989566 0
0.499999999999952 0.09999999999978774 0
0.4999999999999758 0.1499999999996887 0
0.4999999999999849 0.1999999999996213 0
0.4999999999999848 0.2499999999996156 0
0.4999999999999758 0.2999999999996743 0
0.4999999999999519 0.3499999999997691 0
0.4999999999998964 0.3999999999998812 0
0.5499999999999348 0.04999999999989743 0
0.5499999999999674 0.0999999999997833 0
0.5499999999999831 0.149999999999673 0
0.5499999999999894 0.1999999999995905 0
0.5499999999999894 0.2499999999995833 0
0.5499999999999832 0.2999999999996564 0
0.5499999999999673 0.3499999999997604 0
0.5499999999999347 0.3999999999998777 0
2 3002 0 56
253
254
255
256
257
258
259
260
261
262
263
264
265
266
267
268
269
270
271
272
273
274
275
276
277
278
279
280
281
282
283
284
285
286
287
288
289
290
291
292
293
294
295
296
297
298
299
300
301
302
303
304
305
306
307
308
0.6499999999998938 0.04993001063159216 0
0.6499999999999174 0.09986004207632983 0
0.6499999999999333 0.1497901183931108 0
0.6499999999999412 0.1997202707611367 0
0.649999999999941 0.24965054290622 0
0.649999999999933 0.299580999925951 0
0.649999999999917 0.3495117451364289 0
0.6499999999998932 0.39944295842056 0
0.6999999999997929 0.0498601960897434 0
0.6999999999998425 0.0997204303290205 0
0.6999999999998746 0.1495807466770498 0
0.69999999999989 0.1994412016649156 0
0.69999999999989 0.2493018733073249 0
0.6999999999998742 0.2991628739781212 0
0.6999999999998421 0.3490243703513071 0
0.6999999999997927 0.3988866156626279 0
0.7499999999997069 0.04979053823411942 0
0.7499999999997853 0.09958112594538243 0
0.7499999999998326 0.1493718199904175 0
0.7499999999998544 0.1991626930128556 0
0.7499999999998546 0.2489538439737901 0
0.7499999999998324 0.2987454119343469 0
0.7499999999997851 0.3485375938952091 0
0.7499999999997066 0.3983306658040854 0
0.7999999999996558 0.04972102497340985 0
0.7999999999997596 0.09944210322199418 0
0.7999999999998159 0.1491632959148975 0
0.7999999999998412 0.1988846810470278 0
0.7999999999998413 0.2486063644355841 0
0.7999999999998157 0.2983284936086545 0
0.7999999999997598 0.3480512745339156 0
0.7999999999996563 0.3977749884674919 0
0.8499999999997006 0.04965165181397059 0
0.849999999999782 0.09930335272007106 0
0.8499999999998308 0.1489551591685193 0
0.8499999999998532 0.1986071433858826 0
0.8499999999998533 0.2482594039994167 0
0.8499999999998308 0.297912080081439 0
0.8499999999997825 0.3475653695137453 0
0.8499999999997015 0.3972195507018415 0
0.8999999999997831 0.0495824223360059 0
0.8999999999998377 0.09916488220975514 0
0.899999999999872 0.1487474229231785 0
0.8999999999998881 0.1983301003034768 0
0.8999999999998884 0.2479129917357883 0
0.8999999999998721 0.2974962094355196 0
0.8999999999998384 0.3470799213290276 0
0.899999999999784 0.3966643850620719 0
0.9499999999998877 0.04951334759639428 0
0.9499999999999142 0.09902671548051745 0
0.9499999999999313 0.1485401271317642 0
0.9499999999999397 0.1980536130690341 0
0.9499999999999398 0.2475672163326854 0
0.9499999999999317 0.2970810015832424 0
0.9499999999999148 0.3465950727908239 0
0.9499999999998883 0.3961096139795026 0
2 3100 0 14
309
310
311
312
313
314
315
316
317
318
319
320
321
322
0.04999999999990042 0.4818738981771794 0
0.0499999999999003 0.5137485674208724 0
0.09999999999976707 0.4820819408280971 0
0.09999999999976705 0.51416490661678 0
0.1499999999996348 0.4822901959074153 0
0.1499999999996346 0.5145814891641748 0
0.1999999999995442 0.4824985071432161 0
0.1999999999995439 0.5149981310997868 0
0.2499999999996201 0.4827068456761673 0
0.2499999999996198 0.5154148011636627 0
0.2999999999997395 0.4829152452878283 0
0.2999999999997391 0.5158315365636138 0
0.3499999999998713 0.4831238720400895 0
0.3499999999998713 0.5162485343573243 0
2 3101 0 6
323
324
325
326
327
328
0.4499999999998985 0.483333333333332 0
0.4499999999998984 0.5166666666666709 0
0.4999999999998245 0.4833333333333334 0
0.4999999999998245 0.5166666666666681 0
0.5499999999998927 0.4833333333333321 0
0.5499999999998926 0.5166666666666709 0
2 3102 0 14
329
330
331
332
333
334
335
336
337
338
339
340
341
342
0.6499999999998654 0.4837514656426761 0
0.6499999999998655 0.5168761279599121 0
0.6999999999997332 0.4841684634363824 0
0.6999999999997331 0.5170847547121701 0
0.74999999999961 0.4845851988363308 0
0.7499999999996098 0.5172931543238295 0
0.7999999999995253 0.4850018689002049 0
0.799999999999525 0.5175014928567794 0
0.8499999999996 0.4854185108358166 0
0.8499999999995997 0.5177098040925794 0
0.8999999999997166 0.4858350933832069 0
0.8999999999997162 0.5179180591718923 0
0.9499999999998557 0.486251432579089 0
0.9499999999998555 0.5181261018227853 0
2 3200 0 56
343
344
345
346
347
348
349
350
351
352
353
354
355
356
357
358
359
360
361
362
363
364
365
366
367
368
369
370
371
372
373
374
375
376
377
378
379
380
381
382
383
384
385
386
387
388
389
390
391
392
393
394
395
396
397
398
0.04999999999991491 0.6038903860197962 0
0.04999999999992828 0.6534049272079983 0
0.04999999999993997 0.7029189984153563 0
0.0499999999999462 0.7524327836659331 0
0.0499999999999461 0.8019463869298299 0
0.0499999999999397 0.8514598728675129 0
0.0499999999999279 0.900973284519148 0
0.04999999999991464 0.9504866524035182 0
0.09999999999981676 0.6033356149370179 0
0.09999999999985784 0.6529200786695515 0
0.09999999999988532 0.7025037905629513 0
0.09999999999989878 0.75208700826291 0
0.09999999999989867 0.80166989969567 0
0.09999999999988503 0.8512525770764833 0
0.09999999999985738 0.900835117790301 0
0.09999999999981629 0.9504175776641838 0
0.1499999999997269 0.6027804492972588 0
0.1499999999998008 0.6524346304849404 0
0.1499999999998448 0.7020879199172979 0
0.1499999999998651 0.751740595999724 0
0.149999999999865 0.8013928566138401 0
0.1499999999998446 0.8510448408317566 0
0.1499999999998006 0.9006966472805225 0
0.1499999999997267 0.9503483481865529 0
0.1999999999996724 0.6022250115317768 0
0.1999999999997739 0.6519487254651117 0
0.199999999999828 0.7016715063905823 0
0.199999999999852 0.7513936355641737 0
0.199999999999852 0.8011153189533626 0
0.1999999999998281 0.8508367040860102 0
0.1999999999997742 0.9005578967791036 0
0.1999999999996729 0.9502789750274027 0
0.2499999999997165 0.6016693341954177 0
0.2499999999997951 0.6514624061042246 0
0.2499999999998417 0.7012545880653935 0
0.2499999999998632 0.7510461560264957 0
0.2499999999998633 0.8008373069880244 0
0.2499999999998421 0.8506281800108918 0
0.2499999999997958 0.9004188740559932 0
0.2499999999997175 0.9502094617668302 0
0.2999999999997989 0.6011133843370757 0
0.2999999999998487 0.6509756296484136 0
0.2999999999998806 0.7008371260218832 0
0.299999999999896 0.7506981266931271 0
0.2999999999998961 0.8005587983360094 0
0.2999999999998812 0.8504192533242027 0
0.2999999999998496 0.9002795696722414 0
0.2999999999998 0.9501398039111049 0
0.3499999999998979 0.600557041579224 0
0.3499999999999207 0.6504882548633066 0
0.3499999999999363 0.7004190000738781 0
0.3499999999999441 0.7503494570938145 0
0.3499999999999442 0.8002797292391861 0
0.3499999999999366 0.8502098816074768 0
0.3499999999999212 0.900139957924334 0
0.3499999999998986 0.9500699893688739 0
2 3201 0 24
399
400
401
402
403
404
405
406
407
408
409
410
411
412
413
414
415
416
417
418
419
420
421
422
0.4499999999999376 0.5999999999998458 0
0.4499999999999683 0.6499999999997059 0
0.4499999999999834 0.6999999999995947 0
0.4499999999999894 0.7499999999995479 0
0.4499999999999895 0.7999999999995845 0
0.4499999999999835 0.8499999999996901 0
0.4499999999999683 0.8999999999998086 0
0.4499999999999377 0.9499999999999073 0
0.4999999999998964 0.5999999999998535 0
0.4999999999999519 0.6499999999997221 0
0.4999999999999758 0.6999999999996237 0
0.4999999999999848 0.7499999999995831 0
0.4999999999999848 0.7999999999996128 0
0.4999999999999759 0.8499999999996996 0
0.499999999999952 0.8999999999998056 0
0.4999999999998964 0.9499999999999049 0
0.5499999999999348 0.5999999999998459 0
0.5499999999999674 0.6499999999997058 0
0.5499999999999832 0.6999999999995947 0
0.5499999999999893 0.7499999999995479 0
0.5499999999999893 0.7999999999995844 0
0.5499999999999832 0.8499999999996901 0
0.5499999999999675 0.8999999999998086 0
0.5499999999999348 0.9499999999999071 0
2 3202 0 56
423
424
425
426
427
428
429
430
431
432
433
434
435
436
437
438
439
440
441
442
443
444
445
446
447
448
449
450
451
452
453
454
455
456
457
458
459
460
461
462
463
464
465
466
467
468
469
470
471
472
473
474
475
476
477
478
0.649999999999894 0.5999999999998651 0
0.6499999999999178 0.6499999999997421 0
0.6499999999999336 0.6999999999996435 0
0.6499999999999415 0.7499999999996011 0
0.6499999999999414 0.7999999999996323 0
0.6499999999999336 0.8499999999997255 0
0.6499999999999176 0.8999999999998302 0
0.6499999999998938 0.9499999999999174 0
0.6999999999997933 0.5999999999998937 0
0.6999999999998431 0.6499999999997991 0
0.6999999999998753 0.6999999999997292 0
0.6999999999998907 0.749999999999699 0
0.6999999999998908 0.7999999999997159 0
0.6999999999998753 0.849999999999772 0
0.6999999999998431 0.8999999999998464 0
0.6999999999997933 0.9499999999999229 0
0.7499999999997073 0.5999999999999103 0
0.7499999999997862 0.6499999999998316 0
0.7499999999998336 0.699999999999775 0
0.7499999999998554 0.74999999999975 0
0.7499999999998557 0.7999999999997601 0
0.7499999999998337 0.8499999999998008 0
0.7499999999997862 0.8999999999998604 0
0.7499999999997073 0.9499999999999286 0
0.7999999999996568 0.5999999999999157 0
0.7999999999997608 0.6499999999998423 0
0.7999999999998172 0.6999999999997897 0
0.7999999999998424 0.749999999999766 0
0.7999999999998424 0.799999999999774 0
0.7999999999998172 0.8499999999998101 0
0.7999999999997608 0.8999999999998651 0
0.7999999999996565 0.9499999999999305 0
0.8499999999997014 0.5999999999999103 0
0.8499999999997829 0.6499999999998316 0
0.8499999999998319 0.699999999999775 0
0.8499999999998545 0.74999999999975 0
0.8499999999998545 0.7999999999997602 0
0.849999999999832 0.8499999999998006 0
0.8499999999997833 0.8999999999998601 0
0.8499999999997014 0.9499999999999283 0
0.8999999999997838 0.5999999999998935 0
0.8999999999998384 0.649999999999799 0
0.8999999999998728 0.6999999999997292 0
0.8999999999998894 0.749999999999699 0
0.8999999999998893 0.7999999999997158 0
0.8999999999998729 0.849999999999772 0
0.8999999999998385 0.8999999999998463 0
0.8999999999997836 0.949999999999923 0
0.9499999999998878 0.599999999999865 0
0.9499999999999145 0.649999999999742 0
0.949999999999932 0.6999999999996436 0
0.9499999999999404 0.7499999999996011 0
0.9499999999999404 0.7999999999996321 0
0.949999999999932 0.8499999999997255 0
0.9499999999999148 0.8999999999998302 0
0.949999999999888 0.9499999999999172 0
$EndNodes
$Elements
9 420 1 420
2 3000 3 72
1 1 19 173 101 
2 101 173 174 102 
3 102 174 175 103 
4 103 175 176 104 
5 104 176 177 105 
6 105 177 178 106 
7 106 178 179 107 
8 107 179 180 108 
9 108 180 36 5 
10 19 20 181 173 
11 173 181 182 174 
12 174 182 183 175 
13 175 183 184 176 
14 176 184 185 177 
15 177 185 186 178 
16 178 186 187 179 
17 179 187 188 180 
18 180 188 37 36 
19 20 21 189 181 
20 181 189 190 182 
21 182 190 191 183 
22 183 191 192 184 
23 184 192 193 185 
24 185 193 194 186 
25 186 194 195 187 
26 187 195 196 188 
27 188 196 38 37 
28 21 22 197 189 
29 189 197 198 190 
30 190 198 199 191 
31 191 199 200 192 
32 192 200 201 193 
33 193 201 202 194 
34 194 202 203 195 
35 195 203 204 196 
36 196 204 39 38 
37 22 23 205 197 
38 197 205 206 198 
39 198 206 207 199 
40 199 207 208 200 
41 200 208 209 201 
42 201 209 210 202 
43 202 210 211 203 
44 203 211 212 204 
45 204 212 40 39 
46 23 24 213 205 
47 205 213 214 206 
48 206 214 215 207 
49 207 215 216 208 
50 208 216 217 209 
51 209 217 218 210 
52 210 218 219 211 
53 211 219 220 212 
54 212 220 41 40 
55 24 25 221 213 
56 213 221 222 214 
57 214 222 223 215 
58 215 223 224 216 
59 216 224 225 217 
60 217 225 226 218 
61 218 226 227 219 
62 219 227 228 220 
63 220 228 42 41 
64 25 2 109 221 
65 221 109 110 222 
66 222 110 111 223 
67 223 111 112 224 
68 224 112 113 225 
69 225 113 114 226 
70 226 114 115 227 
71 227 115 116 228 
72 228 116 6 42 
2 3001 3 36
73 2 26 229 109 
74 109 229 230 110 
75 110 230 231 111 
76 111 231 232 112 
77 112 232 233 113 
78 113 233 234 114 
79 114 234 235 115 
80 115 235 236 116 
81 116 236 43 6 
82 26 27 237 229 
83 229 237 238 230 
84 230 238 239 231 
85 231 239 240 232 
86 232 240 241 233 
87 233 241 242 234 
88 234 242 243 235 
89 235 243 244 236 
90 236 244 44 43 
91 27 28 245 237 
92 237 245 246 238 
93 238 246 247 239 
94 239 247 248 240 
95 240 248 249 241 
96 241 249 250 242 
97 242 250 251 243 
98 243 251 252 244 
99 244 252 45 44 
100 28 3 117 245 
101 245 117 118 246 
102 246 118 119 247 
103 247 119 120 248 
104 248 120 121 249 
105 249 121 122 250 
106 250 122 123 251 
107 251 123 124 252 
108 252 124 7 45 
2 3002 3 72
109 3 29 253 117 
110 117 253 254 118 
111 118 254 255 119 
112 119 255 256 120 
113 120 256 257 121 
114 121 257 258 122 
115 122 258 259 123 
116 123 259 260 124 
117 124 260 73 7 
118 29 30 261 253 
119 253 261 262 254 
120 254 262 263 255 
121 255 263 264 256 
122 256 264 265 257 
123 257 265 266 258 
124 258 266 267 259 
125 259 267 268 260 
126 260 268 74 73 
127 30 31 269 261 
128 261 269 270 262 
129 262 270 271 263 
130 263 271 272 264 
131 264 272 273 265 
132 265 273 274 266 
133 266 274 275 267 
134 267 275 276 268 
135 268 276 75 74 
136 31 32 277 269 
137 269 277 278 270 
138 270 278 279 271 
139 271 279 280 272 
140 272 280 281 273 
141 273 281 282 274 
142 274 282 283 275 
143 275 283 284 276 
144 276 284 76 75 
145 32 33 285 277 
146 277 285 286 278 
147 278 286 287 279 
148 279 287 288 280 
149 280 288 289 281 
150 281 289 290 282 
151 282 290 291 283 
152 283 291 292 284 
153 284 292 77 76 
154 33 34 293 285 
155 285 293 294 286 
156 286 294 295 287 
157 287 295 296 288 
158 288 296 297 289 
159 289 297 298 290 
160 290 298 299 291 
161 291 299 300 292 
162 292 300 78 77 
163 34 35 301 293 
164 293 301 302 294 
165 294 302 303 295 
166 295 303 304 296 
167 296 304 305 297 
168 297 305 306 298 
169 298 306 307 299 
170 299 307 308 300 
171 300 308 79 78 
172 35 4 125 301 
173 301 125 126 302 
174 302 126 127 303 
175 303 127 128 304 
176 304 128 129 305 
177 305 129 130 306 
178 306 130 131 307 
179 307 131 132 308 
180 308 132 15 79 
2 3100 3 24
181 5 36 309 133 
182 133 309 310 134 
183 134 310 87 17 
184 36 37 311 309 
185 309 311 312 310 
186 310 312 88 87 
187 37 38 313 311 
188 311 313 314 312 
189 312 314 89 88 
190 38 39 315 313 
191 313 315 316 314 
192 314 316 90 89 
193 39 40 317 315 
194 315 317 318 316 
195 316 318 91 90 
196 40 41 319 317 
197 317 319 320 318 
198 318 320 92 91 
199 41 42 321 319 
200 319 321 322 320 
201 320 322 93 92 
202 42 6 135 321 
203 321 135 136 322 
204 322 136 8 93 
2 3101 3 12
205 6 43 323 135 
206 135 323 324 136 
207 136 324 46 8 
208 43 44 325 323 
209 323 325 326 324 
210 324 326 47 46 
211 44 45 327 325 
212 325 327 328 326 
213 326 328 48 47 
214 45 7 137 327 
215 327 137 138 328 
216 328 138 9 48 
2 3102 3 24
217 7 80 329 137 
218 137 329 330 138 
219 138 330 49 9 
220 80 81 331 329 
221 329 331 332 330 
222 330 332 50 49 
223 81 82 333 331 
224 331 333 334 332 
225 332 334 51 50 
226 82 83 335 333 
227 333 335 336 334 
228 334 336 52 51 
229 83 84 337 335 
230 335 337 338 336 
231 336 338 53 52 
232 84 85 339 337 
233 337 339 340 338 
234 338 340 54 53 
235 85 86 341 339 
236 339 341 342 340 
237 340 342 55 54 
238 86 16 139 341 
239 341 139 140 342 
240 342 140 10 55 
2 3200 3 72
241 18 94 343 141 
242 141 343 344 142 
243 142 344 345 143 
244 143 345 346 144 
245 144 346 347 145 
246 145 347 348 146 
247 146 348 349 147 
248 147 349 350 148 
249 148 350 56 11 
250 94 95 351 343 
251 343 351 352 344 
252 344 352 353 345 
253 345 353 354 346 
254 346 354 355 347 
255 347 355 356 348 
256 348 356 357 349 
257 349 357 358 350 
258 350 358 57 56 
259 95 96 359 351 
260 351 359 360 352 
261 352 360 361 353 
262 353 361 362 354 
263 354 362 363 355 
264 355 363 364 356 
265 356 364 365 357 
266 357 365 366 358 
267 358 366 58 57 
268 96 97 367 359 
269 359 367 368 360 
270 360 368 369 361 
271 361 369 370 362 
272 362 370 371 363 
273 363 371 372 364 
274 364 372 373 365 
275 365 373 374 366 
276 366 374 59 58 
277 97 98 375 367 
278 367 375 376 368 
279 368 376 377 369 
280 369 377 378 370 
281 370 378 379 371 
282 371 379 380 372 
283 372 380 381 373 
284 373 381 382 374 
285 374 382 60 59 
286 98 99 383 375 
287 375 383 384 376 
288 376 384 385 377 
289 377 385 386 378 
290 378 386 387 379 
291 379 387 388 380 
292 380 388 389 381 
293 381 389 390 382 
294 382 390 61 60 
295 99 100 391 383 
296 383 391 392 384 
297 384 392 393 385 
298 385 393 394 386 
299 386 394 395 387 
300 387 395 396 388 
301 388 396 397 389 
302 389 397 398 390 
303 390 398 62 61 
304 100 8 149 391 
305 391 149 150 392 
306 392 150 151 393 
307 393 151 152 394 
308 394 152 153 395 
309 395 153 154 396 
310 396 154 155 397 
311 397 155 156 398 
312 398 156 12 62 
2 3201 3 36
313 8 46 399 149 
314 149 399 400 150 
315 150 400 401 151 
316 151 401 402 152 
317 152 402 403 153 
318 153 403 404 154 
319 154 404 405 155 
320 155 405 406 156 
321 156 406 63 12 
322 46 47 407 399 
323 399 407 408 400 
324 400 408 409 401 
325 401 409 410 402 
326 402 410 411 403 
327 403 411 412 404 
328 404 412 413 405 
329 405 413 414 406 
330 406 414 64 63 
331 47 48 415 407 
332 407 415 416 408 
333 408 416 417 409 
334 409 417 418 410 
335 410 418 419 411 
336 411 419 420 412 
337 412 420 421 413 
338 413 421 422 414 
339 414 422 65 64 
340 48 9 157 415 
341 415 157 158 416 
342 416 158 159 417 
343 417 159 160 418 
344 418 160 161 419 
345 419 161 162 420 
346 420 162 163 421 
347 421 163 164 422 
348 422 164 13 65 
2 3202 3 72
349 9 49 423 157 
350 157 423 424 158 
351 158 424 425 159 
352 159 425 426 160 
353 160 426 427 161 
354 161 427 428 162 
355 162 428 429 163 
356 163 429 430 164 
357 164 430 66 13 
358 49 50 431 423 
359 423 431 432 424 
360 424 432 433 425 
361 425 433 434 426 
362 426 434 435 427 
363 427 435 436 428 
364 428 436 437 429 
365 429 437 438 430 
366 430 438 67 66 
367 50 51 439 431 
368 431 439 440 432 
369 432 440 441 433 
370 433 441 442 434 
371 434 442 443 435 
372 435 443 444 436 
373 436 444 445 437 
374 437 445 446 438 
375 438 446 68 67 
376 51 52 447 439 
377 439 447 448 440 
378 440 448 449 441 
379 441 449 450 442 
380 442 450 451 443 
381 443 451 452 444 
382 444 452 453 445 
383 445 453 454 446 
384 446 454 69 68 
385 52 53 455 447 
386 447 455 456 448 
387 448 456 457 449 
388 449 457 458 450 
389 450 458 459 451 
390 451 459 460 452 
391 452 460 461 453 
392 453 461 462 454 
393 454 462 70 69 
394 53 54 463 455 
395 455 463 464 456 
396 456 464 465 457 
397 457 465 466 458 
398 458 466 467 459 
399 459 467 468 460 
400 460 468 469 461 
401 461 469 470 462 
402 462 470 71 70 
403 54 55 471 463 
404 463 471 472 464 
405 464 472 473 465 
406 465 473 474 466 
407 466 474 475 467 
408 467 475 476 468 
409 468 476 477 469 
410 469 477 478 470 
411 470 478 72 71 
412 55 10 165 471 
413 471 165 166 472 
414 472 166 167 473 
415 473 167 168 474 
416 474 168 169 475 
417 475 169 170 476 
418 476 170 171 477 
419 477 171 172 478 
420 478 172 14 72 
$EndElements
