$MeshFormat
4.1 0 8
$EndMeshFormat
$PhysicalNames
1
2 1 "materialID"
$EndPhysicalNames
$Entities
14 19 6 0
100 0 0 0 0 
101 0.3 0 0 0 
102 0.7 0 0 0 
103 1 0 0 0 
201 0.3 0.5 0 0 
202 0.7 0.5 0 0 
300 0 1 0 0 
301 0.3 1 0 0 
302 0.7 1 0 0 
303 1 1 0 0 
900 1 0.495 0 0 
901 1 0.505 0 0 
902 0 0.495 0 0 
903 0 0.505 0 0 
1000 0 0 0 0.3 0 0 0 2 100 -101 
1001 0.3 0 0 0.7 0 0 0 2 101 -102 
1002 0.7 0 0 1 0 0 0 2 102 -103 
1101 0.3 0.5 0 0.7 0.5 0 0 2 201 -202 
1200 0 1 0 0.3 1 0 0 2 300 -301 
1201 0.3 1 0 0.7 1 0 0 2 301 -302 
1202 0.7 1 0 1 1 0 0 2 302 -303 
1800 0.7 0.495 0 1 0.5 0 0 2 202 -900 
1801 0.7 0.5 0 1 0.505 0 0 2 202 -901 
1810 0 0.495 0 0.3 0.5 0 0 2 902 -201 
1811 0 0.5 0 0.3 0.505 0 0 2 903 -201 
1900 0 0 0 0 0.495 0 0 2 100 -902 
1901 0.3 0 0 0.3 0.5 0 0 2 101 -201 
1902 0.7 0 0 0.7 0.5 0 0 2 102 -202 
1903 1 0 0 1 0.495 0 0 2 103 -900 
2000 0 0.505 0 0 1 0 0 2 903 -300 
2001 0.3 0.5 0 0.3 1 0 0 2 201 -301 
2002 0.7 0.5 0 0.7 1 0 0 2 202 -302 
2003 1 0.505 0 1 1 0 0 2 901 -303 
3000 0 0 0 0.3 0.5 0 1 1 4 1000 1901 -1810 -1900 
3001 0.3 0 0 0.7 0.5 0 1 1 4 1001 1902 -1101 -1901 
3002 0.7 0 0 1 0.5 0 1 1 4 1002 1903 -1800 -1902 
3100 0 0.5 0 0.3 1 0 1 1 4 1811 2001 -1200 -2000 
3101 0.3 0.5 0 0.7 1 0 1 1 4 1101 2002 -1201 -2001 
3102 0.7 0.5 0 1 1 0 1 1 4 1801 2003 -1202 -2002 
$EndEntities
$Nodes
39 453 1 453
0 100 0 1
1
0 0 0
0 101 0 1
2
0.3 0 0
0 102 0 1
3
0.7 0 0
0 103 0 1
4
1 0 0
0 201 0 1
5
0.3 0.5 0
0 202 0 1
6
0.7 0.5 0
0 300 0 1
7
0 1 0
0 301 0 1
8
0.3 1 0
0 302 0 1
9
0.7 1 0
0 303 0 1
10
1 1 0
0 900 0 1
11
1 0.495 0
0 901 0 1
12
1 0.505 0
0 902 0 1
13
0 0.495 0
0 903 0 1
14
0 0.505 0
1 1000 0 5
15
16
17
18
19
0.04999999999989675 0 0
0.0999999999997538 0 0
0.149999999999619 0 0
0.1999999999997478 0 0
0.249999999999873 0 0
1 1001 0 7
20
21
22
23
24
25
26
0.3499999999999349 0 0
0.399999999999783 0 0
0.4499999999996312 0 0
0.4999999999995011 0 0
0.5499999999996312 0 0
0.5999999999997396 0 0
0.6499999999998698 0 0
1 1002 0 5
27
28
29
30
31
0.7499999999999348 0 0
0.799999999999819 0 0
0.849999999999826 0 0
0.8999999999998334 0 0
0.9499999999999709 0 0
1 1101 0 7
32
33
34
35
36
37
38
0.3499999999999349 0.5 0
0.399999999999783 0.5 0
0.4499999999996312 0.5 0
0.4999999999995011 0.5 0
0.5499999999996312 0.5 0
0.5999999999997396 0.5 0
0.6499999999998698 0.5 0
1 1200 0 5
39
40
41
42
43
0.04999999999989675 1 0
0.0999999999997538 1 0
0.149999999999619 1 0
0.1999999999997478 1 0
0.249999999999873 1 0
1 1201 0 7
44
45
46
47
48
49
50
0.3499999999999349 1 0
0.399999999999783 1 0
0.4499999999996312 1 0
0.4999999999995011 1 0
0.5499999999996312 1 0
0.5999999999997396 1 0
0.6499999999998698 1 0
1 1202 0 5
51
52
53
54
55
0.7499999999999348 1 0
0.799999999999819 1 0
0.849999999999826 1 0
0.8999999999998334 1 0
0.9499999999999709 1 0
1 1800 0 5
56
57
58
59
60
0.7499999999999347 0.4991666666666678 0
0.7999999999998194 0.4983333333333363 0
0.8499999999998264 0.4975000000000029 0
0.8999999999998334 0.4966666666666694 0
0.949999999999971 0.4958333333333338 0
1 1801 0 5
61
62
63
64
65
0.7499999999999346 0.5008333333333322 0
0.799999999999819 0.5016666666666636 0
0.8499999999998266 0.5024999999999971 0
0.8999999999998342 0.5033333333333305 0
0.9499999999999714 0.5041666666666662 0
1 1810 0 5
66
67
68
69
70
0.04999999999989647 0.4958333333333316 0
0.09999999999975374 0.4966666666666625 0
0.1499999999996187 0.4974999999999937 0
0.1999999999997472 0.4983333333333291 0
0.2499999999998728 0.4991666666666645 0
1 1811 0 5
71
72
73
74
75
0.04999999999989623 0.5041666666666684 0
0.09999999999975305 0.5033333333333374 0
0.1499999999996184 0.5025000000000064 0
0.1999999999997475 0.5016666666666709 0
0.2499999999998726 0.5008333333333355 0
1 1900 0 9
76
77
78
79
80
81
82
83
84
0 0.04949999999990409 0
0 0.09899999999977498 0
0 0.1484999999996359 0
0 0.1979999999994806 0
0 0.2474999999993416 0
0 0.2969999999994797 0
0 0.346499999999606 0
0 0.3959999999997409 0
0 0.4454999999998672 0
1 1901 0 9
85
86
87
88
89
90
91
92
93
0.3 0.04999999999990707 0
0.3 0.09999999999977846 0
0.3 0.1499999999996325 0
0.3 0.1999999999994866 0
0.3 0.2499999999993461 0
0.3 0.2999999999994725 0
0.3 0.3499999999996044 0
0.3 0.3999999999997362 0
0.3 0.4499999999998681 0
1 1902 0 9
94
95
96
97
98
99
100
101
102
0.7 0.04999999999990707 0
0.7 0.09999999999977846 0
0.7 0.1499999999996325 0
0.7 0.1999999999994866 0
0.7 0.2499999999993461 0
0.7 0.2999999999994725 0
0.7 0.3499999999996044 0
0.7 0.3999999999997362 0
0.7 0.4499999999998681 0
1 1903 0 9
103
104
105
106
107
108
109
110
111
1 0.04949999999990409 0
1 0.09899999999977498 0
1 0.1484999999996359 0
1 0.1979999999994806 0
1 0.2474999999993416 0
1 0.2969999999994797 0
1 0.346499999999606 0
1 0.3959999999997409 0
1 0.4454999999998672 0
1 2000 0 9
112
113
114
115
116
117
118
119
120
0 0.5544999999998655 0
0 0.6039999999997311 0
0 0.6534999999995966 0
0 0.702999999999419 0
0 0.7524999999993063 0
0 0.801999999999471 0
0 0.8514999999995925 0
0 0.9009999999997356 0
0 0.9504999999998612 0
1 2001 0 9
121
122
123
124
125
126
127
128
129
0.3 0.55 0
0.3 0.6 0
0.3 0.65 0
0.3 0.7 0
0.3 0.75 0
0.3 0.8 0
0.3 0.8500000000000001 0
0.3 0.9 0
0.3 0.95 0
1 2002 0 9
130
131
132
133
134
135
136
137
138
0.7 0.55 0
0.7 0.6 0
0.7 0.65 0
0.7 0.7 0
0.7 0.75 0
0.7 0.8 0
0.7 0.8500000000000001 0
0.7 0.9 0
0.7 0.95 0
1 2003 0 9
139
140
141
142
143
144
145
146
147
1 0.5544999999998655 0
1 0.6039999999997311 0
1 0.6534999999995966 0
1 0.702999999999419 0
1 0.7524999999993063 0
1 0.801999999999471 0
1 0.8514999999995925 0
1 0.9009999999997356 0
1 0.9504999999998612 0
2 3000 0 45
148
149
150
151
152
153
154
155
156
157
158
159
160
161
162
163
164
165
166
167
168
169
170
171
172
173
174
175
176
177
178
179
180
181
182
183
184
185
186
187
188
189
190
191
192
0.04999999999992139 0.04958267968048748 0
0.04999999999994634 0.09916537042921769 0
0.04999999999996357 0.1487480862535232 0
0.04999999999997312 0.1983308478475004 0
0.0499999999999762 0.2479136882261055 0
0.04999999999997331 0.2974966620336543 0
0.04999999999996396 0.3470798620519013 0
0.04999999999994692 0.3966634511564047 0
0.04999999999992192 0.4462477326765425 0
0.09999999999984255 0.04966562474615169 0
0.09999999999990074 0.09933126877703241 0
0.0999999999999351 0.1489969564876671 0
0.0999999999999529 0.1986627238566072 0
0.09999999999995844 0.2483286280151737 0
0.09999999999995308 0.2979947624857727 0
0.09999999999993547 0.34766128217308 0
0.09999999999990132 0.3973284445578628 0
0.0999999999998432 0.4469966759706125 0
0.1499999999997948 0.04974882818771216 0
0.1499999999998795 0.0994976787774712 0
0.1499999999999236 0.1492465801029905 0
0.1499999999999452 0.1989955739136547 0
0.1499999999999517 0.2487447263342448 0
0.1499999999999452 0.2984941449874497 0
0.1499999999999235 0.3482440060348345 0
0.1499999999998794 0.3979945955560534 0
0.1499999999997946 0.4477463669372755 0
0.199999999999839 0.04983228816988458 0
0.1999999999998993 0.09966459586840999 0
0.1999999999999347 0.1494969478095095 0
0.1999999999999527 0.1993293804445078 0
0.1999999999999583 0.2491619515974892 0
0.1999999999999526 0.2989947556752333 0
0.1999999999999342 0.3488279482831709 0
0.1999999999998985 0.3986617860759911 0
0.199999999999838 0.4484966896338043 0
0.2499999999999141 0.04991600891697902 0
0.2499999999999441 0.09983202918927266 0
0.2499999999999629 0.1497480752036644 0
0.2499999999999729 0.1996641682287937 0
0.2499999999999759 0.2495803421541059 0
0.2499999999999727 0.2994966528333717 0
0.2499999999999625 0.3494131942932607 0
0.2499999999999434 0.3993301292316396 0
0.2499999999999133 0.4492477542921152 0
2 3001 0 63
193
194
195
196
197
198
199
200
201
202
203
204
205
206
207
208
209
210
211
212
213
214
215
216
217
218
219
220
221
222
223
224
225
226
227
228
229
230
231
232
233
234
235
236
237
238
239
240
241
242
243
244
245
246
247
248
249
250
251
252
253
254
255
0.3499999999999254 0.04999999999990454 0
0.3499999999999362 0.0999999999997999 0
0.349999999999948 0.1499999999996938 0
0.3499999999999557 0.1999999999996016 0
0.3499999999999583 0.2499999999995474 0
0.3499999999999558 0.2999999999995921 0
0.3499999999999479 0.349999999999676 0
0.3499999999999362 0.3999999999997774 0
0.3499999999999254 0.4499999999998869 0
0.3999999999998309 0.04999999999991118 0
0.3999999999998714 0.0999999999998228 0
0.3999999999999 0.1499999999997414 0
0.3999999999999168 0.1999999999996785 0
0.399999999999922 0.2499999999996498 0
0.3999999999999166 0.2999999999996723 0
0.3999999999998999 0.3499999999997303 0
0.3999999999998712 0.3999999999998101 0
0.3999999999998308 0.4499999999999023 0
0.4499999999997435 0.04999999999991742 0
0.4499999999998181 0.0999999999998387 0
0.4499999999998641 0.1499999999997703 0
0.4499999999998889 0.1999999999997212 0
0.4499999999998967 0.2499999999997013 0
0.4499999999998888 0.2999999999997169 0
0.449999999999864 0.3499999999997629 0
0.4499999999998181 0.3999999999998308 0
0.4499999999997435 0.4499999999999121 0
0.4999999999996937 0.04999999999991978 0
0.4999999999997937 0.0999999999998443 0
0.4999999999998492 0.14999999999978 0
0.4999999999998782 0.1999999999997349 0
0.4999999999998871 0.2499999999997172 0
0.499999999999878 0.2999999999997311 0
0.4999999999998492 0.3499999999997737 0
0.4999999999997936 0.3999999999998377 0
0.4999999999996937 0.4499999999999155 0
0.5499999999997369 0.04999999999991741 0
0.5499999999998133 0.09999999999983872 0
0.5499999999998612 0.1499999999997704 0
0.5499999999998872 0.1999999999997213 0
0.5499999999998955 0.2499999999997014 0
0.5499999999998871 0.299999999999717 0
0.5499999999998612 0.3499999999997631 0
0.5499999999998132 0.3999999999998307 0
0.549999999999737 0.4499999999999122 0
0.5999999999998099 0.04999999999991118 0
0.5999999999998612 0.0999999999998228 0
0.5999999999998952 0.1499999999997414 0
0.599999999999914 0.1999999999996786 0
0.5999999999999199 0.2499999999996499 0
0.5999999999999139 0.2999999999996724 0
0.5999999999998951 0.3499999999997304 0
0.5999999999998613 0.3999999999998102 0
0.5999999999998099 0.4499999999999023 0
0.6499999999999015 0.04999999999990455 0
0.6499999999999266 0.09999999999979989 0
0.6499999999999438 0.1499999999996939 0
0.6499999999999537 0.1999999999996016 0
0.6499999999999568 0.2499999999995474 0
0.6499999999999537 0.2999999999995921 0
0.649999999999944 0.3499999999996761 0
0.6499999999999266 0.3999999999997773 0
0.6499999999999015 0.4499999999998869 0
2 3002 0 45
256
257
258
259
260
261
262
263
264
265
266
267
268
269
270
271
272
273
274
275
276
277
278
279
280
281
282
283
284
285
286
287
288
289
290
291
292
293
294
295
296
297
298
299
300
0.7499999999999507 0.04991600891698288 0
0.7499999999999675 0.09983202918927919 0
0.7499999999999785 0.1497480752036725 0
0.7499999999999843 0.1996641682288023 0
0.7499999999999862 0.2495803421541142 0
0.7499999999999843 0.299496652833379 0
0.7499999999999786 0.3494131942932668 0
0.7499999999999675 0.3993301292316443 0
0.7499999999999504 0.4492477542921189 0
0.7999999999999005 0.04983228816988814 0
0.7999999999999411 0.09966459586841596 0
0.7999999999999624 0.1494969478095168 0
0.799999999999973 0.1993293804445156 0
0.7999999999999762 0.2491619515974966 0
0.799999999999973 0.29899475567524 0
0.7999999999999623 0.3488279482831768 0
0.7999999999999411 0.3986617860759963 0
0.7999999999999006 0.4484966896338097 0
0.8499999999998918 0.04974882818771269 0
0.8499999999999337 0.09949767877747188 0
0.8499999999999573 0.1492465801029911 0
0.8499999999999691 0.1989955739136553 0
0.8499999999999729 0.2487447263342455 0
0.8499999999999691 0.2984941449874506 0
0.8499999999999571 0.348244006034836 0
0.8499999999999337 0.3979945955560559 0
0.8499999999998922 0.4477463669372803 0
0.8999999999999081 0.04966562474614902 0
0.8999999999999442 0.09933126877702757 0
0.8999999999999638 0.148996956487661 0
0.8999999999999736 0.1986627238566007 0
0.8999999999999769 0.2483286280151674 0
0.8999999999999738 0.2979947624857676 0
0.8999999999999638 0.3476612821730766 0
0.8999999999999445 0.3973284445578617 0
0.8999999999999084 0.4469966759706148 0
0.9499999999999627 0.0495826796804841 0
0.9499999999999718 0.09916537042921174 0
0.9499999999999801 0.1487480862535157 0
0.9499999999999852 0.1983308478474924 0
0.9499999999999869 0.2479136882260979 0
0.9499999999999852 0.2974966620336477 0
0.9499999999999802 0.3470798620518966 0
0.9499999999999721 0.3966634511564021 0
0.9499999999999632 0.4462477326765424 0
2 3100 0 45
301
302
303
304
305
306
307
308
309
310
311
312
313
314
315
316
317
318
319
320
321
322
323
324
325
326
327
328
329
330
331
332
333
334
335
336
337
338
339
340
341
342
343
344
345
0.04999999999992177 0.5537522673232301 0
0.04999999999994683 0.6033365488431496 0
0.04999999999996393 0.6529201379474485 0
0.04999999999997331 0.7025033379655193 0
0.04999999999997619 0.7520863117729807 0
0.04999999999997313 0.8016691521517011 0
0.04999999999996358 0.8512519137458602 0
0.04999999999994636 0.9008346295703735 0
0.04999999999992139 0.9504173203193113 0
0.09999999999984287 0.5530033240291941 0
0.09999999999990117 0.6026715554417638 0
0.09999999999993542 0.6523387178263909 0
0.09999999999995307 0.7020052375135849 0
0.09999999999995843 0.7516713719841439 0
0.0999999999999529 0.8013372761427731 0
0.09999999999993513 0.8510030435118393 0
0.09999999999990079 0.900668731222632 0
0.09999999999984256 0.9503343752536809 0
0.1499999999997944 0.5522536330625574 0
0.1499999999998793 0.6020054044436268 0
0.1499999999999234 0.6517559939647191 0
0.1499999999999451 0.7015058550120187 0
0.1499999999999517 0.7512552736651983 0
0.1499999999999452 0.8010044260858347 0
0.1499999999999236 0.8507534198965979 0
0.1499999999998795 0.9005023212222462 0
0.1499999999997948 0.9502511718121462 0
0.199999999999838 0.5515033103660467 0
0.1999999999998985 0.6013382139237231 0
0.1999999999999341 0.6511720517164284 0
0.1999999999999525 0.7010052443242871 0
0.1999999999999582 0.7508380484020056 0
0.1999999999999527 0.8006706195550313 0
0.1999999999999346 0.8505030521901217 0
0.1999999999998993 0.9003354041313388 0
0.199999999999839 0.9501677118299907 0
0.2499999999999132 0.5507522457077467 0
0.2499999999999434 0.6006698707680911 0
0.2499999999999624 0.6505868057063524 0
0.2499999999999727 0.7005033471661479 0
0.2499999999999759 0.7504196578453686 0
0.2499999999999729 0.8003358317707424 0
0.2499999999999629 0.8502519247959773 0
0.2499999999999441 0.9001679708104923 0
0.2499999999999141 0.9500839910829085 0
2 3101 0 63
346
347
348
349
350
351
352
353
354
355
356
357
358
359
360
361
362
363
364
365
366
367
368
369
370
371
372
373
374
375
376
377
378
379
380
381
382
383
384
385
386
387
388
389
390
391
392
393
394
395
396
397
398
399
400
401
402
403
404
405
406
407
408
0.3499999999999254 0.55 0
0.3499999999999361 0.6000000000000001 0
0.3499999999999479 0.6500000000000001 0
0.3499999999999557 0.7000000000000002 0
0.3499999999999585 0.7500000000000001 0
0.3499999999999558 0.8 0
0.349999999999948 0.8500000000000001 0
0.3499999999999362 0.9000000000000001 0
0.3499999999999255 0.95 0
0.3999999999998309 0.55 0
0.3999999999998712 0.6000000000000001 0
0.3999999999999 0.6500000000000002 0
0.3999999999999168 0.7000000000000002 0
0.3999999999999222 0.7500000000000002 0
0.3999999999999168 0.8 0
0.3999999999998999 0.8500000000000001 0
0.3999999999998712 0.9000000000000001 0
0.3999999999998308 0.95 0
0.4499999999997436 0.55 0
0.4499999999998182 0.6000000000000001 0
0.4499999999998641 0.6500000000000001 0
0.4499999999998889 0.7000000000000002 0
0.4499999999998967 0.7500000000000002 0
0.4499999999998888 0.8 0
0.449999999999864 0.8500000000000001 0
0.449999999999818 0.9000000000000001 0
0.4499999999997435 0.9500000000000001 0
0.4999999999996939 0.55 0
0.4999999999997937 0.6000000000000001 0
0.4999999999998492 0.6500000000000002 0
0.499999999999878 0.7000000000000002 0
0.499999999999887 0.7500000000000002 0
0.499999999999878 0.8000000000000002 0
0.4999999999998492 0.8500000000000002 0
0.4999999999997935 0.9000000000000001 0
0.4999999999996938 0.9500000000000001 0
0.5499999999997371 0.55 0
0.5499999999998132 0.6 0
0.5499999999998612 0.6500000000000001 0
0.549999999999887 0.7000000000000001 0
0.5499999999998952 0.7500000000000001 0
0.549999999999887 0.8000000000000002 0
0.5499999999998613 0.8500000000000003 0
0.5499999999998132 0.9000000000000001 0
0.549999999999737 0.9500000000000001 0
0.59999999999981 0.55 0
0.5999999999998612 0.6 0
0.5999999999998951 0.6500000000000001 0
0.5999999999999139 0.7000000000000002 0
0.5999999999999199 0.7500000000000002 0
0.5999999999999139 0.8000000000000002 0
0.5999999999998951 0.8500000000000003 0
0.5999999999998612 0.9000000000000002 0
0.5999999999998098 0.9500000000000002 0
0.6499999999999015 0.55 0
0.6499999999999266 0.6000000000000001 0
0.6499999999999438 0.6500000000000001 0
0.6499999999999537 0.7000000000000003 0
0.6499999999999568 0.7500000000000002 0
0.6499999999999537 0.8 0
0.6499999999999438 0.85 0
0.6499999999999266 0.9 0
0.6499999999999014 0.95 0
2 3102 0 45
409
410
411
412
413
414
415
416
417
418
419
420
421
422
423
424
425
426
427
428
429
430
431
432
433
434
435
436
437
438
439
440
441
442
443
444
445
446
447
448
449
450
451
452
453
0.7499999999999503 0.5507522457077416 0
0.7499999999999674 0.6006698707680846 0
0.7499999999999786 0.6505868057063451 0
0.7499999999999846 0.7005033471661406 0
0.7499999999999865 0.7504196578453615 0
0.7499999999999846 0.8003358317707362 0
0.7499999999999788 0.8502519247959726 0
0.7499999999999676 0.900167970810489 0
0.7499999999999507 0.9500839910829069 0
0.7999999999999002 0.5515033103660401 0
0.7999999999999408 0.6013382139237163 0
0.7999999999999625 0.6511720517164213 0
0.7999999999999731 0.70100524432428 0
0.7999999999999764 0.7508380484019991 0
0.7999999999999732 0.8006706195550256 0
0.7999999999999626 0.8505030521901171 0
0.7999999999999411 0.9003354041313357 0
0.7999999999999005 0.9501677118299889 0
0.8499999999998922 0.5522536330625526 0
0.8499999999999337 0.6020054044436243 0
0.8499999999999572 0.6517559939647175 0
0.8499999999999691 0.7015058550120176 0
0.849999999999973 0.7512552736651975 0
0.8499999999999694 0.801004426085834 0
0.8499999999999573 0.8507534198965971 0
0.8499999999999336 0.9005023212222455 0
0.8499999999998921 0.9502511718121459 0
0.8999999999999085 0.5530033240291927 0
0.8999999999999447 0.6026715554417661 0
0.8999999999999639 0.6523387178263952 0
0.8999999999999738 0.7020052375135899 0
0.8999999999999769 0.751671371984149 0
0.8999999999999737 0.8013372761427775 0
0.8999999999999638 0.8510030435118424 0
0.899999999999944 0.9006687312226337 0
0.8999999999999078 0.9503343752536816 0
0.9499999999999632 0.5537522673232314 0
0.9499999999999722 0.6033365488431538 0
0.9499999999999802 0.6529201379474544 0
0.9499999999999851 0.7025033379655257 0
0.9499999999999869 0.7520863117729869 0
0.9499999999999853 0.8016691521517064 0
0.9499999999999801 0.8512519137458641 0
0.9499999999999716 0.9008346295703759 0
0.9499999999999627 0.9504173203193125 0
$EndNodes
$Elements
6 400 1 400
2 3000 3 60
1 1 15 148 76 
2 76 148 149 77 
3 77 149 150 78 
4 78 150 151 79 
5 79 151 152 80 
6 80 152 153 81 
7 81 153 154 82 
8 82 154 155 83 
9 83 155 156 84 
10 84 156 66 13 
11 15 16 157 148 
12 148 157 158 149 
13 149 158 159 150 
14 150 159 160 151 
15 151 160 161 152 
16 152 161 162 153 
17 153 162 163 154 
18 154 163 164 155 
19 155 164 165 156 
20 156 165 67 66 
21 16 17 166 157 
22 157 166 167 158 
23 158 167 168 159 
24 159 168 169 160 
25 160 169 170 161 
26 161 170 171 162 
27 162 171 172 163 
28 163 172 173 164 
29 164 173 174 165 
30 165 174 68 67 
31 17 18 175 166 
32 166 175 176 167 
33 167 176 177 168 
34 168 177 178 169 
35 169 178 179 170 
36 170 179 180 171 
37 171 180 181 172 
38 172 181 182 173 
39 173 182 183 174 
40 174 183 69 68 
41 18 19 184 175 
42 175 184 185 176 
43 176 185 186 177 
44 177 186 187 178 
45 178 187 188 179 
46 179 188 189 180 
47 180 189 190 181 
48 181 190 191 182 
49 182 191 192 183 
50 183 192 70 69 
51 19 2 85 184 
52 184 85 86 185 
53 185 86 87 186 
54 186 87 88 187 
55 187 88 89 188 
56 188 89 90 189 
57 189 90 91 190 
58 190 91 92 191 
59 191 92 93 192 
60 192 93 5 70 
2 3001 3 80
61 2 20 193 85 
62 85 193 194 86 
63 86 194 195 87 
64 87 195 196 88 
65 88 196 197 89 
66 89 197 198 90 
67 90 198 199 91 
68 91 199 200 92 
69 92 200 201 93 
70 93 201 32 5 
71 20 21 202 193 
72 193 202 203 194 
73 194 203 204 195 
74 195 204 205 196 
75 196 205 206 197 
76 197 206 207 198 
77 198 207 208 199 
78 199 208 209 200 
79 200 209 210 201 
80 201 210 33 32 
81 21 22 211 202 
82 202 211 212 203 
83 203 212 213 204 
84 204 213 214 205 
85 205 214 215 206 
86 206 215 216 207 
87 207 216 217 208 
88 208 217 218 209 
89 209 218 219 210 
90 210 219 34 33 
91 22 23 220 211 
92 211 220 221 212 
93 212 221 222 213 
94 213 222 223 214 
95 214 223 224 215 
96 215 224 225 216 
97 216 225 226 217 
98 217 226 227 218 
99 218 227 228 219 
100 219 228 35 34 
101 23 24 229 220 
102 220 229 230 221 
103 221 230 231 222 
104 222 231 232 223 
105 223 232 233 224 
106 224 233 234 225 
107 225 234 235 226 
108 226 235 236 227 
109 227 236 237 228 
110 228 237 36 35 
111 24 25 238 229 
112 229 238 239 230 
113 230 239 240 231 
114 231 240 241 232 
115 232 241 242 233 
116 233 242 243 234 
117 234 243 244 235 
118 235 244 245 236 
119 236 245 246 237 
120 237 246 37 36 
121 25 26 247 238 
122 238 247 248 239 
123 239 248 249 240 
124 240 249 250 241 
125 241 250 251 242 
126 242 251 252 243 
127 243 252 253 244 
128 244 253 254 245 
129 245 254 255 246 
130 246 255 38 37 
131 26 3 94 247 
132 247 94 95 248 
133 248 95 96 249 
134 249 96 97 250 
135 250 97 98 251 
136 251 98 99 252 
137 252 99 100 253 
138 253 100 101 254 
139 254 101 102 255 
140 255 102 6 38 
2 3002 3 60
141 3 27 256 94 
142 94 256 257 95 
143 95 257 258 96 
144 96 258 259 97 
145 97 259 260 98 
146 98 260 261 99 
147 99 261 262 100 
148 100 262 263 101 
149 101 263 264 102 
150 102 264 56 6 
151 27 28 265 256 
152 256 265 266 257 
153 257 266 267 258 
154 258 267 268 259 
155 259 268 269 260 
156 260 269 270 261 
157 261 270 271 262 
158 262 271 272 263 
159 263 272 273 264 
160 264 273 57 56 
161 28 29 274 265 
162 265 274 275 266 
163 266 275 276 267 
164 267 276 277 268 
165 268 277 278 269 
166 269 278 279 270 
167 270 279 280 271 
168 271 280 281 272 
169 272 281 282 273 
170 273 282 58 57 
171 29 30 283 274 
172 274 283 284 275 
173 275 284 285 276 
174 276 285 286 277 
175 277 286 287 278 
176 278 287 288 279 
177 279 288 289 280 
178 280 289 290 281 
179 281 290 291 282 
180 282 291 59 58 
181 30 31 292 283 
182 283 292 293 284 
183 284 293 294 285 
184 285 294 295 286 
185 286 295 296 287 
186 287 296 297 288 
187 288 297 298 289 
188 289 298 299 290 
189 290 299 300 291 
190 291 300 60 59 
191 31 4 103 292 
192 292 103 104 293 
193 293 104 105 294 
194 294 105 106 295 
195 295 106 107 296 
196 296 107 108 297 
197 297 108 109 298 
198 298 109 110 299 
199 299 110 111 300 
200 300 111 11 60 
2 3100 3 60
201 14 71 301 112 
202 112 301 302 113 
203 113 302 303 114 
204 114 303 304 115 
205 115 304 305 116 
206 116 305 306 117 
207 117 306 307 118 
208 118 307 308 119 
209 119 308 309 120 
210 120 309 39 7 
211 71 72 310 301 
212 301 310 311 302 
213 302 311 312 303 
214 303 312 313 304 
215 304 313 314 305 
216 305 314 315 306 
217 306 315 316 307 
218 307 316 317 308 
219 308 317 318 309 
220 309 318 40 39 
221 72 73 319 310 
222 310 319 320 311 
223 311 320 321 312 
224 312 321 322 313 
225 313 322 323 314 
226 314 323 324 315 
227 315 324 325 316 
228 316 325 326 317 
229 317 326 327 318 
230 318 327 41 40 
231 73 74 328 319 
232 319 328 329 320 
233 320 329 330 321 
234 321 330 331 322 
235 322 331 332 323 
236 323 332 333 324 
237 324 333 334 325 
238 325 334 335 326 
239 326 335 336 327 
240 327 336 42 41 
241 74 75 337 328 
242 328 337 338 329 
243 329 338 339 330 
244 330 339 340 331 
245 331 340 341 332 
246 332 341 342 333 
247 333 342 343 334 
248 334 343 344 335 
249 335 344 345 336 
250 336 345 43 42 
251 75 5 121 337 
252 337 121 122 338 
253 338 122 123 339 
254 339 123 124 340 
255 340 124 125 341 
256 341 125 126 342 
257 342 126 127 343 
258 343 127 128 344 
259 344 128 129 345 
260 345 129 8 43 
2 3101 3 80
261 5 32 346 121 
262 121 346 347 122 
263 122 347 348 123 
264 123 348 349 124 
265 124 349 350 125 
266 125 350 351 126 
267 126 351 352 127 
268 127 352 353 128 
269 128 353 354 129 
270 129 354 44 8 
271 32 33 355 346 
272 346 355 356 347 
273 347 356 357 348 
274 348 357 358 349 
275 349 358 359 350 
276 350 359 360 351 
277 351 360 361 352 
278 352 361 362 353 
279 353 362 363 354 
280 354 363 45 44 
281 33 34 364 355 
282 355 364 365 356 
283 356 365 366 357 
284 357 366 367 358 
285 358 367 368 359 
286 359 368 369 360 
287 360 369 370 361 
288 361 370 371 362 
289 362 371 372 363 
290 363 372 46 45 
291 34 35 373 364 
292 364 373 374 365 
293 365 374 375 366 
294 366 375 376 367 
295 367 376 377 368 
296 368 377 378 369 
297 369 378 379 370 
298 370 379 380 371 
299 371 380 381 372 
300 372 381 47 46 
301 35 36 382 373 
302 373 382 383 374 
303 374 383 384 375 
304 375 384 385 376 
305 376 385 386 377 
306 377 386 387 378 
307 378 387 388 379 
308 379 388 389 380 
309 380 389 390 381 
310 381 390 48 47 
311 36 37 391 382 
312 382 391 392 383 
313 383 392 393 384 
314 384 393 394 385 
315 385 394 395 386 
316 386 395 396 387 
317 387 396 397 388 
318 388 397 398 389 
319 389 398 399 390 
320 390 399 49 48 
321 37 38 400 391 
322 391 400 401 392 
323 392 401 402 393 
324 393 402 403 394 
325 394 403 404 395 
326 395 404 405 396 
327 396 405 406 397 
328 397 406 407 398 
329 398 407 408 399 
330 399 408 50 49 
331 38 6 130 400 
332 400 130 131 401 
333 401 131 132 402 
334 402 132 133 403 
335 403 133 134 404 
336 404 134 135 405 
337 405 135 136 406 
338 406 136 137 407 
339 407 137 138 408 
340 408 138 9 50 
2 3102 3 60
341 6 61 409 130 
342 130 409 410 131 
343 131 410 411 132 
344 132 411 412 133 
345 133 412 413 134 
346 134 413 414 135 
347 135 414 415 136 
348 136 415 416 137 
349 137 416 417 138 
350 138 417 51 9 
351 61 62 418 409 
352 409 418 419 410 
353 410 419 420 411 
354 411 420 421 412 
355 412 421 422 413 
356 413 422 423 414 
357 414 423 424 415 
358 415 424 425 416 
359 416 425 426 417 
360 417 426 52 51 
361 62 63 427 418 
362 418 427 428 419 
363 419 428 429 420 
364 420 429 430 421 
365 421 430 431 422 
366 422 431 432 423 
367 423 432 433 424 
368 424 433 434 425 
369 425 434 435 426 
370 426 435 53 52 
371 63 64 436 427 
372 427 436 437 428 
373 428 437 438 429 
374 429 438 439 430 
375 430 439 440 431 
376 431 440 441 432 
377 432 441 442 433 
378 433 442 443 434 
379 434 443 444 435 
380 435 444 54 53 
381 64 65 445 436 
382 436 445 446 437 
383 437 446 447 438 
384 438 447 448 439 
385 439 448 449 440 
386 440 449 450 441 
387 441 450 451 442 
388 442 451 452 443 
389 443 452 453 444 
390 444 453 55 54 
391 65 12 139 445 
392 445 139 140 446 
393 446 140 141 447 
394 447 141 142 448 
395 448 142 143 449 
396 449 143 144 450 
397 450 144 145 451 
398 451 145 146 452 
399 452 146 147 453 
400 453 147 10 55 
$EndElements
