$MeshFormat
2.2 0 8
$EndMeshFormat
$PhysicalNames
11
1 6 "Bottom"
1 7 "Top"
1 8 "LeftBoundary"
1 9 "RightBoundary"
1 10 "LeftCrack"
1 11 "RightCrack"
2 1 "Region_Left_Lower"
2 2 "Region_Left_Upper"
2 3 "Region_Middle"
2 4 "Region_Right_Lower"
2 5 "Region_Right_Upper"
$EndPhysicalNames
$Nodes
121
1 0 0 0
2 0.3 0 0
3 0.7 0 0
4 1 0 0
5 0 1 0
6 0.3 1 0
7 0.7 1 0
8 1 1 0
9 0 0.45 0
10 0.3 0.45 0
11 0 0.55 0
12 0.3 0.55 0
13 0.7 0.45 0
14 1 0.45 0
15 0.7 0.55 0
16 1 0.55 0
17 0.0999999999997538 0 0
18 0.1999999999997478 0 0
19 0.399999999999783 0 0
20 0.4999999999995011 0 0
21 0.5999999999997396 0 0
22 0.799999999999819 0 0
23 0.8999999999998334 0 0
24 0.0999999999997538 1 0
25 0.1999999999997478 1 0
26 0.399999999999783 1 0
27 0.4999999999995011 1 0
28 0.5999999999997396 1 0
29 0.799999999999819 1 0
30 0.8999999999998334 1 0
31 0 0.08999999999980407 0
32 0 0.1799999999995423 0
33 0 0.2699999999995226 0
34 0 0.3599999999997602 0
35 0 0.6624999999996317 0
36 0 0.7749999999994364 0
37 0 0.8874999999998265 0
38 1 0.1124999999997386 0
39 1 0.2249999999994115 0
40 1 0.3374999999997084 0
41 1 0.6399999999997097 0
42 1 0.7299999999994582 0
43 1 0.8199999999995404 0
44 1 0.9099999999998569 0
45 0.3 0.08999999999980407 0
46 0.3 0.1799999999995423 0
47 0.3 0.2699999999995226 0
48 0.3 0.3599999999997602 0
49 0.3 0.6624999999996317 0
50 0.3 0.7749999999994364 0
51 0.3 0.8874999999998265 0
52 0.7 0.1124999999997386 0
53 0.7 0.2249999999994115 0
54 0.7 0.3374999999997084 0
55 0.7 0.6399999999997097 0
56 0.7 0.7299999999994582 0
57 0.7 0.8199999999995404 0
58 0.7 0.9099999999998569 0
59 0.0999999999997538 0.45 0
60 0.1999999999997478 0.45 0
61 0.2000000000002566 0.55 0
62 0.1000000000002548 0.55 0
63 0.799999999999819 0.45 0
64 0.8999999999998334 0.45 0
65 0.900000000000181 0.55 0
66 0.8000000000001666 0.55 0
67 0.09999999999989005 0.08999999999983675 0
68 0.09999999999993892 0.1799999999997003 0
69 0.09999999999993904 0.2699999999996922 0
70 0.09999999999989027 0.3599999999998214 0
71 0.1999999999998887 0.08999999999983682 0
72 0.1999999999999386 0.1799999999997004 0
73 0.1999999999999387 0.2699999999996922 0
74 0.1999999999998888 0.3599999999998213 0
75 0.1000000000000784 0.6624999999997507 0
76 0.1000000000000008 0.7749999999996519 0
77 0.09999999999992447 0.8874999999998262 0
78 0.2000000000000787 0.6624999999997508 0
79 0.2000000000000007 0.774999999999652 0
80 0.1999999999999234 0.8874999999998263 0
81 0.3999999999998636 0.09479170179704964 0
82 0.3999999999999178 0.1895944939540362 0
83 0.3999999999999471 0.2845101979622331 0
84 0.3999999999999617 0.3798503991176882 0
85 0.3999999999999681 0.4766248540228558 0
86 0.3999999999999687 0.5775965567898507 0
87 0.3999999999999605 0.6825684585115891 0
88 0.3999999999999351 0.7882508940088928 0
89 0.3999999999998787 0.8941084325723148 0
90 0.4999999999997761 0.1000462442245303 0
91 0.4999999999998856 0.2000759987261679 0
92 0.4999999999999325 0.3001165712674008 0
93 0.4999999999999526 0.4001798067879269 0
94 0.4999999999999597 0.4999430522656695 0
95 0.4999999999999572 0.5997218850512159 0
96 0.4999999999999403 0.6998246501648896 0
97 0.4999999999998945 0.799908845909898 0
98 0.4999999999997829 0.8999633058876767 0
99 0.5999999999998648 0.1058884635263414 0
100 0.5999999999999291 0.2117221477682903 0
101 0.5999999999999587 0.3173726292587196 0
102 0.5999999999999708 0.4223227420685526 0
103 0.599999999999974 0.5232957905780418 0
104 0.5999999999999701 0.6200921576024704 0
105 0.5999999999999561 0.715465413095532 0
106 0.5999999999999237 0.8104111716927322 0
107 0.5999999999998574 0.9052254236790138 0
108 0.7999999999999331 0.112499999999788 0
109 0.7999999999999595 0.2249999999996385 0
110 0.7999999999999331 0.3374999999997763 0
111 0.8999999999999357 0.112499999999788 0
112 0.8999999999999603 0.2249999999996385 0
113 0.8999999999999359 0.3374999999997763 0
114 0.8000000000000663 0.639999999999796 0
115 0.8000000000000173 0.7299999999996621 0
116 0.7999999999999816 0.8199999999996939 0
117 0.7999999999999301 0.9099999999998497 0
118 0.9000000000000699 0.639999999999796 0
119 0.9000000000000183 0.7299999999996621 0
120 0.8999999999999825 0.8199999999996939 0
121 0.8999999999999336 0.9099999999998498 0
$EndNodes
$Elements
146
1 1 2 6 1 1 17
2 1 2 6 1 17 18
3 1 2 6 1 18 2
4 1 2 6 2 2 19
5 1 2 6 2 19 20
6 1 2 6 2 20 21
7 1 2 6 2 21 3
8 1 2 6 3 3 22
9 1 2 6 3 22 23
10 1 2 6 3 23 4
11 1 2 7 4 5 24
12 1 2 7 4 24 25
13 1 2 7 4 25 6
14 1 2 7 5 6 26
15 1 2 7 5 26 27
16 1 2 7 5 27 28
17 1 2 7 5 28 7
18 1 2 7 6 7 29
19 1 2 7 6 29 30
20 1 2 7 6 30 8
21 1 2 8 7 1 31
22 1 2 8 7 31 32
23 1 2 8 7 32 33
24 1 2 8 7 33 34
25 1 2 8 7 34 9
26 1 2 8 8 11 35
27 1 2 8 8 35 36
28 1 2 8 8 36 37
29 1 2 8 8 37 5
30 1 2 9 9 4 38
31 1 2 9 9 38 39
32 1 2 9 9 39 40
33 1 2 9 9 40 14
34 1 2 9 10 16 41
35 1 2 9 10 41 42
36 1 2 9 10 42 43
37 1 2 9 10 43 44
38 1 2 9 10 44 8
39 1 2 10 12 10 12
40 1 2 11 15 13 15
41 1 2 10 17 9 59
42 1 2 10 17 59 60
43 1 2 10 17 60 10
44 1 2 10 18 12 61
45 1 2 10 18 61 62
46 1 2 10 18 62 11
47 1 2 11 19 13 63
48 1 2 11 19 63 64
49 1 2 11 19 64 14
50 1 2 11 20 16 65
51 1 2 11 20 65 66
52 1 2 11 20 66 15
53 3 2 1 22 1 17 67 31
54 3 2 1 22 31 67 68 32
55 3 2 1 22 32 68 69 33
56 3 2 1 22 33 69 70 34
57 3 2 1 22 34 70 59 9
58 3 2 1 22 17 18 71 67
59 3 2 1 22 67 71 72 68
60 3 2 1 22 68 72 73 69
61 3 2 1 22 69 73 74 70
62 3 2 1 22 70 74 60 59
63 3 2 1 22 18 2 45 71
64 3 2 1 22 71 45 46 72
65 3 2 1 22 72 46 47 73
66 3 2 1 22 73 47 48 74
67 3 2 1 22 74 48 10 60
68 3 2 2 24 11 62 75 35
69 3 2 2 24 35 75 76 36
70 3 2 2 24 36 76 77 37
71 3 2 2 24 37 77 24 5
72 3 2 2 24 62 61 78 75
73 3 2 2 24 75 78 79 76
74 3 2 2 24 76 79 80 77
75 3 2 2 24 77 80 25 24
76 3 2 2 24 61 12 49 78
77 3 2 2 24 78 49 50 79
78 3 2 2 24 79 50 51 80
79 3 2 2 24 80 51 6 25
80 3 2 3 26 2 19 81 45
81 3 2 3 26 45 81 82 46
82 3 2 3 26 46 82 83 47
83 3 2 3 26 47 83 84 48
84 3 2 3 26 48 84 85 10
85 3 2 3 26 10 85 86 12
86 3 2 3 26 12 86 87 49
87 3 2 3 26 49 87 88 50
88 3 2 3 26 50 88 89 51
89 3 2 3 26 51 89 26 6
90 3 2 3 26 19 20 90 81
91 3 2 3 26 81 90 91 82
92 3 2 3 26 82 91 92 83
93 3 2 3 26 83 92 93 84
94 3 2 3 26 84 93 94 85
95 3 2 3 26 85 94 95 86
96 3 2 3 26 86 95 96 87
97 3 2 3 26 87 96 97 88
98 3 2 3 26 88 97 98 89
99 3 2 3 26 89 98 27 26
100 3 2 3 26 20 21 99 90
101 3 2 3 26 90 99 100 91
102 3 2 3 26 91 100 101 92
103 3 2 3 26 92 101 102 93
104 3 2 3 26 93 102 103 94
105 3 2 3 26 94 103 104 95
106 3 2 3 26 95 104 105 96
107 3 2 3 26 96 105 106 97
108 3 2 3 26 97 106 107 98
109 3 2 3 26 98 107 28 27
110 3 2 3 26 21 3 52 99
111 3 2 3 26 99 52 53 100
112 3 2 3 26 100 53 54 101
113 3 2 3 26 101 54 13 102
114 3 2 3 26 102 13 15 103
115 3 2 3 26 103 15 55 104
116 3 2 3 26 104 55 56 105
117 3 2 3 26 105 56 57 106
118 3 2 3 26 106 57 58 107
119 3 2 3 26 107 58 7 28
120 3 2 4 28 3 22 108 52
121 3 2 4 28 52 108 109 53
122 3 2 4 28 53 109 110 54
123 3 2 4 28 54 110 63 13
124 3 2 4 28 22 23 111 108
125 3 2 4 28 108 111 112 109
126 3 2 4 28 109 112 113 110
127 3 2 4 28 110 113 64 63
128 3 2 4 28 23 4 38 111
129 3 2 4 28 111 38 39 112
130 3 2 4 28 112 39 40 113
131 3 2 4 28 113 40 14 64
132 3 2 5 30 15 66 114 55
133 3 2 5 30 55 114 115 56
134 3 2 5 30 56 115 116 57
135 3 2 5 30 57 116 117 58
136 3 2 5 30 58 117 29 7
137 3 2 5 30 66 65 118 114
138 3 2 5 30 114 118 119 115
139 3 2 5 30 115 119 120 116
140 3 2 5 30 116 120 121 117
141 3 2 5 30 117 121 30 29
142 3 2 5 30 65 16 41 118
143 3 2 5 30 118 41 42 119
144 3 2 5 30 119 42 43 120
145 3 2 5 30 120 43 44 121
146 3 2 5 30 121 44 8 30
$EndElements
