$MeshFormat
2.2 0 8
$EndMeshFormat
$PhysicalNames
11
1 6 "Bottom"
1 7 "Top"
1 8 "LeftBoundary"
1 9 "RightBoundary"
1 10 "LeftCrack"
1 11 "RightCrack"
2 1 "Region_Left_Lower"
2 2 "Region_Left_Upper"
2 3 "Region_Middle"
2 4 "Region_Right_Lower"
2 5 "Region_Right_Upper"
$EndPhysicalNames
$Nodes
121
1 0 0 0
2 0.3 0 0
3 0.7 0 0
4 1 0 0
5 0 1 0
6 0.3 1 0
7 0.7 1 0
8 1 1 0
9 0 0.55 0
10 0.3 0.55 0
11 0 0.65 0
12 0.3 0.65 0
13 0.7 0.35 0
14 1 0.35 0
15 0.7 0.45 0
16 1 0.45 0
17 0.0999999999997538 0 0
18 0.1999999999997478 0 0
19 0.399999999999783 0 0
20 0.4999999999995011 0 0
21 0.5999999999997396 0 0
22 0.799999999999819 0 0
23 0.8999999999998334 0 0
24 0.0999999999997538 1 0
25 0.1999999999997478 1 0
26 0.399999999999783 1 0
27 0.4999999999995011 1 0
28 0.5999999999997396 1 0
29 0.799999999999819 1 0
30 0.8999999999998334 1 0
31 0 0.09166666666647762 0
32 0 0.1833333333328603 0
33 0 0.2749999999992648 0
34 0 0.3666666666661693 0
35 0 0.4583333333330736 0
36 0 0.7666666666662403 0
37 0 0.8833333333329503 0
38 1 0.1166666666663845 0
39 1 0.2333333333330381 0
40 1 0.5416666666664244 0
41 1 0.6333333333327404 0
42 1 0.7249999999992084 0
43 1 0.8166666666662115 0
44 1 0.9083333333331129 0
45 0.3 0.09166666666647762 0
46 0.3 0.1833333333328603 0
47 0.3 0.2749999999992648 0
48 0.3 0.3666666666661693 0
49 0.3 0.4583333333330736 0
50 0.3 0.7666666666662403 0
51 0.3 0.8833333333329503 0
52 0.7 0.1166666666663845 0
53 0.7 0.2333333333330381 0
54 0.7 0.5416666666664244 0
55 0.7 0.6333333333327404 0
56 0.7 0.7249999999992084 0
57 0.7 0.8166666666662115 0
58 0.7 0.9083333333331129 0
59 0.0999999999997538 0.55 0
60 0.1999999999997478 0.55 0
61 0.2000000000002566 0.65 0
62 0.1000000000002548 0.65 0
63 0.799999999999819 0.35 0
64 0.8999999999998334 0.35 0
65 0.900000000000181 0.45 0
66 0.8000000000001666 0.45 0
67 0.09999999999989505 0.09166666666647683 0
68 0.09999999999995027 0.1833333333329536 0
69 0.09999999999996485 0.2749999999995092 0
70 0.09999999999995063 0.3666666666662705 0
71 0.09999999999989548 0.458333333333117 0
72 0.1999999999998938 0.09166666666647694 0
73 0.1999999999999502 0.1833333333329537 0
74 0.1999999999999649 0.2749999999995094 0
75 0.1999999999999504 0.3666666666662705 0
76 0.1999999999998941 0.458333333333117 0
77 0.1000000000000592 0.7666666666664266 0
78 0.09999999999994397 0.8833333333331068 0
79 0.2000000000000593 0.7666666666664267 0
80 0.199999999999943 0.8833333333331069 0
81 0.3999999999998647 0.09651206377090996 0
82 0.3999999999999188 0.1928109805929437 0
83 0.3999999999999473 0.2887148576412878 0
84 0.3999999999999612 0.384049577148081 0
85 0.3999999999999671 0.4791909383712593 0
86 0.3999999999999678 0.5755958338235552 0
87 0.3999999999999606 0.6765069439289405 0
88 0.3999999999999367 0.7831815779458678 0
89 0.3999999999998807 0.8913467256444938 0
90 0.4999999999997787 0.1020411059183809 0
91 0.4999999999998871 0.2036466912704887 0
92 0.4999999999999323 0.3042730204930803 0
93 0.4999999999999515 0.4028799414484051 0
94 0.4999999999999584 0.4998778813567835 0
95 0.4999999999999563 0.5969041065582562 0
96 0.4999999999999406 0.6955854038194453 0
97 0.4999999999998964 0.7962999611414529 0
98 0.4999999999997857 0.8979626208406946 0
99 0.5999999999998669 0.1086374730483698 0
100 0.5999999999999305 0.2167496937942702 0
101 0.5999999999999587 0.3233603505559151 0
102 0.59999999999997 0.4242331222201419 0
103 0.599999999999973 0.5206380659799388 0
104 0.5999999999999697 0.6158175771169402 0
105 0.5999999999999565 0.7112156635779751 0
106 0.5999999999999248 0.8071810927170014 0
107 0.5999999999998589 0.9035093852709918 0
108 0.7999999999999248 0.1166666666665023 0
109 0.7999999999999248 0.2333333333331648 0
110 0.8999999999999277 0.1166666666665023 0
111 0.8999999999999277 0.2333333333331649 0
112 0.800000000000068 0.5416666666664395 0
113 0.8000000000000241 0.633333333332892 0
114 0.7999999999999999 0.7249999999994724 0
115 0.7999999999999751 0.8166666666662747 0
116 0.7999999999999285 0.9083333333331302 0
117 0.9000000000000714 0.5416666666664394 0
118 0.9000000000000248 0.633333333332892 0
119 0.9 0.7249999999994723 0
120 0.8999999999999758 0.8166666666662746 0
121 0.8999999999999319 0.9083333333331303 0
$EndNodes
$Elements
146
1 1 2 6 1 1 17
2 1 2 6 1 17 18
3 1 2 6 1 18 2
4 1 2 6 2 2 19
5 1 2 6 2 19 20
6 1 2 6 2 20 21
7 1 2 6 2 21 3
8 1 2 6 3 3 22
9 1 2 6 3 22 23
10 1 2 6 3 23 4
11 1 2 7 4 5 24
12 1 2 7 4 24 25
13 1 2 7 4 25 6
14 1 2 7 5 6 26
15 1 2 7 5 26 27
16 1 2 7 5 27 28
17 1 2 7 5 28 7
18 1 2 7 6 7 29
19 1 2 7 6 29 30
20 1 2 7 6 30 8
21 1 2 8 7 1 31
22 1 2 8 7 31 32
23 1 2 8 7 32 33
24 1 2 8 7 33 34
25 1 2 8 7 34 35
26 1 2 8 7 35 9
27 1 2 8 8 11 36
28 1 2 8 8 36 37
29 1 2 8 8 37 5
30 1 2 9 9 4 38
31 1 2 9 9 38 39
32 1 2 9 9 39 14
33 1 2 9 10 16 40
34 1 2 9 10 40 41
35 1 2 9 10 41 42
36 1 2 9 10 42 43
37 1 2 9 10 43 44
38 1 2 9 10 44 8
39 1 2 10 12 10 12
40 1 2 11 15 13 15
41 1 2 10 17 9 59
42 1 2 10 17 59 60
43 1 2 10 17 60 10
44 1 2 10 18 12 61
45 1 2 10 18 61 62
46 1 2 10 18 62 11
47 1 2 11 19 13 63
48 1 2 11 19 63 64
49 1 2 11 19 64 14
50 1 2 11 20 16 65
51 1 2 11 20 65 66
52 1 2 11 20 66 15
53 3 2 1 22 1 17 67 31
54 3 2 1 22 31 67 68 32
55 3 2 1 22 32 68 69 33
56 3 2 1 22 33 69 70 34
57 3 2 1 22 34 70 71 35
58 3 2 1 22 35 71 59 9
59 3 2 1 22 17 18 72 67
60 3 2 1 22 67 72 73 68
61 3 2 1 22 68 73 74 69
62 3 2 1 22 69 74 75 70
63 3 2 1 22 70 75 76 71
64 3 2 1 22 71 76 60 59
65 3 2 1 22 18 2 45 72
66 3 2 1 22 72 45 46 73
67 3 2 1 22 73 46 47 74
68 3 2 1 22 74 47 48 75
69 3 2 1 22 75 48 49 76
70 3 2 1 22 76 49 10 60
71 3 2 2 24 11 62 77 36
72 3 2 2 24 36 77 78 37
73 3 2 2 24 37 78 24 5
74 3 2 2 24 62 61 79 77
75 3 2 2 24 77 79 80 78
76 3 2 2 24 78 80 25 24
77 3 2 2 24 61 12 50 79
78 3 2 2 24 79 50 51 80
79 3 2 2 24 80 51 6 25
80 3 2 3 26 2 19 81 45
81 3 2 3 26 45 81 82 46
82 3 2 3 26 46 82 83 47
83 3 2 3 26 47 83 84 48
84 3 2 3 26 48 84 85 49
85 3 2 3 26 49 85 86 10
86 3 2 3 26 10 86 87 12
87 3 2 3 26 12 87 88 50
88 3 2 3 26 50 88 89 51
89 3 2 3 26 51 89 26 6
90 3 2 3 26 19 20 90 81
91 3 2 3 26 81 90 91 82
92 3 2 3 26 82 91 92 83
93 3 2 3 26 83 92 93 84
94 3 2 3 26 84 93 94 85
95 3 2 3 26 85 94 95 86
96 3 2 3 26 86 95 96 87
97 3 2 3 26 87 96 97 88
98 3 2 3 26 88 97 98 89
99 3 2 3 26 89 98 27 26
100 3 2 3 26 20 21 99 90
101 3 2 3 26 90 99 100 91
102 3 2 3 26 91 100 101 92
103 3 2 3 26 92 101 102 93
104 3 2 3 26 93 102 103 94
105 3 2 3 26 94 103 104 95
106 3 2 3 26 95 104 105 96
107 3 2 3 26 96 105 106 97
108 3 2 3 26 97 106 107 98
109 3 2 3 26 98 107 28 27
110 3 2 3 26 21 3 52 99
111 3 2 3 26 99 52 53 100
112 3 2 3 26 100 53 13 101
113 3 2 3 26 101 13 15 102
114 3 2 3 26 102 15 54 103
115 3 2 3 26 103 54 55 104
116 3 2 3 26 104 55 56 105
117 3 2 3 26 105 56 57 106
118 3 2 3 26 106 57 58 107
119 3 2 3 26 107 58 7 28
120 3 2 4 28 3 22 108 52
121 3 2 4 28 52 108 109 53
122 3 2 4 28 53 109 63 13
123 3 2 4 28 22 23 110 108
124 3 2 4 28 108 110 111 109
125 3 2 4 28 109 111 64 63
126 3 2 4 28 23 4 38 110
127 3 2 4 28 110 38 39 111
128 3 2 4 28 111 39 14 64
129 3 2 5 30 15 66 112 54
130 3 2 5 30 54 112 113 55
131 3 2 5 30 55 113 114 56
132 3 2 5 30 56 114 115 57
133 3 2 5 30 57 115 116 58
134 3 2 5 30 58 116 29 7
135 3 2 5 30 66 65 117 112
136 3 2 5 30 112 117 118 113
137 3 2 5 30 113 118 119 114
138 3 2 5 30 114 119 120 115
139 3 2 5 30 115 120 121 116
140 3 2 5 30 116 121 30 29
141 3 2 5 30 65 16 40 117
142 3 2 5 30 117 40 41 118
143 3 2 5 30 118 41 42 119
144 3 2 5 30 119 42 43 120
145 3 2 5 30 120 43 44 121
146 3 2 5 30 121 44 8 30
$EndElements
