$MeshFormat
2.2 0 8
$EndMeshFormat
$PhysicalNames
11
1 6 "Bottom"
1 7 "Top"
1 8 "LeftBoundary"
1 9 "RightBoundary"
1 10 "LeftCrack"
1 11 "RightCrack"
2 1 "Region_Left_Lower"
2 2 "Region_Left_Upper"
2 3 "Region_Middle"
2 4 "Region_Right_Lower"
2 5 "Region_Right_Upper"
$EndPhysicalNames
$Nodes
132
1 0 0 0
2 0.2 0 0
3 0.8 0 0
4 1 0 0
5 0 1 0
6 0.2 1 0
7 0.8 1 0
8 1 1 0
9 0 0.45 0
10 0.2 0.45 0
11 0 0.55 0
12 0.2 0.55 0
13 0.8 0.45 0
14 1 0.45 0
15 0.8 0.55 0
16 1 0.55 0
17 0.0999999999997371 0 0
18 0.2857142857141294 0 0
19 0.3714285714281288 0 0
20 0.4571428571421699 0 0
21 0.5428571428564355 0 0
22 0.6285714285709301 0 0
23 0.7142857142854775 0 0
24 0.8999999999998264 0 0
25 0.0999999999997371 1 0
26 0.2857142857141294 1 0
27 0.3714285714281288 1 0
28 0.4571428571421699 1 0
29 0.5428571428564355 1 0
30 0.6285714285709301 1 0
31 0.7142857142854775 1 0
32 0.8999999999998264 1 0
33 0 0.08999999999980407 0
34 0 0.1799999999995423 0
35 0 0.2699999999995226 0
36 0 0.3599999999997602 0
37 0 0.6624999999996317 0
38 0 0.7749999999994364 0
39 0 0.8874999999998265 0
40 1 0.1124999999997386 0
41 1 0.2249999999994115 0
42 1 0.3374999999997084 0
43 1 0.6399999999997097 0
44 1 0.7299999999994582 0
45 1 0.8199999999995404 0
46 1 0.9099999999998569 0
47 0.2 0.08999999999980407 0
48 0.2 0.1799999999995423 0
49 0.2 0.2699999999995226 0
50 0.2 0.3599999999997602 0
51 0.2 0.6624999999996317 0
52 0.2 0.7749999999994364 0
53 0.2 0.8874999999998265 0
54 0.8 0.1124999999997386 0
55 0.8 0.2249999999994115 0
56 0.8 0.3374999999997084 0
57 0.8 0.6399999999997097 0
58 0.8 0.7299999999994582 0
59 0.8 0.8199999999995404 0
60 0.8 0.9099999999998569 0
61 0.0999999999997371 0.45 0
62 0.100000000000274 0.55 0
63 0.8999999999998264 0.45 0
64 0.9000000000001737 0.55 0
65 0.09999999999991882 0.08999999999981319 0
66 0.099999999999969 0.1799999999996412 0
67 0.099999999999969 0.2699999999996293 0
68 0.09999999999991882 0.3599999999997903 0
69 0.1000000000000606 0.662499999999701 0
70 0.1000000000000006 0.7749999999995771 0
71 0.09999999999994211 0.8874999999998097 0
72 0.2857142857141191 0.09285358162494675 0
73 0.2857142857141347 0.185716463570875 0
74 0.2857142857141486 0.2787221550612226 0
75 0.2857142857141574 0.3722835956929094 0
76 0.2857142857141629 0.4676790599924617 0
77 0.2857142857141657 0.5685082973246175 0
78 0.2857142857141642 0.6749905078163398 0
79 0.285714285714154 0.7829428178369516 0
80 0.2857142857141331 0.8913976657155575 0
81 0.3714285714282325 0.09578722246406238 0
82 0.3714285714282961 0.191549914675044 0
83 0.3714285714283319 0.2874453872574017 0
84 0.371428571428351 0.3838977060763087 0
85 0.3714285714283609 0.4817994156129701 0
86 0.3714285714283641 0.5824426566188569 0
87 0.3714285714283568 0.6857110202775252 0
88 0.371428571428328 0.7901164920382058 0
89 0.371428571428259 0.8949857152493268 0
90 0.4571428571424032 0.09877112360773228 0
91 0.4571428571425143 0.1974353677869011 0
92 0.4571428571425686 0.2960575700918557 0
93 0.4571428571425949 0.3948329047039852 0
94 0.4571428571426068 0.494084944822874 0
95 0.457142857142608 0.5942122436745505 0
96 0.4571428571425929 0.6952039645736271 0
97 0.4571428571425444 0.7966480515950889 0
98 0.4571428571424279 0.898294696266792 0
99 0.5428571428566895 0.1018405960798608 0
100 0.5428571428568092 0.2034804274878884 0
101 0.5428571428568667 0.3048218944577128 0
102 0.5428571428568933 0.405707560564082 0
103 0.542857142856904 0.5058087986407056 0
104 0.5428571428569021 0.6051367936024103 0
105 0.5428571428568822 0.704041629856161 0
106 0.5428571428568268 0.8027569052961359 0
107 0.5428571428567014 0.9013972505278044 0
108 0.6285714285710871 0.1050870743180344 0
109 0.6285714285711741 0.2099215055338277 0
110 0.6285714285712183 0.3142377991602492 0
111 0.6285714285712386 0.4174450401256704 0
112 0.6285714285712456 0.518110941087522 0
113 0.6285714285712418 0.6161103582292661 0
114 0.6285714285712234 0.7126808872377987 0
115 0.6285714285711783 0.8086428045054174 0
116 0.6285714285710879 0.9043660998180454 0
117 0.714285714285538 0.1086180946082602 0
118 0.7142857142855806 0.2170347248140209 0
119 0.7142857142856038 0.3249343454685534 0
120 0.7142857142856144 0.4314003811748537 0
121 0.7142857142856173 0.5322696644356272 0
122 0.7142857142856138 0.6277372651605849 0
123 0.7142857142856027 0.721369897132113 0
124 0.7142857142855782 0.8144076630498265 0
125 0.7142857142855357 0.9072391093419638 0
126 0.8999999999999577 0.112499999999757 0
127 0.8999999999999811 0.2249999999995602 0
128 0.8999999999999574 0.3374999999997401 0
129 0.9000000000000511 0.6399999999997568 0
130 0.9000000000000112 0.7299999999995896 0
131 0.899999999999989 0.8199999999996355 0
132 0.899999999999949 0.9099999999998351 0
$EndNodes
$Elements
156
1 1 2 6 1 1 17
2 1 2 6 1 17 2
3 1 2 6 2 2 18
4 1 2 6 2 18 19
5 1 2 6 2 19 20
6 1 2 6 2 20 21
7 1 2 6 2 21 22
8 1 2 6 2 22 23
9 1 2 6 2 23 3
10 1 2 6 3 3 24
11 1 2 6 3 24 4
12 1 2 7 4 5 25
13 1 2 7 4 25 6
14 1 2 7 5 6 26
15 1 2 7 5 26 27
16 1 2 7 5 27 28
17 1 2 7 5 28 29
18 1 2 7 5 29 30
19 1 2 7 5 30 31
20 1 2 7 5 31 7
21 1 2 7 6 7 32
22 1 2 7 6 32 8
23 1 2 8 7 1 33
24 1 2 8 7 33 34
25 1 2 8 7 34 35
26 1 2 8 7 35 36
27 1 2 8 7 36 9
28 1 2 8 8 11 37
29 1 2 8 8 37 38
30 1 2 8 8 38 39
31 1 2 8 8 39 5
32 1 2 9 9 4 40
33 1 2 9 9 40 41
34 1 2 9 9 41 42
35 1 2 9 9 42 14
36 1 2 9 10 16 43
37 1 2 9 10 43 44
38 1 2 9 10 44 45
39 1 2 9 10 45 46
40 1 2 9 10 46 8
41 1 2 10 12 10 12
42 1 2 11 15 13 15
43 1 2 10 17 9 61
44 1 2 10 17 61 10
45 1 2 10 18 12 62
46 1 2 10 18 62 11
47 1 2 11 19 13 63
48 1 2 11 19 63 14
49 1 2 11 20 16 64
50 1 2 11 20 64 15
51 3 2 1 22 1 17 65 33
52 3 2 1 22 33 65 66 34
53 3 2 1 22 34 66 67 35
54 3 2 1 22 35 67 68 36
55 3 2 1 22 36 68 61 9
56 3 2 1 22 17 2 47 65
57 3 2 1 22 65 47 48 66
58 3 2 1 22 66 48 49 67
59 3 2 1 22 67 49 50 68
60 3 2 1 22 68 50 10 61
61 3 2 2 24 11 62 69 37
62 3 2 2 24 37 69 70 38
63 3 2 2 24 38 70 71 39
64 3 2 2 24 39 71 25 5
65 3 2 2 24 62 12 51 69
66 3 2 2 24 69 51 52 70
67 3 2 2 24 70 52 53 71
68 3 2 2 24 71 53 6 25
69 3 2 3 26 2 18 72 47
70 3 2 3 26 47 72 73 48
71 3 2 3 26 48 73 74 49
72 3 2 3 26 49 74 75 50
73 3 2 3 26 50 75 76 10
74 3 2 3 26 10 76 77 12
75 3 2 3 26 12 77 78 51
76 3 2 3 26 51 78 79 52
77 3 2 3 26 52 79 80 53
78 3 2 3 26 53 80 26 6
79 3 2 3 26 18 19 81 72
80 3 2 3 26 72 81 82 73
81 3 2 3 26 73 82 83 74
82 3 2 3 26 74 83 84 75
83 3 2 3 26 75 84 85 76
84 3 2 3 26 76 85 86 77
85 3 2 3 26 77 86 87 78
86 3 2 3 26 78 87 88 79
87 3 2 3 26 79 88 89 80
88 3 2 3 26 80 89 27 26
89 3 2 3 26 19 20 90 81
90 3 2 3 26 81 90 91 82
91 3 2 3 26 82 91 92 83
92 3 2 3 26 83 92 93 84
93 3 2 3 26 84 93 94 85
94 3 2 3 26 85 94 95 86
95 3 2 3 26 86 95 96 87
96 3 2 3 26 87 96 97 88
97 3 2 3 26 88 97 98 89
98 3 2 3 26 89 98 28 27
99 3 2 3 26 20 21 99 90
100 3 2 3 26 90 99 100 91
101 3 2 3 26 91 100 101 92
102 3 2 3 26 92 101 102 93
103 3 2 3 26 93 102 103 94
104 3 2 3 26 94 103 104 95
105 3 2 3 26 95 104 105 96
106 3 2 3 26 96 105 106 97
107 3 2 3 26 97 106 107 98
108 3 2 3 26 98 107 29 28
109 3 2 3 26 21 22 108 99
110 3 2 3 26 99 108 109 100
111 3 2 3 26 100 109 110 101
112 3 2 3 26 101 110 111 102
113 3 2 3 26 102 111 112 103
114 3 2 3 26 103 112 113 104
115 3 2 3 26 104 113 114 105
116 3 2 3 26 105 114 115 106
117 3 2 3 26 106 115 116 107
118 3 2 3 26 107 116 30 29
119 3 2 3 26 22 23 117 108
120 3 2 3 26 108 117 118 109
121 3 2 3 26 109 118 119 110
122 3 2 3 26 110 119 120 111
123 3 2 3 26 111 120 121 112
124 3 2 3 26 112 121 122 113
125 3 2 3 26 113 122 123 114
126 3 2 3 26 114 123 124 115
127 3 2 3 26 115 124 125 116
128 3 2 3 26 116 125 31 30
129 3 2 3 26 23 3 54 117
130 3 2 3 26 117 54 55 118
131 3 2 3 26 118 55 56 119
132 3 2 3 26 119 56 13 120
133 3 2 3 26 120 13 15 121
134 3 2 3 26 121 15 57 122
135 3 2 3 26 122 57 58 123
136 3 2 3 26 123 58 59 124
137 3 2 3 26 124 59 60 125
138 3 2 3 26 125 60 7 31
139 3 2 4 28 3 24 126 54
140 3 2 4 28 54 126 127 55
141 3 2 4 28 55 127 128 56
142 3 2 4 28 56 128 63 13
143 3 2 4 28 24 4 40 126
144 3 2 4 28 126 40 41 127
145 3 2 4 28 127 41 42 128
146 3 2 4 28 128 42 14 63
147 3 2 5 30 15 64 129 57
148 3 2 5 30 57 129 130 58
149 3 2 5 30 58 130 131 59
150 3 2 5 30 59 131 132 60
151 3 2 5 30 60 132 32 7
152 3 2 5 30 64 16 43 129
153 3 2 5 30 129 43 44 130
154 3 2 5 30 130 44 45 131
155 3 2 5 30 131 45 46 132
156 3 2 5 30 132 46 8 32
$EndElements
