$MeshFormat
2.2 0 8
$EndMeshFormat
$PhysicalNames
11
1 6 "Bottom"
1 7 "Top"
1 8 "LeftBoundary"
1 9 "RightBoundary"
1 10 "LeftCrack"
1 11 "RightCrack"
2 1 "Region_Left_Lower"
2 2 "Region_Left_Upper"
2 3 "Region_Middle"
2 4 "Region_Right_Lower"
2 5 "Region_Right_Upper"
$EndPhysicalNames
$Nodes
132
1 0 0 0
2 0.2 0 0
3 0.8 0 0
4 1 0 0
5 0 1 0
6 0.2 1 0
7 0.8 1 0
8 1 1 0
9 0 0.55 0
10 0.2 0.55 0
11 0 0.65 0
12 0.2 0.65 0
13 0.8 0.35 0
14 1 0.35 0
15 0.8 0.45 0
16 1 0.45 0
17 0.0999999999997371 0 0
18 0.2857142857141294 0 0
19 0.3714285714281288 0 0
20 0.4571428571421699 0 0
21 0.5428571428564355 0 0
22 0.6285714285709301 0 0
23 0.7142857142854775 0 0
24 0.8999999999998264 0 0
25 0.0999999999997371 1 0
26 0.2857142857141294 1 0
27 0.3714285714281288 1 0
28 0.4571428571421699 1 0
29 0.5428571428564355 1 0
30 0.6285714285709301 1 0
31 0.7142857142854775 1 0
32 0.8999999999998264 1 0
33 0 0.09166666666647762 0
34 0 0.1833333333328603 0
35 0 0.2749999999992648 0
36 0 0.3666666666661693 0
37 0 0.4583333333330736 0
38 0 0.7666666666662403 0
39 0 0.8833333333329503 0
40 1 0.1166666666663845 0
41 1 0.2333333333330381 0
42 1 0.5416666666664244 0
43 1 0.6333333333327404 0
44 1 0.7249999999992084 0
45 1 0.8166666666662115 0
46 1 0.9083333333331129 0
47 0.2 0.09166666666647762 0
48 0.2 0.1833333333328603 0
49 0.2 0.2749999999992648 0
50 0.2 0.3666666666661693 0
51 0.2 0.4583333333330736 0
52 0.2 0.7666666666662403 0
53 0.2 0.8833333333329503 0
54 0.8 0.1166666666663845 0
55 0.8 0.2333333333330381 0
56 0.8 0.5416666666664244 0
57 0.8 0.6333333333327404 0
58 0.8 0.7249999999992084 0
59 0.8 0.8166666666662115 0
60 0.8 0.9083333333331129 0
61 0.0999999999997371 0.55 0
62 0.100000000000274 0.65 0
63 0.8999999999998264 0.35 0
64 0.9000000000001737 0.45 0
65 0.09999999999992179 0.09166666666646441 0
66 0.09999999999997505 0.1833333333329066 0
67 0.09999999999998645 0.2749999999994266 0
68 0.09999999999997508 0.3666666666662185 0
69 0.09999999999992179 0.458333333333093 0
70 0.1000000000000484 0.7666666666663602 0
71 0.09999999999995456 0.8833333333330473 0
72 0.2857142857141194 0.09443690387863177 0
73 0.2857142857141353 0.1886658270712919 0
74 0.2857142857141486 0.2826637481077505 0
75 0.2857142857141569 0.3765906536790483 0
76 0.2857142857141616 0.47094922811168 0
77 0.2857142857141642 0.567092060433853 0
78 0.2857142857141636 0.6686804060958598 0
79 0.2857142857141546 0.7775741663988469 0
80 0.2857142857141339 0.8884696429713145 0
81 0.3714285714282339 0.0972801333799849 0
82 0.3714285714282972 0.1941406294681487 0
83 0.3714285714283317 0.2904953220685305 0
84 0.3714285714283495 0.3865387271720124 0
85 0.3714285714283586 0.4828978859629889 0
86 0.3714285714283618 0.5807697819953426 0
87 0.3714285714283559 0.681816883824892 0
88 0.3714285714283289 0.786485156188048 0
89 0.3714285714282607 0.8929090969619943 0
90 0.4571428571424054 0.1002443671372744 0
91 0.4571428571425156 0.1998610737709451 0
92 0.457142857142568 0.2986092952163302 0
93 0.4571428571425928 0.3965208539311221 0
94 0.4571428571426041 0.4941299336393342 0
95 0.4571428571426058 0.5923864426222633 0
96 0.4571428571425922 0.6922347795567694 0
97 0.4571428571425458 0.7939037586115427 0
98 0.4571428571424301 0.8967119391297165 0
99 0.5428571428566922 0.1034585398997247 0
100 0.5428571428568105 0.2061069844933209 0
101 0.5428571428568657 0.307421062708898 0
102 0.542857142856891 0.4069598270730344 0
103 0.5428571428569015 0.505141543809155 0
104 0.5428571428569005 0.6029580814672884 0
105 0.5428571428568819 0.7012520311925577 0
106 0.5428571428568282 0.8003391744445263 0
107 0.5428571428567035 0.9000325871805922 0
108 0.6285714285710893 0.1071299121141092 0
109 0.6285714285711753 0.2133531268104078 0
110 0.6285714285712174 0.3177299710120562 0
111 0.6285714285712365 0.4186037831281605 0
112 0.6285714285712435 0.5165290734481248 0
113 0.6285714285712409 0.6131529860148032 0
114 0.6285714285712235 0.7095490595527346 0
115 0.6285714285711794 0.8061576154060991 0
116 0.6285714285710894 0.9030169676786 0
117 0.7142857142855397 0.1114895416518857 0
118 0.7142857142855816 0.222227690853558 0
119 0.7142857142856035 0.3309611144399617 0
120 0.714285714285613 0.4325107919870327 0
121 0.714285714285616 0.5287489030287686 0
122 0.7142857142856135 0.6233031508529296 0
123 0.7142857142856031 0.7174452910379545 0
124 0.7142857142855791 0.8115712799635754 0
125 0.7142857142855363 0.9057657529359547 0
126 0.8999999999999533 0.1166666666664586 0
127 0.8999999999999532 0.233333333333119 0
128 0.9000000000000511 0.5416666666664187 0
129 0.9000000000000139 0.6333333333328277 0
130 0.9000000000000001 0.724999999999383 0
131 0.8999999999999861 0.8166666666662318 0
132 0.899999999999949 0.9083333333331144 0
$EndNodes
$Elements
156
1 1 2 6 1 1 17
2 1 2 6 1 17 2
3 1 2 6 2 2 18
4 1 2 6 2 18 19
5 1 2 6 2 19 20
6 1 2 6 2 20 21
7 1 2 6 2 21 22
8 1 2 6 2 22 23
9 1 2 6 2 23 3
10 1 2 6 3 3 24
11 1 2 6 3 24 4
12 1 2 7 4 5 25
13 1 2 7 4 25 6
14 1 2 7 5 6 26
15 1 2 7 5 26 27
16 1 2 7 5 27 28
17 1 2 7 5 28 29
18 1 2 7 5 29 30
19 1 2 7 5 30 31
20 1 2 7 5 31 7
21 1 2 7 6 7 32
22 1 2 7 6 32 8
23 1 2 8 7 1 33
24 1 2 8 7 33 34
25 1 2 8 7 34 35
26 1 2 8 7 35 36
27 1 2 8 7 36 37
28 1 2 8 7 37 9
29 1 2 8 8 11 38
30 1 2 8 8 38 39
31 1 2 8 8 39 5
32 1 2 9 9 4 40
33 1 2 9 9 40 41
34 1 2 9 9 41 14
35 1 2 9 10 16 42
36 1 2 9 10 42 43
37 1 2 9 10 43 44
38 1 2 9 10 44 45
39 1 2 9 10 45 46
40 1 2 9 10 46 8
41 1 2 10 12 10 12
42 1 2 11 15 13 15
43 1 2 10 17 9 61
44 1 2 10 17 61 10
45 1 2 10 18 12 62
46 1 2 10 18 62 11
47 1 2 11 19 13 63
48 1 2 11 19 63 14
49 1 2 11 20 16 64
50 1 2 11 20 64 15
51 3 2 1 22 1 17 65 33
52 3 2 1 22 33 65 66 34
53 3 2 1 22 34 66 67 35
54 3 2 1 22 35 67 68 36
55 3 2 1 22 36 68 69 37
56 3 2 1 22 37 69 61 9
57 3 2 1 22 17 2 47 65
58 3 2 1 22 65 47 48 66
59 3 2 1 22 66 48 49 67
60 3 2 1 22 67 49 50 68
61 3 2 1 22 68 50 51 69
62 3 2 1 22 69 51 10 61
63 3 2 2 24 11 62 70 38
64 3 2 2 24 38 70 71 39
65 3 2 2 24 39 71 25 5
66 3 2 2 24 62 12 52 70
67 3 2 2 24 70 52 53 71
68 3 2 2 24 71 53 6 25
69 3 2 3 26 2 18 72 47
70 3 2 3 26 47 72 73 48
71 3 2 3 26 48 73 74 49
72 3 2 3 26 49 74 75 50
73 3 2 3 26 50 75 76 51
74 3 2 3 26 51 76 77 10
75 3 2 3 26 10 77 78 12
76 3 2 3 26 12 78 79 52
77 3 2 3 26 52 79 80 53
78 3 2 3 26 53 80 26 6
79 3 2 3 26 18 19 81 72
80 3 2 3 26 72 81 82 73
81 3 2 3 26 73 82 83 74
82 3 2 3 26 74 83 84 75
83 3 2 3 26 75 84 85 76
84 3 2 3 26 76 85 86 77
85 3 2 3 26 77 86 87 78
86 3 2 3 26 78 87 88 79
87 3 2 3 26 79 88 89 80
88 3 2 3 26 80 89 27 26
89 3 2 3 26 19 20 90 81
90 3 2 3 26 81 90 91 82
91 3 2 3 26 82 91 92 83
92 3 2 3 26 83 92 93 84
93 3 2 3 26 84 93 94 85
94 3 2 3 26 85 94 95 86
95 3 2 3 26 86 95 96 87
96 3 2 3 26 87 96 97 88
97 3 2 3 26 88 97 98 89
98 3 2 3 26 89 98 28 27
99 3 2 3 26 20 21 99 90
100 3 2 3 26 90 99 100 91
101 3 2 3 26 91 100 101 92
102 3 2 3 26 92 101 102 93
103 3 2 3 26 93 102 103 94
104 3 2 3 26 94 103 104 95
105 3 2 3 26 95 104 105 96
106 3 2 3 26 96 105 106 97
107 3 2 3 26 97 106 107 98
108 3 2 3 26 98 107 29 28
109 3 2 3 26 21 22 108 99
110 3 2 3 26 99 108 109 100
111 3 2 3 26 100 109 110 101
112 3 2 3 26 101 110 111 102
113 3 2 3 26 102 111 112 103
114 3 2 3 26 103 112 113 104
115 3 2 3 26 104 113 114 105
116 3 2 3 26 105 114 115 106
117 3 2 3 26 106 115 116 107
118 3 2 3 26 107 116 30 29
119 3 2 3 26 22 23 117 108
120 3 2 3 26 108 117 118 109
121 3 2 3 26 109 118 119 110
122 3 2 3 26 110 119 120 111
123 3 2 3 26 111 120 121 112
124 3 2 3 26 112 121 122 113
125 3 2 3 26 113 122 123 114
126 3 2 3 26 114 123 124 115
127 3 2 3 26 115 124 125 116
128 3 2 3 26 116 125 31 30
129 3 2 3 26 23 3 54 117
130 3 2 3 26 117 54 55 118
131 3 2 3 26 118 55 13 119
132 3 2 3 26 119 13 15 120
133 3 2 3 26 120 15 56 121
134 3 2 3 26 121 56 57 122
135 3 2 3 26 122 57 58 123
136 3 2 3 26 123 58 59 124
137 3 2 3 26 124 59 60 125
138 3 2 3 26 125 60 7 31
139 3 2 4 28 3 24 126 54
140 3 2 4 28 54 126 127 55
141 3 2 4 28 55 127 63 13
142 3 2 4 28 24 4 40 126
143 3 2 4 28 126 40 41 127
144 3 2 4 28 127 41 14 63
145 3 2 5 30 15 64 128 56
146 3 2 5 30 56 128 129 57
147 3 2 5 30 57 129 130 58
148 3 2 5 30 58 130 131 59
149 3 2 5 30 59 131 132 60
150 3 2 5 30 60 132 32 7
151 3 2 5 30 64 16 42 128
152 3 2 5 30 128 42 43 129
153 3 2 5 30 129 43 44 130
154 3 2 5 30 130 44 45 131
155 3 2 5 30 131 45 46 132
156 3 2 5 30 132 46 8 32
$EndElements
